<svg width="110" height="16" viewBox="0 0 110 16" fill="none" xmlns="http://www.w3.org/2000/svg">
<g clip-path="url(#clip0_1994_6345)">
<path d="M6.6065 0.374836C7.50545 0.373005 8.39285 0.60817 9.2008 1.06234C9.99258 1.52191 10.6988 2.1553 11.2799 2.92692L10.2042 3.96859C9.73584 3.39401 9.18164 2.92121 8.56805 2.57275C7.94629 2.20889 7.25865 2.01971 6.56131 2.02067C5.91216 2.01424 5.26991 2.17436 4.68112 2.48942C4.10962 2.79977 3.58957 3.22279 3.14443 3.73942C2.70992 4.27368 2.3692 4.89977 2.14106 5.58317C1.88801 6.34424 1.76226 7.15362 1.77044 7.96859C1.76127 8.77349 1.88711 9.57285 2.14106 10.3228C2.37043 11.021 2.71069 11.6639 3.14443 12.2186C3.57652 12.7704 4.10272 13.2137 4.69016 13.5207C5.28113 13.827 5.92235 13.9833 6.57035 13.979C7.26471 13.9791 7.94925 13.7899 8.56805 13.4269C9.15297 13.0697 9.67915 12.5973 10.1228 12.0311L11.1985 13.0727C10.6269 13.8304 9.93307 14.453 9.15561 14.9061C8.34765 15.3602 7.46026 15.5954 6.56131 15.5936C5.73836 15.5819 4.92734 15.3651 4.18395 14.9582C3.46239 14.5712 2.80476 14.0425 2.24049 13.3957C1.66494 12.7135 1.20779 11.9109 0.893625 11.0311C0.390824 9.62352 0.251307 8.07862 0.491828 6.58192C0.732348 5.08521 1.34268 3.70033 2.24953 2.59358C2.81183 1.9219 3.48079 1.38086 4.22011 0.999836C4.96851 0.6002 5.78173 0.387219 6.6065 0.374836ZM6.6065 -0.0418307C5.71881 -0.048713 4.84022 0.164438 4.03028 0.58317C3.24922 0.985702 2.5432 1.55875 1.95123 2.27067C1.33777 3.01608 0.853073 3.88927 0.523011 4.84359C-0.169129 6.88296 -0.169129 9.14796 0.523011 11.1873C0.855617 12.1185 1.34049 12.9672 1.95123 13.6873C2.55845 14.3852 3.26855 14.9531 4.04836 15.3644C4.85328 15.7907 5.72973 16.0076 6.61554 15.9998C7.55565 15.9957 8.48276 15.7465 9.32735 15.2707C10.2613 14.7266 11.0817 13.9553 11.7318 13.0103L10.0957 11.4582C9.63172 12.1117 9.06036 12.6533 8.41438 13.0519C7.85467 13.3826 7.23547 13.5574 6.6065 13.5623C6.00875 13.5685 5.41683 13.4264 4.87095 13.1457C4.32823 12.8642 3.84196 12.4564 3.44273 11.9478C3.03016 11.4454 2.70219 10.859 2.47551 10.2186C2.23769 9.51878 2.121 8.77211 2.13202 8.02067C2.12294 7.25925 2.23951 6.50277 2.47551 5.7915C2.69388 5.14303 3.02275 4.55154 3.44273 4.05192C3.85897 3.56924 4.34542 3.17438 4.87999 2.88525C5.42065 2.59628 6.01056 2.45036 6.6065 2.45817C7.23539 2.46386 7.85443 2.63863 8.41438 2.96858C9.07133 3.35716 9.65504 3.89173 10.1319 4.5415L11.768 2.96858C11.1134 2.03403 10.2937 1.27061 9.36351 0.729002C8.51892 0.253208 7.59181 0.00392129 6.6517 -0.000165053L6.6065 -0.0418307Z" fill="#262626"/>
<path d="M23.4212 0.646159V15.3337H22.1286V13.2503L21.5049 13.9691C21.1382 14.3931 20.7138 14.7449 20.2484 15.0107C19.7865 15.269 19.2792 15.4008 18.7659 15.3962C17.9489 15.4136 17.1424 15.1819 16.4281 14.7246C15.7138 14.2673 15.117 13.6006 14.6982 12.792C14.2874 11.9951 14.0748 11.0834 14.0835 10.1566V0.646159H15.3942V10.2087C15.3888 10.8669 15.5455 11.5135 15.8462 12.0732C16.1453 12.6246 16.5665 13.0741 17.0665 13.3753C17.5926 13.6853 18.1751 13.8469 18.7659 13.8469C19.3568 13.8469 19.9392 13.6853 20.4653 13.3753C20.9579 13.0699 21.3725 12.6209 21.6676 12.0732C21.9683 11.5135 22.125 10.8669 22.1195 10.2087V0.646159H23.4302H23.4212ZM23.7918 0.229493H21.7399V10.2191C21.7436 10.7885 21.6089 11.3478 21.3512 11.8337C21.1011 12.3188 20.746 12.7207 20.3207 13.0003C19.8476 13.2783 19.3241 13.4233 18.793 13.4233C18.262 13.4233 17.7385 13.2783 17.2654 13.0003C16.8095 12.7354 16.425 12.332 16.1536 11.8337C15.8877 11.3399 15.7497 10.7689 15.7558 10.1878V0.198242H13.6948V10.1878C13.6821 11.1912 13.9104 12.179 14.3547 13.042C14.8067 13.9125 15.4501 14.6301 16.2199 15.1222C16.9897 15.6142 17.8587 15.8632 18.7388 15.8441C19.3085 15.8504 19.8717 15.7042 20.384 15.417C20.8865 15.1305 21.3447 14.7504 21.7399 14.292V15.7399H23.7828V0.219076L23.7918 0.229493Z" fill="#262626"/>
<path d="M31.1673 0.647136C31.7288 0.636582 32.2779 0.837763 32.7311 1.22005C33.2205 1.62276 33.6151 2.1598 33.8791 2.78255C34.1535 3.43145 34.2957 4.14401 34.2949 4.86589C34.2987 5.47188 34.1909 6.07191 33.9785 6.6263C33.7642 7.18285 33.4571 7.68544 33.0746 8.10547C32.7294 8.50341 32.3085 8.80303 31.8452 8.98047L31.4113 9.14714L31.6463 9.60547L34.6293 15.3763H33.0655L29.956 9.36589L29.8475 9.15755H27.7685V15.4076H26.4578V0.720053H31.1673V0.647136ZM27.7413 7.55339H31.0317C31.422 7.54261 31.794 7.35996 32.0712 7.04297C32.3438 6.77358 32.5649 6.44191 32.7205 6.06896C32.8761 5.696 32.9628 5.28988 32.9751 4.8763C32.9739 4.45409 32.9002 4.03634 32.7582 3.64714C32.6187 3.25165 32.4058 2.89612 32.1345 2.60547C31.8564 2.30163 31.4871 2.13363 31.104 2.13672H27.7685V7.45964L27.7413 7.55339ZM31.1944 0.167969H26.1143V15.6992H28.1571V9.44922H29.6577L32.8757 15.6992H35.3253L32.0169 9.28255C32.5352 9.08488 33.0059 8.74945 33.3909 8.30339C33.7945 7.84458 34.1169 7.29976 34.3401 6.69922C34.5656 6.10824 34.6826 5.46984 34.6836 4.82422C34.6872 4.03386 34.5326 3.25317 34.2316 2.54297C33.9369 1.87773 33.5055 1.30558 32.9751 0.876302C32.4513 0.434791 31.816 0.20418 31.1673 0.220053L31.1944 0.167969ZM28.13 7.0013V2.52214H31.0769C31.3659 2.52026 31.6444 2.64715 31.8542 2.8763C32.086 3.12302 32.268 3.42524 32.3876 3.76172C32.5089 4.09146 32.5734 4.44526 32.5774 4.80339C32.5689 5.1526 32.4989 5.49617 32.3714 5.81316C32.244 6.13014 32.0619 6.4139 31.8362 6.64714C31.6212 6.86429 31.3446 6.98291 31.0588 6.98047L28.13 7.0013Z" fill="#262626"/>
<path d="M43.5069 0.645508L47.5656 15.3122H46.1645L45.2063 11.833L45.125 11.5413H39.8641L39.7827 11.833L38.8245 15.3538H37.4234L41.464 0.687174H43.5069V0.645508ZM40.2076 10.3226H44.8447L44.664 9.74967L42.8561 2.99967L42.5126 1.70801L42.1601 2.99967L40.3522 9.74967L40.2076 10.3018V10.3226ZM43.8233 0.208008H41.1928L36.9172 15.7288H39.0957L40.1352 11.9163H44.8538L45.8933 15.7288H48.0718L43.7781 0.218425L43.8233 0.208008ZM40.7228 9.88509L42.5307 3.13509L44.3385 9.88509H40.7228Z" fill="#262626"/>
<path d="M54.2093 0.572916C54.5331 0.571466 54.8565 0.599329 55.1765 0.656249L54.9867 2.19792C54.7297 2.14916 54.4697 2.12478 54.2093 2.125H51.8862V13.7812H53.5585L53.3686 15.3333H50.5574V0.572916H54.1731H54.2093ZM54.1731 0.15625H50.1506V15.7812H53.676L53.9743 13.3854H52.2478V2.55208H54.2093C54.5751 2.55224 54.9395 2.60473 55.294 2.70833L55.5742 0.374999C55.1198 0.262289 54.6561 0.20641 54.1912 0.208333L54.1731 0.15625Z" fill="#262626"/>
<path d="M58.8546 2.45833C58.2666 1.74318 57.5635 1.16652 56.7846 0.760418C56.3938 0.582795 55.9878 0.453594 55.5733 0.375L55.275 2.76042C55.6841 2.87613 56.0746 3.06599 56.432 3.32292C57.0951 3.80588 57.6397 4.4765 58.0139 5.27083C58.4105 6.10704 58.6129 7.04714 58.6015 8C58.6106 8.94795 58.4115 9.88316 58.023 10.7188C57.6564 11.495 57.1245 12.151 56.4772 12.625C55.804 13.1139 55.0221 13.3671 54.2264 13.3542H53.9914L53.6931 15.75H54.2264C55.1044 15.7567 55.9735 15.5471 56.7755 15.1354C57.5575 14.7347 58.2638 14.1615 58.8546 13.4479C59.4527 12.7245 59.9253 11.8759 60.2467 10.9479C60.5817 9.98794 60.7506 8.96174 60.7438 7.92708C60.7498 6.90263 60.5809 5.88682 60.2467 4.9375C59.9209 4.01827 59.4488 3.17741 58.8546 2.45833Z" fill="#262626"/>
<path d="M68.9618 15.9988C69.8436 16.0043 70.716 15.7912 71.52 15.3738C72.3237 14.9572 73.0485 14.3626 73.6532 13.6238C74.2632 12.8891 74.745 12.0263 75.0724 11.0821C75.4156 10.0882 75.5875 9.02679 75.5786 7.95714C75.5836 5.87689 74.8942 3.8741 73.6532 2.36339C73.0579 1.63865 72.3456 1.05481 71.5561 0.644636C70.7522 0.227274 69.8797 0.0141174 68.998 0.0196357C68.1281 0.0168437 67.268 0.230012 66.476 0.644636C65.6829 1.05817 64.9652 1.6414 64.3608 2.36339C63.7447 3.09467 63.254 3.95347 62.9145 4.89464C62.5601 5.88507 62.3848 6.94843 62.3993 8.01964C62.3873 10.1107 63.0771 12.1261 64.3246 13.6446C64.9248 14.3522 65.6366 14.9214 66.4218 15.3217C67.2162 15.7557 68.0827 15.9866 68.9618 15.9988ZM65.0839 10.7905C64.6857 9.91841 64.4776 8.94778 64.4776 7.96234C64.4776 6.97691 64.6857 6.00628 65.0839 5.13422C65.4648 4.2957 66.0209 3.5797 66.702 3.05089C67.3722 2.53976 68.1581 2.26722 68.9618 2.26722C69.7655 2.26722 70.5514 2.53976 71.2217 3.05089C71.902 3.58069 72.4579 4.29645 72.8397 5.13422C73.2481 6.00362 73.4566 6.97902 73.4453 7.96755C73.4492 8.95178 73.2411 9.92173 72.8397 10.7905C72.4646 11.6303 71.9111 12.347 71.2307 12.8738C70.5596 13.3823 69.774 13.6533 68.9709 13.6533C68.1677 13.6533 67.3821 13.3823 66.711 12.8738C66.0261 12.347 65.4667 11.6307 65.0839 10.7905Z" fill="#262626"/>
<path d="M79.6893 15.7605V15.7188L79.6548 15.7605H79.6893Z" fill="white"/>
<path d="M84.9429 8.3647C85.3465 7.90589 85.6688 7.36107 85.892 6.76053C86.1176 6.16955 86.2346 5.53115 86.2355 4.88553C86.2392 4.09517 86.0846 3.31449 85.7836 2.60428C85.5027 1.92359 85.0804 1.33325 84.5542 0.885533C84.0304 0.444021 83.3952 0.213411 82.7464 0.229283H77.6843V15.7605H79.673H79.7272V9.54178H81.2277L83.1079 13.1876L84.9158 11.8647L83.5961 9.34387C84.1046 9.14183 84.5657 8.80666 84.9429 8.3647ZM82.6379 7.0522H79.7091V2.57303H82.6921C82.9812 2.57116 83.2597 2.69805 83.4695 2.9272C83.7012 3.17392 83.8833 3.47614 84.0028 3.81262C84.1241 4.14236 84.1886 4.49616 84.1927 4.85428C84.1842 5.2035 84.1141 5.54707 83.9867 5.86405C83.8592 6.18104 83.6771 6.4648 83.4514 6.69803C83.23 6.93256 82.9386 7.05945 82.6379 7.0522Z" fill="#262626"/>
<path d="M84.7438 12.458L86.2353 15.333H84.6444L83.5958 13.3122L84.7438 12.4476V12.458ZM84.8613 11.8538L83.0535 13.1768L84.3823 15.7497H86.8319L84.8613 11.833V11.8538Z" fill="#262626"/>
<path d="M94.0723 3.14583L94.4791 4.66667L96.2146 3.36458L95.3468 0.21875H92.7706L90.782 7.4375L93.4576 5.4375L94.0723 3.14583Z" fill="#262626"/>
<path d="M96.0164 4.02083L99.144 15.3125H97.7339L96.7757 11.8333L96.6944 11.5417H91.4425L91.3611 11.8333L90.403 15.3542H89.0199L91.1171 7.75L92.8346 6.46875L91.9306 9.8125L91.786 10.3646H96.4232L96.2514 9.75L94.9317 4.82292L96.0345 4L96.0164 4.02083ZM96.2334 3.34375L94.4436 4.66667L95.8447 9.875H92.2289L93.4402 5.40625L90.7284 7.40625L88.4414 15.7396H90.6199L91.7317 11.9167H96.4503L97.4898 15.7292H99.6683L96.2514 3.36458L96.2334 3.34375Z" fill="#262626"/>
<path d="M105.498 0.509161C106.167 0.517808 106.833 0.626352 107.478 0.832079C108.052 1.00955 108.604 1.26847 109.123 1.60291L108.174 2.76958C107.823 2.58978 107.464 2.43327 107.098 2.30083C106.624 2.1296 106.131 2.04181 105.634 2.04041H105.489C105.114 2.0375 104.741 2.09001 104.377 2.19666C103.981 2.30615 103.617 2.53229 103.32 2.85291C103.168 3.02574 103.047 3.23173 102.965 3.45886C102.883 3.68599 102.84 3.92971 102.841 4.17583C102.821 4.43143 102.847 4.68892 102.917 4.93251C102.987 5.1761 103.1 5.40068 103.247 5.5925C103.543 5.93407 103.901 6.19406 104.296 6.35291C104.694 6.52999 105.2 6.70708 105.688 6.88416C106.453 7.11253 107.197 7.42291 107.912 7.81124C108.433 8.08996 108.878 8.52987 109.195 9.08208C109.512 9.73624 109.662 10.4799 109.629 11.2279C109.638 11.9992 109.449 12.7564 109.087 13.405C108.72 14.0624 108.212 14.6004 107.613 14.9675C106.983 15.358 106.277 15.5587 105.562 15.5508C105.013 15.5493 104.468 15.4545 103.943 15.2696C103.409 15.0836 102.897 14.8249 102.416 14.4987C102.093 14.2684 101.791 14.0033 101.512 13.7071L102.533 12.5925C102.926 12.9667 103.365 13.2721 103.835 13.4987C104.381 13.782 104.972 13.9344 105.571 13.9467C106.273 13.9654 106.959 13.6959 107.505 13.1862C107.767 12.9566 107.979 12.6603 108.124 12.3206C108.27 11.9809 108.346 11.6069 108.346 11.2279C108.36 10.9104 108.312 10.5933 108.204 10.3008C108.096 10.0083 107.931 9.7482 107.722 9.54041C107.265 9.09334 106.723 8.77585 106.14 8.61333C105.213 8.35276 104.306 8.00435 103.428 7.57166C102.807 7.27733 102.267 6.79504 101.864 6.17583C101.517 5.51401 101.385 4.73098 101.494 3.9675C101.522 3.46267 101.648 2.97153 101.862 2.52999C102.077 2.08844 102.374 1.70764 102.732 1.41541C103.552 0.794608 104.518 0.481649 105.498 0.519578V0.509161ZM105.498 0.102912C104.444 0.0620835 103.404 0.400673 102.524 1.07166C102.124 1.39944 101.791 1.82537 101.551 2.31887C101.31 2.81236 101.167 3.36115 101.132 3.92583C101.01 4.7922 101.164 5.68018 101.566 6.42583C102.006 7.11036 102.6 7.64343 103.284 7.9675C104.162 8.39883 105.068 8.7472 105.995 9.00916C106.521 9.15454 107.011 9.43995 107.424 9.84249C107.59 10.012 107.722 10.2228 107.808 10.4591C107.894 10.6954 107.933 10.9511 107.921 11.2071C107.92 11.5252 107.856 11.839 107.734 12.1243C107.612 12.4096 107.434 12.6588 107.216 12.8529C106.734 13.3035 106.128 13.54 105.507 13.5196C104.959 13.5101 104.417 13.3718 103.916 13.1133C103.376 12.8561 102.883 12.4852 102.461 12.0196L100.924 13.7071C101.308 14.1584 101.742 14.5474 102.217 14.8633C102.723 15.2074 103.263 15.4802 103.826 15.6758C104.385 15.8745 104.967 15.9763 105.552 15.9779C106.328 15.986 107.093 15.7674 107.776 15.3425C108.431 14.9419 108.985 14.3535 109.385 13.6342C109.758 12.9151 109.964 12.0974 109.983 11.2599C110.002 10.4224 109.834 9.59344 109.494 8.85291C109.138 8.23575 108.641 7.74513 108.056 7.43625C107.319 7.03443 106.55 6.71356 105.76 6.47791C105.248 6.29736 104.796 6.12375 104.404 5.95708C104.064 5.81954 103.755 5.59521 103.501 5.30083C103.386 5.14887 103.3 4.97166 103.247 4.78003C103.194 4.58839 103.176 4.38635 103.193 4.18624C103.19 3.99363 103.221 3.80228 103.283 3.62342C103.345 3.44455 103.437 3.28176 103.555 3.14458C103.809 2.87246 104.121 2.68207 104.459 2.59249C104.789 2.49422 105.13 2.44521 105.471 2.44666H105.607C106.07 2.44631 106.53 2.5271 106.972 2.68624C107.408 2.84481 107.834 3.03977 108.246 3.26958L109.693 1.49875C109.034 1.03065 108.318 0.679488 107.568 0.457079C106.894 0.243059 106.198 0.131009 105.498 0.123746V0.102912Z" fill="#262626"/>
</g>
<defs>
<clipPath id="clip0_1994_6345">
<rect width="110" height="16" fill="white"/>
</clipPath>
</defs>
</svg>
