<svg width="62" height="14" viewBox="0 0 62 14" fill="none" xmlns="http://www.w3.org/2000/svg">
<g clip-path="url(#clip0_1994_6838)">
<path d="M6.65636 13.1149V13.3543H5.82172L6.65636 13.1149ZM6.93001 12.7305L3.70776 13.6445H6.93001V12.7377V12.7305Z" fill="white"/>
<path d="M2.25762 11.7227L0 13.4201V13.6522H3.71482L6.93022 12.7382V11.7227H2.25762Z" fill="white"/>
<path d="M6.65827 0.297409V1.63938H1.67098V6.37617H5.71417V7.54404H1.67098V11.7948L0.30272 12.8466V0.297409H6.67879H6.65827ZM6.95245 0.00725405H0.00854492V13.4269L2.26617 11.7223H1.95831V7.84145H6.00151V6.08601H1.95147V1.91503H6.93192V0L6.95245 0.00725405Z" fill="white"/>
<path d="M17.2185 8.26933C16.5344 7.90625 15.7999 7.66136 15.043 7.54395V9.76364C15.3728 9.85223 15.6953 9.96866 16.0076 10.1118C16.1389 10.1765 16.2628 10.2568 16.377 10.3512L18.6278 9.71286C18.3008 9.09626 17.811 8.59449 17.2185 8.26933Z" fill="white"/>
<path d="M11.4854 4.62091C11.8441 3.89345 12.3685 3.27257 13.011 2.8147C13.6513 2.34167 14.4131 2.08847 15.1934 2.08931C15.3165 2.08931 15.4397 2.08931 15.556 2.08931L17.6084 0.529723C16.843 0.173767 16.0154 -0.00668555 15.1797 0.000189301C14.3325 -0.00463916 13.4945 0.185947 12.7237 0.558737C11.9683 0.926311 11.2875 1.44615 10.7192 2.08931C10.1362 2.73198 9.67213 3.4849 9.35095 4.309C9.02305 5.16579 8.85798 6.08282 8.86522 7.00744C8.86522 7.05097 8.86522 7.09449 8.86522 7.13076L11.1434 5.41159C11.2361 5.13826 11.3506 4.87376 11.4854 4.62091Z" fill="white"/>
<path d="M13.0182 11.1937C12.3807 10.739 11.8571 10.1266 11.4926 9.40928C11.1151 8.68314 10.9196 7.86642 10.9248 7.03726C10.9247 6.49524 11.0055 5.95663 11.1643 5.44141L8.88611 7.16783C8.89543 8.03434 9.06027 8.89105 9.37184 9.69218C9.69565 10.5019 10.1598 11.24 10.7401 11.8683L10.7743 11.9046L13.1482 11.23L13.0182 11.1937Z" fill="white"/>
<path d="M20.9882 4.3309C20.6674 3.50228 20.2034 2.74454 19.62 2.0967C19.0549 1.45843 18.3759 0.945565 17.6223 0.587891L15.5699 2.14748C16.2082 2.19867 16.8232 2.42353 17.3555 2.80033C17.982 3.2609 18.4937 3.87571 18.8469 4.59204C19.2267 5.34343 19.422 6.18412 19.4147 7.0366C19.4152 7.5289 19.3436 8.0183 19.2027 8.48737C19.0784 8.90019 18.906 9.29495 18.6896 9.6625L21.214 8.93711C21.608 7.40458 21.5215 5.7778 20.9677 4.30188L20.9882 4.3309Z" fill="white"/>
<path d="M20.8105 9.38682L20.7694 9.50289C20.486 10.2432 20.0832 10.9256 19.579 11.5195L19.3533 11.7879L19.6474 11.9692C19.9011 12.1262 20.1791 12.2343 20.4684 12.2884C20.6537 12.3219 20.8414 12.3389 21.0294 12.3392H21.0773V13.6956H20.8994C20.5163 13.6956 20.2153 13.6956 19.9143 13.6956C19.603 13.6776 19.2961 13.6091 19.0044 13.4925C18.7471 13.3758 18.5144 13.2056 18.3202 12.992L18.1629 12.7961L17.985 12.8977C17.1294 13.3778 16.1755 13.627 15.2075 13.6231C14.3981 13.6308 13.5962 13.4578 12.8541 13.1153C12.2966 12.854 11.7798 12.5042 11.3216 12.078L13.1003 11.5702C13.7373 11.965 14.4628 12.1705 15.2006 12.1651C15.9013 12.1656 16.5908 11.9785 17.2051 11.621L17.4309 11.4904L17.3283 11.2438C17.2197 10.9868 17.0843 10.7435 16.9246 10.5184L18.4913 10.0687L18.6418 10.3661L18.8949 9.95263L20.8105 9.40858V9.38682ZM21.2346 8.98786L18.7102 9.71325L18.6623 9.80029L18.6213 9.73501L16.3705 10.3733C16.4541 10.4383 16.5319 10.5111 16.6031 10.591C16.7933 10.8333 16.9478 11.1048 17.0614 11.3962C16.4873 11.7312 15.8423 11.9059 15.1869 11.9039C14.4613 11.9102 13.7492 11.6962 13.1345 11.2873L10.7606 11.962C11.323 12.5757 11.9921 13.0683 12.7309 13.4127C13.507 13.7737 14.3463 13.9566 15.1938 13.9495C16.2044 13.9644 17.203 13.7153 18.1013 13.2241C18.3202 13.429 18.573 13.5889 18.847 13.6956C19.1648 13.8243 19.4994 13.9001 19.839 13.9205C20.1218 13.9205 20.4593 13.9205 20.8515 13.9205H21.3304V12.049H21.0089C20.837 12.0497 20.6653 12.0352 20.4958 12.0055C20.2402 11.9574 19.9946 11.8616 19.7706 11.7226C20.2979 11.0967 20.717 10.3773 21.0089 9.59718C21.0883 9.38362 21.1568 9.16569 21.2141 8.94434L21.2346 8.98786Z" fill="white"/>
<path d="M30.6356 0.175781V6.19651L32.5854 5.64521V0.175781H30.6356Z" fill="white"/>
<path d="M24.8976 0.175781H22.9479V8.37267L24.9113 7.82138L24.8976 0.175781Z" fill="white"/>
<path d="M32.3046 6.02271V13.5305H30.9364V11.8476L30.4643 12.3481C30.1071 12.7269 29.6933 13.0407 29.2397 13.2766C28.7882 13.51 28.2917 13.6291 27.7894 13.6248C26.9968 13.6413 26.2142 13.4353 25.5209 13.0277C24.8277 12.62 24.2484 12.0252 23.842 11.3035C23.4428 10.5907 23.2368 9.77497 23.2468 8.94603V8.6196L24.6356 8.19888V8.92426C24.6294 9.48738 24.7741 10.0408 25.0529 10.5201C25.3308 10.9932 25.7228 11.3788 26.1885 11.6372C26.6799 11.9034 27.2239 12.0422 27.7757 12.0422C28.3275 12.0422 28.8715 11.9034 29.3629 11.6372C29.8228 11.3756 30.2097 10.9904 30.4849 10.5201C30.7633 10.0406 30.908 9.48733 30.9022 8.92426V6.44344L32.2704 6.05173L32.3046 6.02271ZM32.5441 5.66727L30.5943 6.21857V8.97504C30.6019 9.48678 30.4714 9.99016 30.218 10.4258C29.9687 10.8538 29.617 11.2041 29.1987 11.4414C28.7472 11.6847 28.248 11.8116 27.7415 11.8116C27.2351 11.8116 26.7358 11.6847 26.2843 11.4414C25.8627 11.2063 25.5083 10.8556 25.2581 10.4258C25.0044 9.99032 24.8739 9.48684 24.8818 8.97504V7.81442L22.9184 8.37297V8.94603C22.9087 9.82648 23.1289 10.6926 23.5546 11.4486C23.9863 12.2122 24.5998 12.8419 25.3334 13.2748C26.0671 13.7077 26.8952 13.9284 27.7347 13.9149C28.2797 13.9207 28.8185 13.7916 29.3082 13.5377C29.7876 13.2868 30.2245 12.9535 30.6012 12.5512V13.8206H32.5509V5.64551L32.5441 5.66727Z" fill="white"/>
<path d="M36.4641 4.84539V13.5501H35.0958V5.24436L36.4641 4.84539ZM36.7377 4.46094L34.788 4.99047V13.8257H36.7377V4.46094Z" fill="white"/>
<path d="M34.7888 0.174805V5.0204L36.7386 4.46911V0.174805H34.7888Z" fill="white"/>
<path d="M40.8973 2.22028H43.7296C43.896 2.22174 44.0599 2.26394 44.2084 2.3436L46.3977 1.71976C46.1658 1.34718 45.874 1.02064 45.5357 0.754994C45.0304 0.362883 44.4171 0.158862 43.7911 0.174684H38.9612V3.80163L40.8973 3.25033V2.22028Z" fill="white"/>
<path d="M46.274 2.09023C46.3369 2.20046 46.394 2.31428 46.4451 2.43117C46.6997 3.00545 46.8328 3.63183 46.835 4.2664C46.8332 4.7349 46.7521 5.19925 46.5956 5.63738C46.4361 6.08491 46.2047 6.4997 45.9114 6.86329C45.6302 7.21637 45.292 7.51358 44.9126 7.74101C44.5559 7.95542 44.1528 8.0679 43.7428 8.06744H40.6163V13.5296H39.248V4.06329L40.6163 3.67158V6.61666H43.6675C44.0047 6.61393 44.3307 6.48844 44.5911 6.26122C44.8646 6.025 45.0824 5.72449 45.2273 5.3835C45.3871 5.03534 45.4713 4.65361 45.4736 4.2664C45.4899 3.66831 45.3029 3.08393 44.9468 2.61977L44.8237 2.47469L46.274 2.09023ZM46.3972 1.7493L44.208 2.37313C44.4121 2.48423 44.5916 2.64 44.7347 2.83013C45.0481 3.23895 45.211 3.75443 45.1931 4.28091C45.1928 4.62242 45.1204 4.95953 44.981 5.26744C44.8532 5.56666 44.6611 5.83 44.42 6.03635C44.2083 6.22231 43.9424 6.32483 43.6675 6.3265H40.8968V3.28712L38.9607 3.83842V13.827H40.9105V8.36484H43.7633C44.2212 8.36677 44.6717 8.24174 45.07 8.00215C45.4781 7.75815 45.8418 7.4388 46.144 7.05915C46.4537 6.6596 46.6945 6.20533 46.8555 5.71718C47.0226 5.25374 47.1106 4.76251 47.1155 4.2664C47.1175 3.57922 46.975 2.90021 46.6982 2.27883C46.6111 2.08731 46.5104 1.90302 46.3972 1.72754V1.7493Z" fill="white"/>
<path d="M54.9629 0.2905C55.7668 0.285788 56.5623 0.463883 57.2958 0.812779C58.0173 1.15964 58.6679 1.65245 59.2114 2.26356C60.3502 3.53868 60.9822 5.22974 60.9764 6.98584C60.9825 7.88476 60.8245 8.77643 60.5112 9.61174C60.213 10.406 59.7741 11.1324 59.2182 11.7516C58.6736 12.3614 58.0232 12.854 57.3027 13.2024C56.5657 13.5482 55.7688 13.7269 54.9629 13.7269C54.1571 13.7269 53.3601 13.5482 52.6232 13.2024C51.9026 12.854 51.2522 12.3614 50.7076 11.7516C49.5656 10.4729 48.9333 8.77596 48.9426 7.01485C48.9357 6.12692 49.0962 5.24648 49.4146 4.42521C49.725 3.63299 50.1729 2.90959 50.735 2.29257C51.2879 1.68331 51.9449 1.19098 52.6711 0.841795C53.3911 0.496191 54.1726 0.318103 54.9629 0.319515V0.2905ZM54.9629 12.2884C55.7848 12.2976 56.5904 12.0449 57.2753 11.563C57.9624 11.0752 58.5224 10.4116 58.9035 9.63351C59.3055 8.82429 59.5123 7.92216 59.5055 7.0076C59.5139 6.09106 59.302 5.18735 58.8898 4.38169C58.4997 3.61387 57.9384 2.95891 57.2548 2.47392C56.5702 1.99624 55.7687 1.74167 54.9492 1.74167C54.1298 1.74167 53.3283 1.99624 52.6437 2.47392C51.9585 2.96004 51.3969 3.6178 51.0087 4.38895C50.606 5.1984 50.3956 6.09973 50.3956 7.01485C50.3956 7.92998 50.606 8.83131 51.0087 9.64076C51.4116 10.4048 51.9877 11.0505 52.6848 11.5195C53.3678 11.9999 54.1707 12.2526 54.9903 12.2449L54.9629 12.2884ZM54.9903 -0.0214174C54.1601 -0.0255319 53.3387 0.160023 52.5822 0.522624C51.813 0.881109 51.1161 1.39338 50.5298 2.03143C49.9466 2.67389 49.4824 3.42686 49.1615 4.25112C48.8267 5.10618 48.6568 6.02374 48.6621 6.94957C48.652 8.78618 49.3113 10.556 50.5024 11.8895C51.0715 12.5297 51.7522 13.047 52.5069 13.4128C53.2803 13.7762 54.1169 13.964 54.9629 13.964C55.8089 13.964 56.6455 13.7762 57.419 13.4128C58.172 13.0537 58.8526 12.5438 59.4234 11.9112C60.0111 11.267 60.4758 10.5083 60.7917 9.67703C61.1194 8.80497 61.2844 7.87376 61.2774 6.93506C61.2568 5.12721 60.5892 3.3952 59.4098 2.08946C58.8409 1.45258 58.1599 0.939993 57.4053 0.580655C56.6373 0.215778 55.8044 0.0302382 54.9629 0.0366136L54.9903 -0.0214174ZM54.9903 11.9475C54.226 11.9533 53.4777 11.7158 52.8421 11.2656C52.1897 10.8083 51.6557 10.1848 51.2892 9.45216C50.9087 8.68616 50.7099 7.83344 50.7099 6.9677C50.7099 6.10196 50.9087 5.24924 51.2892 4.48325C51.6555 3.75272 52.1867 3.1297 52.8353 2.66977C53.4741 2.22392 54.2221 1.98631 54.9869 1.98631C55.7516 1.98631 56.4997 2.22392 57.1385 2.66977C57.7849 3.12632 58.3157 3.74402 58.6846 4.46874C59.0759 5.23172 59.2761 6.08838 59.2661 6.95682C59.2741 7.82325 59.079 8.67822 58.6983 9.4449C58.3403 10.179 57.8132 10.8053 57.1658 11.2656C56.5266 11.719 55.773 11.9567 55.004 11.9475H54.9903Z" fill="white"/>
</g>
<defs>
<clipPath id="clip0_1994_6838">
<rect width="61.25" height="14" fill="white"/>
</clipPath>
</defs>
</svg>
