<svg width="70" height="17" viewBox="0 0 70 17" fill="none" xmlns="http://www.w3.org/2000/svg">
<g clip-path="url(#clip0_1994_6367)">
<path d="M7.60737 15.788V16.0616H6.6535L7.60737 15.788ZM7.92011 15.3486L4.23755 16.3932H7.92011V15.3569V15.3486Z" fill="white"/>
<path d="M2.58014 14.1973L0 16.1372V16.4024H4.2455L7.92025 15.3579V14.1973H2.58014Z" fill="#262626"/>
<path d="M7.60896 1.14068V2.67436H1.9092V8.08783H6.53V9.42254H1.9092V14.2806L0.345478 15.4826V1.14068H7.63242H7.60896ZM7.94516 0.809072H0.00927734V16.1459L2.58942 14.1977H2.23758V9.76244H6.85838V7.75622H2.22976V2.98938H7.92171V0.800781L7.94516 0.809072Z" fill="#262626"/>
<path d="M19.6782 10.2509C18.8964 9.83593 18.057 9.55607 17.1919 9.42188V11.9587C17.5688 12.0599 17.9374 12.193 18.2943 12.3566C18.4444 12.4305 18.586 12.5223 18.7165 12.6302L21.2888 11.9006C20.9152 11.1959 20.3553 10.6225 19.6782 10.2509Z" fill="#262626"/>
<path d="M13.1261 6.08085C13.536 5.24947 14.1354 4.53988 14.8697 4.0166C15.6014 3.476 16.472 3.18662 17.3638 3.18759C17.5046 3.18759 17.6453 3.18759 17.7782 3.18759L20.1238 1.4052C19.2491 0.998396 18.3033 0.792164 17.3482 0.800021C16.38 0.794503 15.4222 1.01232 14.5413 1.43836C13.678 1.85845 12.8999 2.45255 12.2505 3.18759C11.5842 3.92207 11.0538 4.78254 10.6867 5.72437C10.312 6.70357 10.1233 7.75161 10.1316 8.80831C10.1316 8.85805 10.1316 8.90779 10.1316 8.94924L12.7352 6.98448C12.8412 6.6721 12.972 6.36981 13.1261 6.08085Z" fill="#262626"/>
<path d="M14.878 13.5936C14.1493 13.0739 13.5509 12.374 13.1344 11.5542C12.7029 10.7244 12.4795 9.79098 12.4855 8.84336C12.4853 8.22392 12.5777 7.60836 12.7591 7.01953L10.1555 8.99259C10.1662 9.98289 10.3546 10.962 10.7106 11.8776C11.0807 12.8029 11.6111 13.6465 12.2744 14.3646L12.3135 14.4061L15.0265 13.6351L14.878 13.5936Z" fill="#262626"/>
<path d="M23.9865 5.7494C23.6199 4.80241 23.0895 3.93642 22.4228 3.19603C21.777 2.46658 21.001 1.88045 20.1398 1.47168L17.7942 3.25406C18.5236 3.31257 19.2265 3.56955 19.8348 4.00018C20.5508 4.52655 21.1357 5.22919 21.5393 6.04785C21.9734 6.90658 22.1966 7.86737 22.1882 8.84163C22.1887 9.40426 22.1069 9.96357 21.9459 10.4997C21.8039 10.9715 21.6069 11.4226 21.3595 11.8427L24.2445 11.0136C24.6948 9.26218 24.596 7.403 23.9631 5.71624L23.9865 5.7494Z" fill="#262626"/>
<path d="M23.7831 11.5282L23.7362 11.6608C23.4123 12.5069 22.952 13.2868 22.3758 13.9655L22.1178 14.2722L22.454 14.4795C22.7439 14.6589 23.0616 14.7824 23.3922 14.8442C23.604 14.8825 23.8185 14.9019 24.0333 14.9023H24.0881V16.4525H23.8848C23.4469 16.4525 23.1029 16.4525 22.7589 16.4525C22.4031 16.4319 22.0524 16.3536 21.719 16.2204C21.425 16.087 21.1591 15.8925 20.9372 15.6484L20.7573 15.4245L20.5541 15.5406C19.5763 16.0893 18.486 16.374 17.3797 16.3696C16.4547 16.3784 15.5383 16.1807 14.6901 15.7893C14.053 15.4906 13.4624 15.0909 12.9387 14.6038L14.9716 14.0235C15.6995 14.4747 16.5287 14.7095 17.3719 14.7033C18.1727 14.7039 18.9607 14.4901 19.6627 14.0815L19.9208 13.9323L19.8035 13.6504C19.6794 13.3567 19.5247 13.0786 19.3422 12.8214L21.1326 12.3074L21.3046 12.6473L21.5939 12.1748L23.7831 11.553V11.5282ZM24.2679 11.0722L21.3828 11.9012L21.3281 12.0007L21.2812 11.9261L18.7089 12.6556C18.8044 12.7298 18.8934 12.8131 18.9747 12.9043C19.1921 13.1813 19.3687 13.4915 19.4985 13.8245C18.8424 14.2074 18.1052 14.4071 17.3562 14.4048C16.527 14.412 15.7131 14.1675 15.0107 13.7002L12.2976 14.4712C12.9404 15.1726 13.705 15.7356 14.5494 16.1292C15.4364 16.5417 16.3955 16.7508 17.3641 16.7427C18.5191 16.7597 19.6603 16.475 20.687 15.9137C20.9371 16.1478 21.2261 16.3305 21.5392 16.4525C21.9024 16.5995 22.2848 16.6862 22.6729 16.7095C22.9961 16.7095 23.3818 16.7095 23.8301 16.7095H24.3774V14.5706H24.0099C23.8135 14.5715 23.6173 14.5549 23.4235 14.5209C23.1314 14.4659 22.8508 14.3565 22.5947 14.1976C23.1973 13.4823 23.6764 12.6601 24.0099 11.7686C24.1006 11.5245 24.1789 11.2754 24.2444 11.0225L24.2679 11.0722Z" fill="#262626"/>
<path d="M35.0115 1V7.88083L37.2398 7.25078V1H35.0115Z" fill="#262626"/>
<path d="M28.4544 1H26.2261V10.3679L28.47 9.73782L28.4544 1Z" fill="#262626"/>
<path d="M36.9189 7.68109V16.2614H35.3552V14.3381L34.8157 14.9101C34.4074 15.3431 33.9346 15.7016 33.4161 15.9712C32.9001 16.2379 32.3327 16.3742 31.7586 16.3692C30.8528 16.3881 29.9584 16.1527 29.1661 15.6868C28.3738 15.2209 27.7118 14.5411 27.2473 13.7163C26.791 12.9017 26.5557 11.9694 26.567 11.022V10.649L28.1542 10.1681V10.9971C28.1471 11.6407 28.3125 12.2732 28.6312 12.821C28.9487 13.3616 29.3968 13.8024 29.9291 14.0977C30.4907 14.4019 31.1123 14.5605 31.743 14.5605C32.3736 14.5605 32.9953 14.4019 33.5569 14.0977C34.0825 13.7987 34.5247 13.3584 34.8391 12.821C35.1574 12.273 35.3227 11.6407 35.3161 10.9971V8.16192L36.8798 7.71425L36.9189 7.68109ZM37.1925 7.27487L34.9642 7.90492V11.0552C34.9729 11.64 34.8237 12.2153 34.5342 12.7132C34.2493 13.2023 33.8473 13.6027 33.3692 13.8738C32.8533 14.152 32.2827 14.2969 31.7039 14.2969C31.1251 14.2969 30.5545 14.152 30.0385 13.8738C29.5567 13.6052 29.1516 13.2044 28.8657 12.7132C28.5758 12.2155 28.4266 11.6401 28.4357 11.0552V9.72876L26.1918 10.3671V11.022C26.1807 12.0283 26.4323 13.0181 26.9189 13.8821C27.4122 14.7547 28.1133 15.4745 28.9518 15.9692C29.7902 16.4639 30.7366 16.7162 31.6961 16.7008C32.319 16.7074 32.9347 16.5598 33.4943 16.2697C34.0422 15.9829 34.5415 15.6019 34.9721 15.1422V16.593H37.2004V7.25L37.1925 7.27487Z" fill="#262626"/>
<path d="M41.6739 6.33879V16.287H40.1101V6.79475L41.6739 6.33879ZM41.9866 5.89941L39.7583 6.50459V16.602H41.9866V5.89941Z" fill="#262626"/>
<path d="M39.7585 1V6.53782L41.9869 5.90777V1H39.7585Z" fill="#262626"/>
<path d="M46.7395 3.33685H49.9764C50.1667 3.33852 50.354 3.38675 50.5237 3.47778L53.0257 2.76483C52.7607 2.33902 52.4272 1.96583 52.0405 1.66224C51.4631 1.21411 50.7622 0.980943 50.0468 0.999025H44.5269V5.1441L46.7395 4.51405V3.33685Z" fill="#262626"/>
<path d="M52.8847 3.18892C52.9566 3.3149 53.0218 3.44498 53.0802 3.57856C53.3712 4.23489 53.5233 4.95074 53.5258 5.67597C53.5237 6.2114 53.431 6.74208 53.2522 7.24281C53.07 7.75426 52.8054 8.22831 52.4703 8.64384C52.149 9.04736 51.7624 9.38703 51.3288 9.64695C50.9211 9.89199 50.4604 10.0205 49.9918 10.02H46.4187V16.2625H44.855V5.44384L46.4187 4.99618V8.36198H49.9058C50.2912 8.35886 50.6638 8.21545 50.9613 7.95576C51.2739 7.6858 51.5228 7.34235 51.6885 6.95265C51.8711 6.55476 51.9673 6.11849 51.9699 5.67597C51.9885 4.99244 51.7749 4.32457 51.3679 3.7941L51.2272 3.6283L52.8847 3.18892ZM53.0254 2.79929L50.5235 3.51224C50.7568 3.63921 50.962 3.81722 51.1255 4.03452C51.4837 4.50174 51.6698 5.09086 51.6494 5.69255C51.6491 6.08285 51.5662 6.46812 51.407 6.82001C51.2609 7.16199 51.0414 7.46294 50.7659 7.69877C50.5239 7.91129 50.22 8.02846 49.9058 8.03037H46.7393V4.5568L44.5266 5.18685V16.6024H46.7549V10.3599H50.0153C50.5386 10.3621 51.0534 10.2192 51.5086 9.9454C51.9751 9.66654 52.3908 9.30156 52.7362 8.86768C53.09 8.41105 53.3653 7.89189 53.5493 7.334C53.7402 6.80436 53.8408 6.24295 53.8464 5.67597C53.8487 4.89062 53.6858 4.11461 53.3695 3.40447C53.2699 3.18558 53.1549 2.97496 53.0254 2.77441V2.79929Z" fill="#262626"/>
<path d="M62.8146 1.13194C63.7333 1.12656 64.6425 1.3301 65.4807 1.72883C66.3053 2.12525 67.0489 2.68845 67.67 3.38687C68.9714 4.84415 69.6938 6.77679 69.6872 8.78376C69.6941 9.81109 69.5136 10.8302 69.1555 11.7848C68.8147 12.6925 68.3131 13.5227 67.6778 14.2304C67.0554 14.9272 66.3121 15.4902 65.4886 15.8884C64.6464 16.2837 63.7356 16.4878 62.8146 16.4878C61.8936 16.4878 60.9828 16.2837 60.1406 15.8884C59.3171 15.4902 58.5738 14.9272 57.9514 14.2304C56.6462 12.769 55.9236 10.8296 55.9342 8.81692C55.9264 7.80214 56.1098 6.79592 56.4737 5.85733C56.8284 4.95194 57.3403 4.12519 57.9827 3.42003C58.6145 2.72372 59.3654 2.16107 60.1954 1.762C61.0182 1.36702 61.9113 1.16349 62.8146 1.1651V1.13194ZM62.8146 14.8439C63.7539 14.8543 64.6745 14.5655 65.4573 14.0148C66.2425 13.4573 66.8825 12.6989 67.3181 11.8097C67.7775 10.8848 68.0139 9.85385 68.0062 8.80863C68.0158 7.76116 67.7736 6.72835 67.3025 5.80759C66.8567 4.93009 66.2151 4.18156 65.4338 3.62728C64.6515 3.08136 63.7355 2.79043 62.799 2.79043C61.8624 2.79043 60.9464 3.08136 60.1641 3.62728C59.381 4.18285 58.7392 4.93457 58.2954 5.81588C57.8353 6.74097 57.5948 7.77106 57.5948 8.81692C57.5948 9.86278 57.8353 10.8929 58.2954 11.818C58.756 12.6912 59.4143 13.4291 60.211 13.9651C60.9915 14.5142 61.9092 14.8029 62.8459 14.7941L62.8146 14.8439ZM62.8459 0.775467C61.897 0.770765 60.9584 0.982828 60.0937 1.39723C59.2147 1.80693 58.4183 2.39238 57.7481 3.12158C57.0816 3.85582 56.5512 4.71636 56.1844 5.65837C55.8017 6.63558 55.6076 7.68422 55.6137 8.74231C55.6021 10.8413 56.3556 12.8639 57.7169 14.3879C58.3673 15.1196 59.1452 15.7108 60.0077 16.1288C60.8916 16.5442 61.8478 16.7588 62.8146 16.7588C63.7814 16.7588 64.7376 16.5442 65.6215 16.1288C66.4821 15.7184 67.26 15.1357 67.9123 14.4128C68.584 13.6765 69.115 12.8095 69.4761 11.8594C69.8506 10.8628 70.0391 9.79853 70.0312 8.72573C70.0076 6.65962 69.2446 4.68017 67.8967 3.1879C67.2466 2.46003 66.4683 1.87422 65.6058 1.46355C64.7282 1.04655 63.7763 0.834502 62.8146 0.841788L62.8459 0.775467ZM62.8459 14.4542C61.9724 14.4609 61.1172 14.1894 60.3908 13.675C59.6452 13.1522 59.035 12.4397 58.616 11.6024C58.1812 10.727 57.9539 9.75245 57.9539 8.76303C57.9539 7.77362 58.1812 6.79908 58.616 5.92365C59.0347 5.08877 59.6417 4.37674 60.383 3.85111C61.1131 3.34157 61.9679 3.07002 62.842 3.07002C63.716 3.07002 64.5709 3.34157 65.3009 3.85111C66.0397 4.37288 66.6464 5.07883 67.0679 5.90707C67.5152 6.77905 67.744 7.75809 67.7325 8.7506C67.7417 9.7408 67.5187 10.7179 67.0836 11.5941C66.6745 12.4331 66.072 13.1489 65.3322 13.675C64.6017 14.1931 63.7404 14.4648 62.8615 14.4542H62.8459Z" fill="#262626"/>
</g>
<defs>
<clipPath id="clip0_1994_6367">
<rect width="70" height="16" fill="white" transform="translate(0 0.799805)"/>
</clipPath>
</defs>
</svg>
