<svg width="41" height="41" viewBox="0 0 41 41" fill="none" xmlns="http://www.w3.org/2000/svg">
<rect x="0.5" y="0.662109" width="40" height="40" rx="20" fill="none"/>
<path fill-rule="evenodd" clip-rule="evenodd" d="M8.5 20.7291C8.5 26.6951 12.833 31.6561 18.5 32.6621V23.9951H15.5V20.6621H18.5V17.9951C18.5 14.9951 20.433 13.3291 23.167 13.3291C24.033 13.3291 24.967 13.4621 25.833 13.5951V16.6621H24.3C22.833 16.6621 22.5 17.3951 22.5 18.3291V20.6621H25.7L25.167 23.9951H22.5V32.6621C28.167 31.6561 32.5 26.6961 32.5 20.7291C32.5 14.0921 27.1 8.66211 20.5 8.66211C13.9 8.66211 8.5 14.0921 8.5 20.7291Z" fill="white"/>
</svg>
