<svg width="42" height="42" viewBox="0 0 42 42" fill="none" xmlns="http://www.w3.org/2000/svg">
<rect x="0.762207" y="0.293457" width="40.7377" height="40.7373" rx="20.3687" fill="none"/>
<path d="M21.1285 17.5379C19.4082 17.5379 18.0043 18.9418 18.0043 20.6621C18.0043 22.3824 19.4082 23.7863 21.1285 23.7863C22.8488 23.7863 24.2527 22.3824 24.2527 20.6621C24.2527 18.9418 22.8488 17.5379 21.1285 17.5379ZM30.4988 20.6621C30.4988 19.3684 30.5106 18.0863 30.4379 16.7949C30.3652 15.2949 30.0231 13.9637 28.9262 12.8668C27.827 11.7676 26.4981 11.4277 24.9981 11.3551C23.7043 11.2824 22.4223 11.2942 21.1309 11.2942C19.8371 11.2942 18.5551 11.2824 17.2637 11.3551C15.7637 11.4277 14.4324 11.7699 13.3356 12.8668C12.2363 13.966 11.8965 15.2949 11.8238 16.7949C11.7512 18.0887 11.7629 19.3707 11.7629 20.6621C11.7629 21.9535 11.7512 23.2379 11.8238 24.5293C11.8965 26.0293 12.2387 27.3606 13.3356 28.4574C14.4348 29.5567 15.7637 29.8965 17.2637 29.9692C18.5574 30.0418 19.8395 30.0301 21.1309 30.0301C22.4246 30.0301 23.7067 30.0418 24.9981 29.9692C26.4981 29.8965 27.8293 29.5543 28.9262 28.4574C30.0254 27.3582 30.3652 26.0293 30.4379 24.5293C30.5129 23.2379 30.4988 21.9559 30.4988 20.6621ZM21.1285 25.4692C18.4684 25.4692 16.3215 23.3223 16.3215 20.6621C16.3215 18.002 18.4684 15.8551 21.1285 15.8551C23.7887 15.8551 25.9356 18.002 25.9356 20.6621C25.9356 23.3223 23.7887 25.4692 21.1285 25.4692ZM26.1324 16.7809C25.5113 16.7809 25.0098 16.2793 25.0098 15.6582C25.0098 15.0371 25.5113 14.5356 26.1324 14.5356C26.7535 14.5356 27.2551 15.0371 27.2551 15.6582C27.2553 15.8057 27.2264 15.9518 27.17 16.0881C27.1137 16.2243 27.031 16.3482 26.9267 16.4525C26.8224 16.5568 26.6986 16.6394 26.5623 16.6958C26.426 16.7521 26.2799 16.7811 26.1324 16.7809Z" fill="white"/>
</svg>
