<svg id="Layer_1" data-name="Layer 1" xmlns="http://www.w3.org/2000/svg" viewBox="0 0 115.81 31.7"><defs><style>.cls-1{fill:#fff;}</style></defs><title>logoBlanco</title><path class="cls-1" d="M519.92,389.58a4.51,4.51,0,0,0-1.43-1,4.33,4.33,0,0,0-1.76-.36H514v9.17h2.72a4.29,4.29,0,0,0,1.75-.36,4.53,4.53,0,0,0,1.42-1,4.67,4.67,0,0,0,1-1.46,4.65,4.65,0,0,0-.95-5Zm0,3.23a3.38,3.38,0,0,1-.42,1.65,3.31,3.31,0,0,1-1.13,1.21,3,3,0,0,1-1.61.45h-1.42V389.5h1.42a3,3,0,0,1,1.61.44,3.28,3.28,0,0,1,1.13,1.2A3.39,3.39,0,0,1,519.89,392.81Z" transform="translate(-491.81 -368.23)"/><polygon class="cls-1" points="30.68 29.17 35.75 29.17 35.75 27.97 31.97 27.97 31.97 25.27 35.03 25.27 35.03 24.12 31.97 24.12 31.97 21.24 35.75 21.24 35.75 20.04 30.68 20.04 30.68 29.17"/><polygon class="cls-1" points="43.59 20.04 42.3 20.04 42.3 29.17 46.71 29.17 46.71 27.92 43.59 27.92 43.59 20.04"/><path class="cls-1" d="M548.12,391a4.85,4.85,0,0,0-1-1.5,4.56,4.56,0,0,0-1.42-1,4.22,4.22,0,0,0-3.45,0,4.67,4.67,0,0,0-1.43,1,4.74,4.74,0,0,0-1.33,3.32,4.76,4.76,0,0,0,1.3,3.31,4.51,4.51,0,0,0,1.42,1,4.38,4.38,0,0,0,3.49,0,4.47,4.47,0,0,0,1.42-1,4.67,4.67,0,0,0,1-1.49,4.89,4.89,0,0,0,.35-1.84A4.74,4.74,0,0,0,548.12,391Zm-1,1.8a3.69,3.69,0,0,1-.24,1.34,3.52,3.52,0,0,1-.68,1.1,3.25,3.25,0,0,1-1,.75,2.81,2.81,0,0,1-1.22.27,2.85,2.85,0,0,1-1.23-.27,3.16,3.16,0,0,1-1-.75,3.66,3.66,0,0,1-.68-1.11,3.62,3.62,0,0,1-.25-1.34,3.57,3.57,0,0,1,.25-1.33,3.68,3.68,0,0,1,.68-1.11,3.16,3.16,0,0,1,1-.75,2.85,2.85,0,0,1,1.23-.27,2.83,2.83,0,0,1,1.22.27,3.17,3.17,0,0,1,1,.75,3.69,3.69,0,0,1,.68,1.11A3.58,3.58,0,0,1,547.15,392.84Z" transform="translate(-491.81 -368.23)"/><rect class="cls-1" x="563.73" y="388.25" width="1.5" height="11.52" transform="translate(-569.96 -221.03) rotate(-13.91)"/><rect class="cls-1" x="564.67" y="393.27" width="11.52" height="1.5" transform="translate(-440.94 484.8) rotate(-76.09)"/><rect class="cls-1" x="59.81" y="20.03" width="1.5" height="11.52"/><polygon class="cls-1" points="62.7 20.01 62.7 31.54 64.19 31.54 64.19 22.04 69.43 31.55 71.2 31.55 64.89 20.01 62.7 20.01"/><path class="cls-1" d="M579.68,393.7a11.65,11.65,0,0,0-1.95-.68,11.49,11.49,0,0,1-1.22-.42,2.23,2.23,0,0,1-.83-.56,1.29,1.29,0,0,1-.3-.89,1.21,1.21,0,0,1,.32-.86,1.84,1.84,0,0,1,.83-.47,4.06,4.06,0,0,1,1.11-.15,5.36,5.36,0,0,1,1.19.17,8,8,0,0,1,1.15.39l.08,0,1-1.2-.11-.06a5.75,5.75,0,0,0-1.65-.63,8,8,0,0,0-1.66-.19,4.44,4.44,0,0,0-2.64.72,2.74,2.74,0,0,0-1.14,2.09,2.59,2.59,0,0,0,.39,1.72,3.47,3.47,0,0,0,1.35,1.13,10.1,10.1,0,0,0,2,.73,4.34,4.34,0,0,1,1.7.74,1.38,1.38,0,0,1,.51,1.16,1.75,1.75,0,0,1-.33,1,2.18,2.18,0,0,1-.85.68,3.22,3.22,0,0,1-2.54,0,4.76,4.76,0,0,1-1.31-.75l-.07-.06-1.14,1,.09.08a5.94,5.94,0,0,0,1.72,1.05,5.49,5.49,0,0,0,2.12.43,4.08,4.08,0,0,0,1.92-.46,3.75,3.75,0,0,0,1.4-1.24,3.49,3.49,0,0,0,.11-3.51A3,3,0,0,0,579.68,393.7Z" transform="translate(-491.81 -368.23)"/><rect class="cls-1" x="90.76" y="20.03" width="1.5" height="11.52"/><path class="cls-1" d="M591.86,393.69a4.81,4.81,0,0,0,.65-1.06,3.15,3.15,0,0,0,.23-1.24,3.33,3.33,0,0,0-.38-1.58,3,3,0,0,0-1-1.13,2.83,2.83,0,0,0-1.54-.42h-4.34v11.52h4.86a2.42,2.42,0,0,0,1.16-.3,3.38,3.38,0,0,0,1-.78,3.69,3.69,0,0,0,.65-1.09,3.42,3.42,0,0,0,.23-1.23,3.24,3.24,0,0,0-.38-1.53A3.41,3.41,0,0,0,591.86,393.69ZM591,392.3a2.11,2.11,0,0,1-.54.72,1.08,1.08,0,0,1-.72.27H587v-3.53h2.83a1.25,1.25,0,0,1,1,.47,1.78,1.78,0,0,1,.39,1.15A2.12,2.12,0,0,1,591,392.3Zm-.7,6H587v-3.53h3.4a1.24,1.24,0,0,1,1,.48,1.82,1.82,0,0,1,.4,1.17,2.07,2.07,0,0,1-.2.87,2.13,2.13,0,0,1-.54.72A1.09,1.09,0,0,1,590.31,398.27Z" transform="translate(-491.81 -368.23)"/><polygon class="cls-1" points="104.27 20.03 102.77 20.03 102.77 31.55 108.26 31.55 108.26 30.11 104.27 30.11 104.27 20.03"/><polygon class="cls-1" points="115.81 21.41 115.81 20.03 109.49 20.03 109.49 31.55 115.81 31.55 115.81 30.17 110.99 30.17 110.99 26.56 114.89 26.56 114.89 25.25 110.99 25.25 110.99 21.41 115.81 21.41"/><path class="cls-1" d="M494.54,374.08a4.48,4.48,0,0,1,1.31-.94,3.75,3.75,0,0,1,1.6-.34,4.06,4.06,0,0,1,3,1.47l.07.08,1.18-1-.08-.08a5.9,5.9,0,0,0-1.95-1.48,5.52,5.52,0,0,0-4.48,0,5.82,5.82,0,0,0-1.79,1.24,5.75,5.75,0,0,0-1.21,1.86,6.42,6.42,0,0,0,0,4.65,5.57,5.57,0,0,0,1.22,1.84,5.81,5.81,0,0,0,1.79,1.24,5.52,5.52,0,0,0,4.48,0,5.9,5.9,0,0,0,1.95-1.48l.08-.08-1.18-1-.07.08a4.06,4.06,0,0,1-3,1.47,3.75,3.75,0,0,1-1.6-.34,4.47,4.47,0,0,1-1.31-.94,4.21,4.21,0,0,1-.88-1.37,4.87,4.87,0,0,1,0-3.47A4.4,4.4,0,0,1,494.54,374.08Z" transform="translate(-491.81 -368.23)"/><path class="cls-1" d="M509.5,377.52a3.72,3.72,0,0,0,.95-1.2,3.27,3.27,0,0,0,.36-1.47,3.53,3.53,0,0,0-.4-1.65,3.49,3.49,0,0,0-1-1.23,2.48,2.48,0,0,0-1.48-.48H503.5l0,11.43H505v-4.72h1.62l2.88,4.72h1.76l-2.93-4.81A2.64,2.64,0,0,0,509.5,377.52Zm-4.54-.85V373h2.87a1.12,1.12,0,0,1,.75.27,2,2,0,0,1,.53.71,2.14,2.14,0,0,1,.2.89,1.86,1.86,0,0,1-.21.83,2.24,2.24,0,0,1-.56.72,1.11,1.11,0,0,1-.74.28Z" transform="translate(-491.81 -368.23)"/><path class="cls-1" d="M521.62,373.07a5.7,5.7,0,0,0-1.78-1.28,5.27,5.27,0,0,0-4.32,0,5.84,5.84,0,0,0-1.79,1.26,5.93,5.93,0,0,0-1.66,4.15,6,6,0,0,0,1.63,4.15,5.64,5.64,0,0,0,1.78,1.27,5.47,5.47,0,0,0,4.36,0,5.6,5.6,0,0,0,1.78-1.25,5.85,5.85,0,0,0,1.2-1.87,6.12,6.12,0,0,0,.43-2.31,5.93,5.93,0,0,0-.43-2.25A6.07,6.07,0,0,0,521.62,373.07Zm-.2,5.85a4.54,4.54,0,0,1-.88,1.42,4.21,4.21,0,0,1-1.3,1,3.64,3.64,0,0,1-1.59.35,3.69,3.69,0,0,1-1.59-.35,4.08,4.08,0,0,1-1.29-1,4.72,4.72,0,0,1-.88-1.43,4.67,4.67,0,0,1-.32-1.72,4.61,4.61,0,0,1,.32-1.71,4.74,4.74,0,0,1,.88-1.42,4.09,4.09,0,0,1,1.29-1,3.77,3.77,0,0,1,3.17,0,4.09,4.09,0,0,1,1.29,1,4.75,4.75,0,0,1,.88,1.42,4.61,4.61,0,0,1,.32,1.71A4.76,4.76,0,0,1,521.42,378.92Z" transform="translate(-491.81 -368.23)"/><polygon class="cls-1" points="40.34 12.55 35.25 3.23 33.22 3.23 33.22 14.66 34.7 14.66 34.7 5.24 39.89 14.68 41.83 14.68 41.83 3.23 40.34 3.23 40.34 12.55"/><path class="cls-1" d="M545,373.07a5.7,5.7,0,0,0-1.78-1.28,5.27,5.27,0,0,0-4.32,0,5.85,5.85,0,0,0-1.79,1.26,5.93,5.93,0,0,0-1.66,4.15,6,6,0,0,0,1.63,4.15,5.64,5.64,0,0,0,1.78,1.27,5.47,5.47,0,0,0,4.36,0,5.6,5.6,0,0,0,1.78-1.25,5.85,5.85,0,0,0,1.2-1.87,6.12,6.12,0,0,0,.43-2.31,5.93,5.93,0,0,0-.43-2.25A6.07,6.07,0,0,0,545,373.07Zm-.2,5.85a4.54,4.54,0,0,1-.88,1.42,4.21,4.21,0,0,1-1.29,1,3.64,3.64,0,0,1-1.59.35,3.69,3.69,0,0,1-1.59-.35,4.08,4.08,0,0,1-1.29-1,4.72,4.72,0,0,1-1.2-3.15,4.61,4.61,0,0,1,.32-1.71,4.74,4.74,0,0,1,.88-1.42,4.08,4.08,0,0,1,1.29-1,3.77,3.77,0,0,1,3.17,0,4.09,4.09,0,0,1,1.29,1,4.75,4.75,0,0,1,.88,1.42,4.61,4.61,0,0,1,.32,1.71A4.76,4.76,0,0,1,544.78,378.92Z" transform="translate(-491.81 -368.23)"/><polygon class="cls-1" points="58.09 3.25 56.61 3.25 56.61 14.68 62.05 14.68 62.05 13.24 58.09 13.24 58.09 3.25"/><rect class="cls-1" x="88.48" y="3.25" width="1.48" height="11.43"/><polygon class="cls-1" points="88.64 2.36 89.62 2.36 90.32 0 89.08 0 88.64 2.36"/><path class="cls-1" d="M587.67,371.48l-3.82,11.43h1.58l.94-2.85h4.37l.94,2.85h1.59l-3.84-11.43Zm-.87,7.28,1.77-5.29,1.75,5.29Z" transform="translate(-491.81 -368.23)"/><path class="cls-1" d="M601.83,377.89a2.92,2.92,0,0,0-1.22-1,11.53,11.53,0,0,0-1.93-.68,11.44,11.44,0,0,1-1.21-.41,2.21,2.21,0,0,1-.82-.56,1.28,1.28,0,0,1-.29-.88,1.2,1.2,0,0,1,.32-.85,1.83,1.83,0,0,1,.82-.47,4,4,0,0,1,1.1-.15,5.31,5.31,0,0,1,1.18.16,7.89,7.89,0,0,1,1.14.39l.08,0,1-1.19-.11-.06a5.69,5.69,0,0,0-1.64-.63,7.9,7.9,0,0,0-1.65-.19,4.4,4.4,0,0,0-2.62.72,2.72,2.72,0,0,0-1.13,2.07,2.57,2.57,0,0,0,.39,1.7,3.45,3.45,0,0,0,1.34,1.12,10,10,0,0,0,2,.72,4.3,4.3,0,0,1,1.69.73,1.36,1.36,0,0,1,.5,1.15,1.73,1.73,0,0,1-.33,1,2.16,2.16,0,0,1-.85.68,3.19,3.19,0,0,1-2.52,0,4.72,4.72,0,0,1-1.3-.74l-.07-.06-1.13,1,.09.08a5.9,5.9,0,0,0,1.7,1,5.44,5.44,0,0,0,2.1.42,4,4,0,0,0,1.9-.45,3.71,3.71,0,0,0,1.39-1.23,3.46,3.46,0,0,0,.1-3.48Z" transform="translate(-491.81 -368.23)"/><path class="cls-1" d="M566.11,374.92a6.15,6.15,0,0,0-1.21-1.9,5.78,5.78,0,0,0-1.8-1.3,5.35,5.35,0,0,0-4.38,0l-.47.24a6,6,0,0,0-1.07.78h0l-.28.27a6,6,0,0,0-1.68,4.2,6,6,0,0,0,1.65,4.2,5.72,5.72,0,0,0,1.8,1.28,5.18,5.18,0,0,0,.71.26l.34.09h0a5.59,5.59,0,0,0,1.18.12H561a5.37,5.37,0,0,0,2.06-.45,5.68,5.68,0,0,0,1.8-1.27,5.92,5.92,0,0,0,1.21-1.89,6.19,6.19,0,0,0,.44-2.33,6,6,0,0,0-.44-2.28Zm-1.53,4a4.47,4.47,0,0,1-.86,1.4,4.13,4.13,0,0,1-1.27,1,3.57,3.57,0,0,1-1.55.34h-.18a3.59,3.59,0,0,1-1.38-.34l-.13-.07a4,4,0,0,1-1.14-.88,4.65,4.65,0,0,1-1.18-3.1,4.54,4.54,0,0,1,.32-1.69,4.83,4.83,0,0,1,.4-.78l0-.06a4.48,4.48,0,0,1,.43-.57,4.05,4.05,0,0,1,.66-.59,4,4,0,0,1,.61-.36,3.62,3.62,0,0,1,1.56-.34,3.59,3.59,0,0,1,1.55.34,4,4,0,0,1,1.27.95,4.67,4.67,0,0,1,.86,1.4,4.54,4.54,0,0,1,.32,1.69,4.68,4.68,0,0,1-.31,1.7Z" transform="translate(-491.81 -368.23)"/><path class="cls-1" d="M575,378.81h2V380a3.08,3.08,0,0,1-1.3,1.18,4.4,4.4,0,0,1-1.52.33h-.43a3.81,3.81,0,0,1-1-.13l-.06,0a3.67,3.67,0,0,1-.53-.2,4.24,4.24,0,0,1-1.3-.94,4.34,4.34,0,0,1-1.19-3,4.65,4.65,0,0,1,.3-1.68,4.45,4.45,0,0,1,.86-1.4,4.13,4.13,0,0,1,1.29-1,3.73,3.73,0,0,1,1.61-.35,4.06,4.06,0,0,1,.94.11l0-.11h0V373a3.89,3.89,0,0,1,1.41.67,4.61,4.61,0,0,1,1,1l.06.08,1.29-.84-.07-.09a5.89,5.89,0,0,0-1.79-1.69l-.25-.14a5.42,5.42,0,0,0-1.27-.48h0a5.67,5.67,0,0,0-1.3-.15,5.22,5.22,0,0,0-2.18.47,5.77,5.77,0,0,0-1.79,1.28,6,6,0,0,0-1.21,1.89,6.13,6.13,0,0,0-.43,2.3,5.76,5.76,0,0,0,.44,2.25,6,6,0,0,0,1.21,1.84,5.69,5.69,0,0,0,1.79,1.25,5.2,5.2,0,0,0,.76.27l.06,0a5.49,5.49,0,0,0,1.35.17h.11a6.06,6.06,0,0,0,2.81-.63,4.47,4.47,0,0,0,1.86-2v-3.09H575Z" transform="translate(-491.81 -368.23)"/></svg>