<svg width="116" height="32" viewBox="0 0 116 32" fill="none" xmlns="http://www.w3.org/2000/svg">
<g clip-path="url(#clip0_1895:5624)">
<path d="M28.1104 21.3498C27.7034 20.9266 27.2176 20.5869 26.6804 20.3498C26.1254 20.1081 25.5258 19.9855 24.9204 19.9899H22.1904V29.1599H24.9104C25.5125 29.164 26.1088 29.0413 26.6604 28.7999C27.1938 28.5612 27.676 28.2217 28.0804 27.7999C28.5038 27.3814 28.8432 26.8858 29.0804 26.3399C29.4252 25.5043 29.5189 24.5864 29.3502 23.6984C29.1815 22.8103 28.7576 21.9908 28.1304 21.3399L28.1104 21.3498ZM28.1104 24.5799C28.1135 25.1567 27.9689 25.7247 27.6904 26.2298C27.4223 26.7224 27.0335 27.1388 26.5604 27.4399C26.0772 27.7394 25.5189 27.8954 24.9504 27.8899H23.5305V21.2699H24.9504C25.5179 21.2613 26.0762 21.4139 26.5604 21.7099C27.0331 22.0072 27.422 22.4202 27.6904 22.9099C27.9614 23.4239 28.0957 23.999 28.0804 24.5799H28.1104Z" fill="#EB5529"/>
<path d="M30.6797 29.17H35.7497V27.97H31.9697V25.27H35.0297V24.12H31.9697V21.24H35.7497V20.04H30.6797V29.17Z" fill="#EB5529"/>
<path d="M43.5898 20.04H42.2998V29.17H46.7098V27.92H43.5898V20.04Z" fill="#EB5529"/>
<path d="M56.3099 22.77C56.0732 22.2119 55.734 21.7031 55.3099 21.27C54.905 20.8488 54.4229 20.5093 53.8899 20.27C53.3473 20.027 52.7594 19.9014 52.1648 19.9014C51.5703 19.9014 50.9825 20.027 50.4399 20.27C49.9046 20.5105 49.4195 20.8498 49.0099 21.27C48.15 22.1606 47.6727 23.3521 47.6799 24.59C47.6693 25.8199 48.1352 27.0061 48.9799 27.9C49.3839 28.3222 49.8662 28.6618 50.3999 28.9C50.9506 29.1392 51.5445 29.2626 52.1449 29.2626C52.7453 29.2626 53.3392 29.1392 53.8899 28.9C54.424 28.6627 54.9065 28.323 55.3099 27.9C55.7364 27.4727 56.076 26.9667 56.3099 26.41C56.544 25.825 56.6628 25.2002 56.6598 24.57C56.6615 23.9529 56.5426 23.3415 56.3099 22.77V22.77ZM55.3099 24.57C55.3137 25.0277 55.2323 25.4821 55.0699 25.91C54.9131 26.3155 54.6825 26.6885 54.3899 27.01C54.1082 27.3224 53.7686 27.5771 53.3899 27.76C53.0086 27.9404 52.5916 28.0327 52.1699 28.03C51.7448 28.0329 51.3246 27.9406 50.9399 27.76C50.5599 27.5791 50.2199 27.3241 49.9399 27.01C49.6487 26.6836 49.4184 26.3077 49.2599 25.9C49.0924 25.4732 49.0076 25.0185 49.0099 24.56C49.0077 24.1048 49.0925 23.6534 49.2599 23.23C49.4188 22.8225 49.649 22.4467 49.9399 22.12C50.2199 21.8059 50.5599 21.5509 50.9399 21.37C51.3246 21.1894 51.7448 21.0972 52.1699 21.1C52.5916 21.098 53.0084 21.1903 53.3899 21.37C53.7697 21.5512 54.1096 21.8061 54.3899 22.12C54.6805 22.4468 54.9108 22.8226 55.0699 23.23C55.2502 23.6676 55.342 24.1367 55.3399 24.61L55.3099 24.57Z" fill="#EB5529"/>
<path d="M72.0341 19.9548L70.5781 20.3154L73.3475 31.4976L74.8035 31.137L72.0341 19.9548Z" fill="#EB5529"/>
<path d="M79.3143 20.0458L76.5449 31.228L78.0009 31.5886L80.7703 20.4064L79.3143 20.0458Z" fill="#EB5529"/>
<path d="M61.3096 20.0298H59.8096V31.5498H61.3096V20.0298Z" fill="#EB5529"/>
<path d="M62.7002 20.0098V31.5398H64.1902V22.0398L69.4302 31.5498H71.2002L64.8902 20.0098H62.7002Z" fill="#EB5529"/>
<path d="M87.8698 25.47C87.2412 25.186 86.5886 24.9584 85.9197 24.7899C85.5055 24.6729 85.0982 24.5327 84.6998 24.37C84.3842 24.2486 84.1004 24.0571 83.8698 23.81C83.6615 23.5615 83.5544 23.2438 83.5698 22.9199C83.5594 22.6024 83.6743 22.2935 83.8898 22.06C84.1203 21.8331 84.4066 21.6709 84.7198 21.59C85.0811 21.4889 85.4546 21.4384 85.8298 21.44C86.2316 21.4518 86.6307 21.5088 87.0198 21.6099C87.4124 21.7106 87.7968 21.841 88.1697 22H88.2498L89.2498 20.7999L89.1398 20.74C88.6255 20.4462 88.0689 20.2337 87.4897 20.1099C86.9446 19.9888 86.3882 19.9252 85.8298 19.9199C84.8959 19.876 83.972 20.128 83.1898 20.6399C82.8548 20.8801 82.5783 21.1928 82.3809 21.5547C82.1835 21.9165 82.0703 22.3183 82.0497 22.7299C81.9745 23.3312 82.1125 23.9399 82.4398 24.4499C82.7851 24.9364 83.2501 25.3256 83.7897 25.5799C84.4288 25.8931 85.0992 26.1378 85.7897 26.31C86.4031 26.4313 86.983 26.6837 87.4897 27.0499C87.6612 27.1885 87.797 27.3661 87.8857 27.568C87.9745 27.7698 88.0136 27.9899 87.9998 28.21C87.995 28.5693 87.8798 28.9184 87.6697 29.21C87.4485 29.5048 87.156 29.7388 86.8198 29.8899C86.4185 30.0622 85.9864 30.151 85.5497 30.151C85.1131 30.151 84.681 30.0622 84.2798 29.8899C83.806 29.7112 83.3638 29.458 82.9698 29.1399L82.8998 29.0799L81.7598 30.0799L81.8497 30.16C82.3591 30.6054 82.9408 30.9605 83.5698 31.21C84.2409 31.4925 84.9616 31.6386 85.6898 31.6399C86.3578 31.6461 87.0171 31.4882 87.6097 31.18C88.1736 30.8915 88.6553 30.4649 89.0098 29.94C89.3367 29.4168 89.5191 28.8164 89.5384 28.1998C89.5577 27.5832 89.4133 26.9725 89.1198 26.43C88.7961 26.0043 88.3645 25.6728 87.8698 25.47V25.47Z" fill="#EB5529"/>
<path d="M92.2598 20.0298H90.7598V31.5498H92.2598V20.0298Z" fill="#EB5529"/>
<path d="M100.05 25.4598C100.312 25.1361 100.53 24.7798 100.7 24.3998C100.859 24.0062 100.938 23.5845 100.93 23.1598C100.936 22.6099 100.805 22.067 100.55 21.5798C100.318 21.1241 99.9741 20.7351 99.5499 20.4498C99.0875 20.165 98.5529 20.0192 98.0099 20.0298H93.6699V31.5498H98.53C98.9357 31.5486 99.3345 31.4455 99.6899 31.2498C100.07 31.0553 100.409 30.7906 100.69 30.4698C100.968 30.1468 101.188 29.778 101.34 29.3798C101.492 28.9875 101.57 28.5705 101.57 28.1498C101.571 27.6163 101.441 27.0908 101.19 26.6198C100.909 26.1469 100.518 25.7489 100.05 25.4598ZM99.1899 24.0698C99.0638 24.3459 98.8796 24.5915 98.65 24.7898C98.4512 24.9651 98.1949 25.0612 97.9299 25.0598H95.1899V21.5298H98.02C98.2115 21.5263 98.4013 21.5668 98.5747 21.6483C98.7481 21.7298 98.9004 21.8501 99.02 21.9998C99.2807 22.3256 99.4187 22.7326 99.4099 23.1498C99.4068 23.4692 99.3316 23.7836 99.1899 24.0698V24.0698ZM98.4899 30.0698H95.1899V26.5398H98.59C98.7825 26.5367 98.973 26.5785 99.1466 26.6618C99.3202 26.7451 99.472 26.8677 99.59 27.0198C99.8558 27.3512 99.9972 27.7651 99.9899 28.1898C99.9873 28.4909 99.9191 28.7878 99.7899 29.0598C99.6633 29.3356 99.4792 29.581 99.2499 29.7798C99.0415 29.9577 98.7737 30.0505 98.4999 30.0398L98.4899 30.0698Z" fill="#EB5529"/>
<path d="M104.27 20.0298H102.77V31.5498H108.26V30.1098H104.27V20.0298Z" fill="#EB5529"/>
<path d="M115.81 21.4098V20.0298H109.49V31.5498H115.81V30.1698H110.99V26.5598H114.89V25.2498H110.99V21.4098H115.81Z" fill="#EB5529"/>
<path d="M2.7301 5.84988C3.10633 5.4599 3.55018 5.14144 4.0401 4.90991C4.54192 4.68022 5.08828 4.5641 5.64014 4.56989C6.21585 4.58808 6.7811 4.72858 7.29834 4.98203C7.81558 5.23547 8.27297 5.59607 8.64013 6.03989L8.71014 6.1199L9.89013 5.1199L9.81012 5.03989C9.27074 4.41565 8.60643 3.91148 7.86011 3.55991C7.15484 3.24677 6.39177 3.08496 5.62012 3.08496C4.84846 3.08496 4.08539 3.24677 3.38013 3.55991C2.71076 3.85694 2.10349 4.27763 1.59015 4.7999C1.06988 5.33545 0.658869 5.96723 0.380125 6.65991C-0.200927 8.15546 -0.200927 9.81436 0.380125 11.3099C0.659952 11.9985 1.07474 12.6241 1.6001 13.1499C2.11328 13.6724 2.72065 14.0931 3.39014 14.3899C4.0954 14.703 4.85847 14.8648 5.63013 14.8648C6.40178 14.8648 7.16485 14.703 7.87012 14.3899C8.61644 14.0383 9.28075 13.5342 9.82013 12.9099L9.90014 12.8299L8.72015 11.8299L8.65014 11.9099C8.28298 12.3537 7.82559 12.7143 7.30835 12.9678C6.79111 13.2212 6.22586 13.3617 5.65015 13.3799C5.09829 13.3857 4.55193 13.2696 4.05011 13.0399C3.56007 12.8085 3.11619 12.49 2.74011 12.0999C2.36042 11.7048 2.06149 11.2395 1.86011 10.7299C1.43405 9.61246 1.43405 8.37732 1.86011 7.25989C2.0582 6.73904 2.35343 6.26055 2.7301 5.84988Z" fill="#EB5529"/>
<path d="M17.6904 9.2898C18.0868 8.95997 18.4104 8.55134 18.6404 8.08982C18.8737 7.63471 18.997 7.13123 19.0004 6.61982C19.0033 6.04547 18.866 5.47909 18.6004 4.96982C18.3658 4.48855 18.0237 4.06768 17.6004 3.73981C17.1713 3.4252 16.6525 3.2569 16.1204 3.2598H11.6904V14.6898H13.1904V9.96982H14.8104L17.6904 14.6898H19.4504L16.5204 9.8798C16.9538 9.78458 17.3562 9.58167 17.6904 9.2898V9.2898ZM13.1505 8.43983V4.76981H16.0204C16.2951 4.76479 16.562 4.86087 16.7704 5.0398C16.998 5.23387 17.1791 5.47651 17.3004 5.74982C17.4303 6.02867 17.4985 6.33221 17.5004 6.63981C17.4959 6.92904 17.424 7.21325 17.2904 7.46982C17.1551 7.74569 16.9645 7.99077 16.7304 8.18983C16.5265 8.37089 16.2631 8.47056 15.9904 8.46982L13.1505 8.43983Z" fill="#EB5529"/>
<path d="M29.8099 4.84018C29.305 4.30235 28.7005 3.86764 28.0299 3.56018C27.3507 3.25498 26.6145 3.09717 25.8699 3.09717C25.1253 3.09717 24.3891 3.25498 23.7099 3.56018C23.0392 3.8636 22.4318 4.29109 21.9199 4.82016C20.8464 5.93402 20.2507 7.42329 20.2599 8.97018C20.25 10.5115 20.8337 11.9976 21.8899 13.1202C22.3947 13.6556 22.9994 14.087 23.6699 14.3902C24.3578 14.6891 25.0998 14.8434 25.8499 14.8434C26.5999 14.8434 27.342 14.6891 28.0299 14.3902C28.6992 14.0938 29.3039 13.6692 29.8099 13.1402C30.3257 12.5992 30.733 11.9644 31.0099 11.2702C31.3011 10.5352 31.4471 9.75072 31.4399 8.96017C31.4441 8.18936 31.2981 7.4251 31.0099 6.71017C30.7284 6.01832 30.3215 5.38437 29.8099 4.84018V4.84018ZM29.6099 10.6902C29.4069 11.2139 29.1085 11.6953 28.7299 12.1102C28.3663 12.5255 27.9246 12.8653 27.4299 13.1102C26.9331 13.3454 26.3895 13.4651 25.8399 13.4602C25.2905 13.4633 24.7472 13.3438 24.2499 13.1102C23.7569 12.8671 23.3182 12.527 22.9599 12.1102C22.5835 11.6899 22.2854 11.2056 22.0799 10.6802C21.8658 10.1321 21.7573 9.54855 21.7599 8.96017C21.7571 8.37503 21.8657 7.79471 22.0799 7.25018C22.2868 6.72848 22.5848 6.24767 22.9599 5.83017C23.3183 5.41355 23.7571 5.07345 24.2499 4.83017C24.7466 4.60002 25.2875 4.4808 25.8349 4.4808C26.3823 4.4808 26.9232 4.60002 27.4199 4.83017C27.9127 5.07345 28.3515 5.41355 28.7099 5.83017C29.0848 6.2478 29.3828 6.72858 29.5899 7.25018C29.8041 7.79471 29.9127 8.37503 29.9099 8.96017C29.918 9.55046 29.8163 10.1371 29.6099 10.6902V10.6902Z" fill="#EB5529"/>
<path d="M40.3397 12.55L35.2497 3.22998H33.2197V14.66H34.6997V5.23998L39.8897 14.68H41.8297V3.22998H40.3397V12.55Z" fill="#EB5529"/>
<path d="M53.1898 4.84018C52.6848 4.30235 52.0803 3.86764 51.4097 3.56018C50.7305 3.25498 49.9944 3.09717 49.2498 3.09717C48.5051 3.09717 47.769 3.25498 47.0898 3.56018C46.4192 3.86381 45.8118 4.29127 45.2997 4.82016C44.2263 5.93402 43.6306 7.42329 43.6398 8.97018C43.6299 10.5115 44.2136 11.9976 45.2698 13.1202C45.7746 13.6556 46.3792 14.087 47.0497 14.3902C47.7377 14.6891 48.4797 14.8434 49.2297 14.8434C49.9798 14.8434 50.7218 14.6891 51.4097 14.3902C52.0791 14.0938 52.6838 13.6692 53.1898 13.1402C53.7055 12.5992 54.1129 11.9644 54.3898 11.2702C54.681 10.5352 54.827 9.75072 54.8198 8.96017C54.824 8.18936 54.678 7.4251 54.3898 6.71017C54.1082 6.01832 53.7014 5.38437 53.1898 4.84018V4.84018ZM52.9897 10.6902C52.7868 11.2139 52.4884 11.6953 52.1097 12.1102C51.7491 12.5245 51.3109 12.8642 50.8198 13.1102C50.323 13.3454 49.7794 13.4651 49.2297 13.4602C48.6803 13.4633 48.1371 13.3438 47.6398 13.1102C47.1468 12.8671 46.708 12.527 46.3497 12.1102C45.5757 11.2437 45.1484 10.1221 45.1498 8.96017C45.147 8.37503 45.2556 7.79471 45.4698 7.25018C45.6767 6.72848 45.9746 6.24767 46.3497 5.83017C46.708 5.41335 47.1468 5.07321 47.6398 4.83017C48.1365 4.60002 48.6773 4.4808 49.2247 4.4808C49.7722 4.4808 50.3131 4.60002 50.8098 4.83017C51.3026 5.07345 51.7413 5.41355 52.0997 5.83017C52.4747 6.2478 52.7726 6.72858 52.9797 7.25018C53.194 7.79471 53.3026 8.37503 53.2997 8.96017C53.2983 9.55235 53.1864 10.1391 52.9698 10.6902H52.9897Z" fill="#EB5529"/>
<path d="M58.0904 3.25H56.6104V14.68H62.0504V13.24H58.0904V3.25Z" fill="#EB5529"/>
<path d="M89.9605 3.25H88.4805V14.68H89.9605V3.25Z" fill="#EB5529"/>
<path d="M88.6396 2.36H89.6197L90.3196 0H89.0797L88.6396 2.36Z" fill="#EB5529"/>
<path d="M95.86 3.25L92.04 14.68H93.6201L94.5601 11.83H98.9301L99.8701 14.68H101.46L97.6201 3.25H95.86ZM94.9901 10.53L96.7601 5.23999L98.5101 10.53H94.9901Z" fill="#EB5529"/>
<path d="M110.02 9.65987C109.713 9.22092 109.29 8.87496 108.8 8.65987C108.178 8.37645 107.532 8.14886 106.87 7.97985C106.459 7.86583 106.055 7.72894 105.66 7.56984C105.347 7.44779 105.067 7.2563 104.84 7.00985C104.637 6.76302 104.533 6.4491 104.55 6.12984C104.541 5.81553 104.656 5.51033 104.87 5.27987C105.097 5.0541 105.38 4.89203 105.69 4.80986C106.048 4.70898 106.418 4.6585 106.79 4.65987C107.188 4.66879 107.584 4.72244 107.97 4.81984C108.359 4.9206 108.74 5.05099 109.11 5.20986H109.19L110.19 4.01986L110.08 3.95986C109.569 3.66622 109.016 3.45368 108.44 3.32985C107.898 3.20872 107.345 3.14503 106.79 3.13985C105.862 3.09743 104.945 3.34945 104.17 3.85985C103.838 4.09796 103.564 4.40767 103.369 4.76601C103.173 5.12435 103.061 5.52214 103.04 5.92986C102.968 6.52466 103.106 7.12596 103.43 7.62984C103.773 8.11192 104.234 8.49764 104.77 8.74987C105.409 9.06024 106.079 9.30161 106.77 9.46987C107.379 9.58835 107.956 9.83737 108.46 10.1998C108.629 10.3373 108.763 10.5136 108.85 10.7138C108.937 10.914 108.975 11.1321 108.96 11.3498C108.956 11.7094 108.841 12.0589 108.63 12.3498C108.409 12.6454 108.117 12.8795 107.78 13.0299C107.382 13.201 106.953 13.2892 106.52 13.2892C106.087 13.2892 105.658 13.201 105.26 13.0299C104.79 12.8539 104.351 12.604 103.96 12.2898L103.89 12.2298L102.76 13.2298L102.85 13.3099C103.356 13.7362 103.931 14.0743 104.55 14.3099C105.215 14.5876 105.929 14.7304 106.65 14.7298C107.311 14.7391 107.963 14.5845 108.55 14.2799C109.11 13.9943 109.588 13.571 109.94 13.0499C110.262 12.5304 110.442 11.9347 110.459 11.3234C110.477 10.712 110.332 10.107 110.04 9.56984L110.02 9.65987Z" fill="#EB5529"/>
<path d="M74.2996 6.68979C74.0167 5.98736 73.6065 5.3432 73.0896 4.78976C72.5793 4.24418 71.9679 3.80271 71.2896 3.48978C70.6008 3.18076 69.8545 3.021 69.0996 3.021C68.3447 3.021 67.5983 3.18076 66.9096 3.48978L66.4396 3.72977C66.0552 3.94949 65.6964 4.21109 65.3696 4.50977V4.50977L65.0896 4.77979C64.0031 5.90698 63.4002 7.4142 63.4096 8.97977C63.3921 10.5411 63.984 12.0478 65.0596 13.1798C65.5707 13.7193 66.1821 14.1541 66.8596 14.4598C67.0896 14.5636 67.3269 14.6505 67.5696 14.7198L67.9096 14.8098C68.2975 14.8915 68.6931 14.9317 69.0896 14.9298H69.1896C69.8992 14.9174 70.5994 14.7644 71.2496 14.4798C71.9267 14.178 72.5382 13.7465 73.0496 13.2098C73.5697 12.6627 73.9804 12.0211 74.2596 11.3198C74.555 10.5787 74.7044 9.78754 74.6996 8.98978C74.7028 8.20838 74.5533 7.43388 74.2596 6.70978L74.2996 6.68979ZM72.7696 10.6898C72.5719 11.2056 72.2803 11.6803 71.9096 12.0898C71.5562 12.5035 71.1247 12.8434 70.6396 13.0898C70.155 13.318 69.6252 13.4342 69.0896 13.4298H68.9096C68.4315 13.4095 67.9624 13.2939 67.5296 13.0898L67.3996 13.0198C66.9695 12.7978 66.5832 12.4997 66.2596 12.1398C65.4985 11.2866 65.0785 10.183 65.0796 9.03976C65.0776 8.46119 65.1862 7.88756 65.3996 7.34976C65.509 7.07818 65.6429 6.8171 65.7996 6.56976V6.50977C65.9275 6.30863 66.0713 6.11805 66.2296 5.93979C66.4273 5.7196 66.6487 5.52172 66.8896 5.34976C67.0819 5.21196 67.286 5.0915 67.4996 4.98978C67.9878 4.76175 68.5208 4.6456 69.0596 4.64978C69.5951 4.64608 70.1247 4.76224 70.6096 4.98978C71.0921 5.2185 71.5239 5.54153 71.8796 5.93979C72.2467 6.35196 72.5379 6.82596 72.7396 7.33978C72.953 7.87758 73.0616 8.45121 73.0596 9.02979C73.0627 9.61078 72.9575 10.1873 72.7496 10.7298L72.7696 10.6898Z" fill="#EB5529"/>
<path d="M83.1902 10.5799H85.1902V11.7699C84.8805 12.281 84.4289 12.691 83.8902 12.9499C83.4072 13.1493 82.8925 13.2611 82.3702 13.2799H81.9402C81.6026 13.2811 81.2663 13.2374 80.9402 13.1499H80.8802C80.6987 13.097 80.5214 13.0301 80.3502 12.9499C79.861 12.7222 79.4198 12.4031 79.0502 12.0099C78.2826 11.2001 77.8565 10.1257 77.8602 9.00991C77.8557 8.4362 77.9574 7.86661 78.1602 7.32992C78.3575 6.81392 78.6492 6.33916 79.0202 5.92992C79.3794 5.51409 79.818 5.17412 80.3102 4.92992C80.8141 4.69471 81.3642 4.57512 81.9202 4.57992C82.2368 4.57981 82.5522 4.61675 82.8602 4.68993V4.57992V4.76992C83.3707 4.89568 83.8503 5.12362 84.2702 5.43993C84.653 5.71985 84.9903 6.05715 85.2702 6.43993L85.3302 6.51992L86.6202 5.67992L86.5502 5.58993C86.0792 4.9068 85.4693 4.33089 84.7602 3.89992L84.5102 3.75991C84.1087 3.54731 83.682 3.38607 83.2402 3.27993V3.27993C82.8141 3.17992 82.3779 3.12956 81.9402 3.12991C81.1882 3.12771 80.4446 3.28803 79.7602 3.59991C79.087 3.90779 78.4793 4.34236 77.9703 4.87991C77.4516 5.4282 77.0411 6.06943 76.7602 6.76992C76.4705 7.50187 76.3246 8.28274 76.3302 9.06991C76.3247 9.84181 76.4743 10.607 76.7702 11.3199C77.0566 12.0026 77.4668 12.6265 77.9802 13.1599C78.4906 13.6882 79.0985 14.1127 79.7702 14.4099C80.0162 14.5195 80.2703 14.6097 80.5302 14.6799H80.5902C81.0315 14.7924 81.4849 14.8494 81.9402 14.8499H82.0502C83.0239 14.8687 83.9878 14.6527 84.8602 14.2199C85.6737 13.7636 86.3241 13.0643 86.7203 12.2199V9.12991H83.1902V10.5799Z" fill="#EB5529"/>
</g>
<defs>
<clipPath id="clip0_1895:5624">
<rect width="115.81" height="31.7" fill="white"/>
</clipPath>
</defs>
</svg>
