<svg width="66" height="60" viewBox="0 0 66 60" fill="none" xmlns="http://www.w3.org/2000/svg">
<g clip-path="url(#clip0_1994_6618)">
<path d="M4.1832 0.62234C4.75751 0.622203 5.33014 0.68435 5.89105 0.80769C6.24029 0.880576 6.58167 0.986982 6.91047 1.12543L6.67217 1.41669C6.36014 1.2981 6.04193 1.19645 5.71894 1.11219C5.25129 0.99257 4.77166 0.925955 4.28911 0.913603C3.84153 0.916217 3.39629 0.97855 2.96519 1.09895C2.52041 1.21776 2.11429 1.45048 1.78691 1.77415C1.45038 2.13329 1.26132 2.60592 1.25734 3.09807C1.2529 3.58215 1.42198 4.05181 1.73395 4.42199C2.04974 4.76166 2.43926 5.02436 2.87252 5.18986C3.30491 5.37249 3.74686 5.53159 4.19644 5.66647C4.87781 5.84128 5.54237 6.0761 6.18232 6.36815C6.60919 6.55615 6.97575 6.85856 7.24145 7.24194C7.49745 7.70203 7.61686 8.22561 7.58567 8.7512C7.59762 9.29729 7.44039 9.83372 7.13553 10.2869C6.7978 10.7659 6.34165 11.149 5.81162 11.399C5.27287 11.7171 4.66284 11.8946 4.03756 11.9154C3.34196 11.9129 2.65366 11.7735 2.01197 11.505C1.5927 11.332 1.19322 11.1145 0.820441 10.8562L1.08523 10.6047C1.4648 10.8637 1.87364 11.077 2.30323 11.2402C2.84265 11.4564 3.41681 11.5731 3.99785 11.5844C4.52784 11.588 5.05214 11.475 5.53359 11.2534C5.99532 11.0439 6.39622 10.7204 6.69864 10.3134C7.00903 9.89055 7.18021 9.38161 7.18849 8.85711C7.20461 8.52304 7.14237 8.18982 7.00674 7.88408C6.87111 7.57835 6.66586 7.30857 6.40738 7.0963C5.79163 6.63741 5.08171 6.32089 4.32883 6.16956C3.6253 5.9999 2.94183 5.75581 2.28999 5.4414C1.81022 5.2187 1.39546 4.87687 1.08523 4.44847C0.821421 4.02631 0.713693 3.52514 0.780726 3.03187C0.802124 2.69558 0.897464 2.36816 1.05994 2.07295C1.22242 1.77774 1.44804 1.52201 1.72071 1.32402C2.4531 0.854676 3.31462 0.627717 4.1832 0.675298V0.62234ZM4.1832 0.14573C3.20437 0.0992372 2.2359 0.363365 1.41621 0.900363C1.06962 1.14776 0.783558 1.47043 0.579489 1.84418C0.37542 2.21792 0.258641 2.63303 0.237919 3.05835C0.157608 3.65602 0.283715 4.26319 0.595378 4.77945C0.955432 5.28179 1.43872 5.68301 1.99873 5.94449C2.68843 6.27714 3.41192 6.53458 4.15672 6.71237C4.83565 6.84587 5.47725 7.126 6.03668 7.5332C6.23322 7.69137 6.38962 7.89373 6.49315 8.12379C6.59668 8.35386 6.64441 8.60512 6.63245 8.85711C6.62785 9.27172 6.49359 9.67448 6.24851 10.0089C5.9972 10.3432 5.66448 10.6075 5.28205 10.7768C4.86689 10.9667 4.41462 11.0617 3.95813 11.0548C3.4407 11.0461 2.92922 10.9429 2.44887 10.7503C1.92701 10.5557 1.43978 10.2786 1.00579 9.92949L-0.0533447 10.896C0.48323 11.3676 1.09671 11.7437 1.76043 12.008C2.46463 12.3041 3.2207 12.4571 3.98461 12.4582C4.67994 12.4652 5.36638 12.3016 5.98373 11.9816C6.57456 11.6723 7.07603 11.2164 7.44004 10.6576C7.80316 10.1134 7.99246 9.47163 7.98285 8.8174C8.0146 8.18758 7.86283 7.56209 7.54595 7.01687C7.21435 6.5451 6.75508 6.17769 6.22203 5.95773C5.58855 5.68269 4.93312 5.46126 4.26263 5.29577C3.8132 5.1708 3.37119 5.02051 2.93871 4.84564C2.58086 4.70859 2.25927 4.49117 1.99873 4.21016C1.75839 3.92138 1.63551 3.55273 1.65451 3.1775C1.64991 2.80944 1.78743 2.45379 2.03845 2.18457C2.29856 1.92407 2.6228 1.73683 2.97843 1.64176C3.3752 1.53307 3.78506 1.47961 4.19644 1.48289C4.64339 1.49378 5.0876 1.55597 5.52036 1.66824C5.94532 1.77771 6.36135 1.91934 6.76484 2.09189L7.67834 0.979798C7.12311 0.656469 6.51972 0.424053 5.89105 0.291361C5.31273 0.163418 4.72253 0.0968541 4.13024 0.0927734L4.1832 0.14573Z" fill="white"/>
<path d="M15.6091 0.529156C16.3263 0.526877 17.0356 0.680463 17.6876 0.979288C18.3363 1.2791 18.9207 1.70171 19.4087 2.22377C19.906 2.75607 20.3009 3.3754 20.5738 4.05078C20.8567 4.74879 21.0006 5.49532 20.9974 6.24849C21.0024 7.01898 20.8586 7.7832 20.5738 8.49915C20.3045 9.17242 19.909 9.78804 19.4087 10.3129C18.9192 10.823 18.3345 11.2323 17.6876 11.5177C17.025 11.8037 16.3109 11.9512 15.5892 11.9512C14.8675 11.9512 14.1534 11.8037 13.4908 11.5177C12.8424 11.2233 12.2577 10.805 11.7697 10.2864C10.7312 9.19592 10.152 7.74774 10.152 6.24187C10.152 4.73599 10.7312 3.28781 11.7697 2.19729C12.2693 1.68021 12.8622 1.26243 13.5173 0.966049C14.1624 0.675897 14.862 0.52694 15.5694 0.529156H15.6091ZM15.5694 11.7427C16.2601 11.7493 16.9434 11.5999 17.5685 11.3059C18.1755 11.0119 18.7196 10.6027 19.1704 10.1011C19.6326 9.58971 19.9962 8.99721 20.2428 8.35352C20.5016 7.6775 20.6318 6.95908 20.6267 6.23525C20.6297 5.51467 20.4949 4.80017 20.2295 4.13022C19.9771 3.49343 19.614 2.90628 19.1572 2.39588C18.7048 1.89028 18.1556 1.48061 17.542 1.19112C16.9194 0.903806 16.2418 0.755017 15.5561 0.755017C14.8704 0.755017 14.1929 0.903806 13.5702 1.19112C12.9567 1.48061 12.4074 1.89028 11.9551 2.39588C11.498 2.90611 11.1349 3.4933 10.8827 4.13022C10.6173 4.80017 10.4825 5.51467 10.4855 6.23525C10.4856 7.65635 11.0087 9.02771 11.9551 10.0878C12.4074 10.5934 12.9567 11.0031 13.5702 11.2926C14.1999 11.5869 14.8876 11.7362 15.5826 11.7295L15.5694 11.7427ZM15.5826 -0.0136512C14.7972 -0.0158134 14.0205 0.151261 13.3054 0.476199C12.5922 0.793474 11.9454 1.24266 11.399 1.80012C10.253 2.98591 9.61627 4.57295 9.62496 6.22201C9.60839 7.86499 10.2302 9.45027 11.3593 10.6439C11.8982 11.2042 12.5413 11.654 13.2525 11.9678C13.9836 12.2856 14.7722 12.4496 15.5694 12.4496C16.3665 12.4496 17.1551 12.2856 17.8862 11.9678C18.598 11.6549 19.2412 11.205 19.7794 10.6439C20.345 10.0738 20.7946 9.39936 21.1033 8.65802C21.4164 7.8751 21.5737 7.03867 21.5667 6.19553C21.5702 5.37417 21.4128 4.56007 21.1033 3.79924C20.7912 3.0558 20.3421 2.37765 19.7794 1.80012C19.2395 1.24106 18.5966 0.791521 17.8862 0.476199C17.1703 0.155419 16.3936 -0.00714874 15.6091 -0.000411662L15.5826 -0.0136512ZM15.5826 11.1999C14.9689 11.2023 14.3626 11.0665 13.8085 10.8028C13.2605 10.5457 12.7697 10.181 12.3655 9.73039C11.9505 9.26316 11.6231 8.725 11.399 8.14169C11.1602 7.53458 11.0389 6.88763 11.0415 6.23525C11.0376 5.58274 11.1589 4.93555 11.399 4.3288C11.6263 3.75106 11.9535 3.21778 12.3655 2.75334C12.7787 2.30464 13.2786 1.94434 13.835 1.6942C14.389 1.43796 14.9921 1.30524 15.6024 1.30524C16.2128 1.30524 16.8159 1.43796 17.3699 1.6942C17.9177 1.95161 18.4084 2.31625 18.813 2.76658C19.225 3.23102 19.5521 3.76429 19.7794 4.34204C20.0195 4.94878 20.1408 5.59598 20.1369 6.24849C20.142 6.90417 20.0252 7.5551 19.7927 8.16817C19.5708 8.74864 19.2431 9.28285 18.8262 9.74363C18.4196 10.1916 17.9294 10.5559 17.3831 10.816C16.8296 11.0815 16.2229 11.2174 15.6091 11.2132L15.5826 11.1999Z" fill="white"/>
<path d="M27.8552 0.714742C28.162 0.6983 28.469 0.743743 28.7578 0.848367C29.0467 0.952991 29.3115 1.11466 29.5366 1.32374L29.3513 1.58853C29.157 1.38983 28.924 1.23323 28.6666 1.12846C28.4092 1.02369 28.133 0.972993 27.8552 0.979526H24.1615V6.12957H26.2401L26.068 6.38111H24.1615V9.12163L23.8438 9.57176V0.714742H27.8155H27.8552ZM27.8155 0.185175H23.3142V11.2929L24.6381 9.29374V6.91068H26.2798L27.1933 5.58676H24.7043V1.61501H27.8685C28.0977 1.60514 28.3261 1.6491 28.5353 1.74336C28.7445 1.83762 28.9288 1.97956 29.0733 2.15781C29.1882 2.30257 29.2819 2.46308 29.3513 2.63442L30.2251 1.31051C30.0088 1.02804 29.7444 0.786008 29.444 0.595589C28.9675 0.300083 28.4158 0.148381 27.8552 0.158696L27.8155 0.185175Z" fill="white"/>
<path d="M29.6029 12.0205C29.9806 11.8145 30.3172 11.5407 30.5959 11.2129C30.8854 10.8755 31.1138 10.4902 31.271 10.0743C31.4342 9.65227 31.5151 9.20289 31.5094 8.75043C31.5104 8.19615 31.374 7.65027 31.1122 7.16172C30.8247 6.62448 30.4056 6.16896 29.8942 5.83781C30.2052 5.46925 30.4636 5.05935 30.662 4.6198C30.8324 4.19978 30.9135 3.74893 30.9004 3.29588C30.9099 2.72535 30.778 2.16135 30.5164 1.65422C30.427 1.53734 30.3297 1.42675 30.2252 1.32324L29.3514 2.64716C29.4597 2.91172 29.5137 3.19537 29.5102 3.48123C29.5031 3.82589 29.424 4.16525 29.2781 4.47758C29.1322 4.78991 28.9227 5.06833 28.6629 5.295C28.4266 5.49715 28.1266 5.60963 27.8156 5.61274H27.2728L26.3593 6.93666H28.4776C28.707 6.93096 28.9345 6.97955 29.1416 7.07848C29.3486 7.17742 29.5294 7.32388 29.6691 7.50594C29.9685 7.88148 30.1277 8.34964 30.1192 8.82986C30.1183 9.17339 30.0415 9.51246 29.8942 9.8228C29.7526 10.137 29.5448 10.417 29.2852 10.6436C29.0438 10.8565 28.7332 10.9741 28.4114 10.9746H24.7044V9.26676L23.3805 11.2659V12.2985H28.3981C28.8168 12.3092 29.2313 12.2136 29.6029 12.0205Z" fill="white"/>
<path d="M34.8058 7.20138H36.752L39.8764 12.3249H41.5049L38.3407 7.13519C38.8675 7.07061 39.3642 6.85444 39.7705 6.51294C40.1908 6.14625 40.5291 5.69515 40.7635 5.18902C41.0074 4.70912 41.1344 4.17837 41.1342 3.64004C41.141 3.0371 41.0001 2.44165 40.7238 1.90571C40.4685 1.38295 40.0917 0.928964 39.6249 0.581787C39.1788 0.257928 38.6404 0.0861831 38.0892 0.0919369H33.4554V12.2455H34.7794L34.8058 7.20138ZM34.8058 1.54825H38.0362C38.3608 1.5418 38.6765 1.65488 38.9232 1.86599C39.176 2.0802 39.3792 2.3467 39.519 2.6471C39.6672 2.96651 39.744 3.31439 39.7441 3.66652C39.7399 3.99848 39.6583 4.32489 39.5058 4.61974C39.3526 4.93415 39.1363 5.21359 38.8703 5.44057C38.6289 5.65343 38.3183 5.77109 37.9965 5.77155H34.8058V1.54825Z" fill="white"/>
<path d="M49.9779 11.081H44.7881V6.96358H48.985V5.78529H44.7881V1.41636H49.9779V0.171875H43.4113V12.3254H49.9779V11.081Z" fill="white"/>
<path d="M5.00429 16.1121V27.4846H8.22141V27.617H0.979574V27.4846H4.56739V16.2445H2.1049V16.1121H5.00429ZM5.53385 15.5826H1.5621V16.7873H4.01135V26.955H0.436768V28.1598H8.76421V26.955H5.5471V15.5693L5.53385 15.5826Z" fill="white"/>
<path d="M15.7017 27.8683C16.2684 27.5079 16.7261 26.9998 17.0256 26.3987C17.0208 26.9048 17.1837 27.3983 17.489 27.8021C17.6488 27.9625 17.8419 28.086 18.0547 28.1638C18.2674 28.2416 18.4946 28.2717 18.7202 28.2522C19.1168 28.2537 19.5122 28.2093 19.8985 28.1198V27.1666C19.7313 27.1838 19.5627 27.1838 19.3954 27.1666C19.2616 27.1816 19.1262 27.1569 19.0062 27.0957C18.8862 27.0346 18.7868 26.9395 18.7202 26.8224C18.5859 26.5001 18.5271 26.1514 18.5481 25.8029V21.8312C18.5768 21.4112 18.516 20.99 18.37 20.5952C18.2239 20.2004 17.9959 19.841 17.7008 19.5408L17.5949 19.4746L16.7476 20.6926C16.9357 21.1076 17.022 21.5615 16.9992 22.0165V22.5064H15.4766L14.6955 23.6317H15.384H16.9992V24.3863C16.9943 24.8491 16.8761 25.3037 16.6549 25.7103C16.4307 26.1423 16.0917 26.5042 15.6752 26.7562C15.241 27.0199 14.7401 27.1532 14.2322 27.1401C13.9515 27.1598 13.6719 27.0896 13.4338 26.9396C13.1957 26.7896 13.0117 26.5677 12.9082 26.306L11.9683 27.63C12.4955 28.0841 13.1804 28.3124 13.8747 28.2654C14.5083 28.2988 15.1392 28.1616 15.7017 27.8683Z" fill="white"/>
<path d="M14.4307 23.1554C14.1824 23.1859 13.9382 23.2436 13.7025 23.3276C13.2743 23.4873 12.9049 23.7736 12.6434 24.1484C12.3728 24.5699 12.2388 25.0645 12.2595 25.565C12.261 25.7705 12.2876 25.975 12.3389 26.174L11.9682 26.7168C11.8071 26.3455 11.7302 25.9431 11.7431 25.5385C11.7431 24.572 12.0476 23.3011 14.4836 23.1025L14.4307 23.1554ZM15.5295 22.5332H15.0529C12.4757 22.6038 11.1871 23.6232 11.1871 25.5915C11.145 26.3201 11.387 27.0367 11.8623 27.5906L11.9682 27.6832L12.9082 26.3593C12.8193 26.1361 12.7743 25.8979 12.7758 25.6576C12.7561 25.2658 12.8578 24.8775 13.067 24.5456C13.2424 24.2331 13.5108 23.9832 13.8349 23.8306C14.1046 23.7386 14.3849 23.6807 14.669 23.6585L15.4501 22.5332H15.5295Z" fill="white"/>
<path d="M15.1589 19.3422C15.7417 19.321 16.3215 19.4343 16.8535 19.6732L16.7211 19.8718C16.2589 19.5663 15.7125 19.4135 15.1589 19.4349C14.5305 19.3871 13.9046 19.5553 13.3848 19.9115C13.0868 20.1544 12.8697 20.4822 12.7626 20.8515H12.2727C12.5508 20.1233 13.2392 19.3952 15.1854 19.3952L15.1589 19.3422ZM15.1854 18.8656C13.0583 18.8656 11.8623 19.6909 11.5975 21.3413L13.1862 21.487C13.197 21.2778 13.2494 21.0729 13.3404 20.8842C13.4313 20.6955 13.5589 20.5269 13.7158 20.3881C14.1376 20.0941 14.6455 19.9496 15.1589 19.9777C15.4182 19.9552 15.6793 19.9871 15.9256 20.0714C16.1718 20.1558 16.3977 20.2907 16.5887 20.4676C16.6676 20.5554 16.7344 20.6533 16.7873 20.7588L17.6346 19.5408C16.9232 19.0094 16.0447 18.751 15.1589 18.8127L15.1854 18.8656Z" fill="white"/>
<path d="M1.4828 32.3702V41.8362L0.714926 42.9483V32.3569H1.4828V32.3702ZM2.01237 31.8274H0.172119V43.9809H0.595773L1.91969 41.9951V31.7744L2.01237 31.8274Z" fill="white"/>
<path d="M2.01225 43.981V41.9951L0.635376 43.981H2.01225Z" fill="white"/>
<path d="M6.34154 32.3702L7.02998 33.8133L6.6328 34.3825L6.40773 33.9192L5.6531 32.3702H6.34154ZM5.40156 32.3702V36.1831L4.63368 37.2952V32.3702H5.40156ZM6.72547 31.8406H4.07764V39.003L5.91788 36.3552V34.1575L6.54013 35.4814L7.63898 33.9059L6.68575 31.7744L6.72547 31.8406Z" fill="white"/>
<path d="M11.3194 41.4785L7.66538 33.8527L6.56653 35.4414L10.7501 43.9807H13.1729V31.8271H11.3194V41.4785Z" fill="white"/>
<path d="M4.09082 43.9543H5.93107V36.3418L4.09082 38.9896V43.9543Z" fill="white"/>
<path d="M17.0521 31.8271H15.0795L18.8129 43.9807H20.587L24.3204 31.8271H22.361L19.6999 41.3594L17.0521 31.8271Z" fill="white"/>
<path d="M32.767 33.5482V31.8271H26.2268V43.9807H32.767V42.2596H28.0671V38.8042H31.8932V37.242H28.0671V33.5482H32.767Z" fill="white"/>
<path d="M42.127 42.3654C42.4638 41.8018 42.6492 41.1607 42.6655 40.5043C42.6817 39.8479 42.5282 39.1984 42.2197 38.6188C41.8923 38.1304 41.4333 37.7448 40.8958 37.5067C40.2321 37.1955 39.5406 36.9472 38.8305 36.7653C38.3715 36.6241 37.9655 36.4872 37.6125 36.3549C37.3034 36.2468 37.0228 36.0703 36.7916 35.8385C36.6879 35.7197 36.6097 35.5808 36.5619 35.4305C36.5141 35.2802 36.4977 35.1217 36.5136 34.9647C36.513 34.815 36.5419 34.6665 36.5986 34.528C36.6554 34.3894 36.739 34.2634 36.8446 34.1571C37.0711 33.9437 37.3495 33.7931 37.6522 33.7203C37.9888 33.6304 38.3366 33.5903 38.6848 33.6011C39.1023 33.5997 39.5175 33.6622 39.9161 33.7865C40.3104 33.9083 40.6954 34.0588 41.0679 34.2366L42.3918 32.9127C41.7986 32.5345 41.1513 32.2488 40.4721 32.0654C39.864 31.8966 39.2365 31.8076 38.6054 31.8006C37.6663 31.7746 36.7419 32.0381 35.9576 32.5552C35.5845 32.8032 35.2718 33.1318 35.0427 33.5167C34.8135 33.9017 34.6737 34.3332 34.6336 34.7794C34.5248 35.4591 34.6659 36.1552 35.0308 36.7388C35.4276 37.2741 35.9633 37.6907 36.5798 37.9436C37.3803 38.2936 38.2084 38.577 39.0555 38.7909C39.5423 38.8984 39.9962 39.1208 40.3795 39.4396C40.5312 39.5723 40.6506 39.7379 40.7286 39.9237C40.8066 40.1095 40.8411 40.3107 40.8296 40.512C40.8369 40.7673 40.783 41.0207 40.6725 41.251C40.5619 41.4813 40.3979 41.6819 40.1941 41.8359C39.7599 42.1851 39.2154 42.3682 38.6584 42.3522C38.1652 42.3439 37.6788 42.2358 37.2285 42.0345C36.7373 41.8328 36.2883 41.541 35.9046 41.1739L34.5807 42.4978C34.9265 42.8493 35.3184 43.1522 35.7457 43.3981C36.1997 43.6667 36.6842 43.88 37.1888 44.0336C37.6905 44.1894 38.2125 44.2697 38.7378 44.2719C39.4249 44.2428 40.0938 44.0425 40.684 43.6894C41.27 43.3783 41.7667 42.9225 42.127 42.3654Z" fill="white"/>
<path d="M44.4043 33.5218H47.9656V43.9807H49.8059V33.5218H53.354V31.8271H44.4043V33.5218Z" fill="white"/>
<path d="M57.1139 31.8271H55.2737V43.9807H57.1139V31.8271Z" fill="white"/>
<path d="M65.2692 37.9824H59.1924V39.5446H65.2692V37.9824Z" fill="white"/>
<path d="M10.3662 57.2469C9.99646 57.8994 9.45652 58.4394 8.804 58.8091C7.92188 59.2505 6.94341 59.4644 5.95757 59.4314C5.23735 59.4344 4.52459 59.2855 3.86579 58.9945C3.51046 58.837 3.17312 58.6417 2.8596 58.412L4.18352 58.2001C4.7323 58.4489 5.32859 58.5754 5.9311 58.5708C6.65511 58.5934 7.37606 58.4673 8.04937 58.2001C8.45761 58.0178 8.82296 57.7517 9.12174 57.419L10.3397 57.2337L10.3662 57.2469ZM11.0414 56.585L8.85696 56.9292C8.58793 57.2653 8.24313 57.533 7.85078 57.7103C7.24337 57.9442 6.59478 58.0523 5.94434 58.028C5.40889 58.0294 4.87981 57.9119 4.39535 57.6838H4.28944L1.6416 58.0942L1.73428 58.2001C2.27792 58.7609 2.92542 59.2105 3.64072 59.5241C4.36643 59.8435 5.15146 60.0059 5.94434 60.0007C7.01838 60.0346 8.08371 59.7978 9.04231 59.3122C9.92236 58.8071 10.6216 58.0383 11.0414 57.1145V56.6247V56.585Z" fill="white"/>
<path d="M7.08289 55.6045H9.10848V56.6239C9.03091 56.7388 8.94693 56.8493 8.85694 56.9549L11.0546 56.6106V53.751H7.08289V55.6045Z" fill="white"/>
<path d="M3.12451 56.7558C2.75696 56.3699 2.46107 55.9216 2.25073 55.4319C2.03262 54.9167 1.92008 54.3629 1.91975 53.8035C1.91203 53.0511 2.09417 52.3088 2.44932 51.6455C2.78746 51.0096 3.27891 50.4681 3.87915 50.07C4.47476 49.6721 5.17519 49.4601 5.8915 49.461C6.54979 49.4604 7.19717 49.6291 7.77147 49.9509C8.40511 50.3164 8.94105 50.8297 9.33369 51.4469L10.9489 50.3878C10.3865 49.4986 9.61344 48.7619 8.69821 48.243C7.8405 47.7638 6.87401 47.513 5.8915 47.5149C5.08855 47.508 4.29363 47.6751 3.56141 48.0047C2.84846 48.3155 2.20479 48.7656 1.6682 49.3286C1.10754 49.9128 0.658805 50.5949 0.344286 51.341C0.0344374 52.1063 -0.122969 52.9248 -0.119088 53.7505C-0.134586 55.3272 0.458111 56.8493 1.53581 58.0003L4.18365 57.5899C3.78718 57.3719 3.42934 57.0901 3.12451 56.7558Z" fill="white"/>
<path d="M18.985 47.6611H16.6681L14.0203 56.1475L21.3813 54.9956L18.985 47.6611ZM17.8067 49.9515L19.4351 55.2472H16.1915L17.8067 49.9515Z" fill="white"/>
<path d="M20.9576 55.6044L22.1227 59.2717H21.2886L20.4678 56.6239L20.3486 56.2532H16.6152L20.9576 55.6044ZM15.2515 56.4915V56.6503L14.4307 59.2982H13.5966L14.4307 56.6503L15.3045 56.5179L15.2515 56.4915ZM21.3813 55.0352L14.0203 56.187L12.8552 59.841H14.8146L15.7546 56.8489H20.0044L20.9444 59.841H22.9038L21.368 55.0484L21.3813 55.0352Z" fill="white"/>
<path d="M25.0749 54.9427C25.1295 55.1869 25.2048 55.4261 25.3 55.6576C25.5268 56.2157 25.8544 56.7273 26.2664 57.1669C26.6748 57.6152 27.1704 57.9756 27.7227 58.226C28.285 58.4763 28.8946 58.6028 29.51 58.5967C30.1688 58.5939 30.8176 58.4351 31.4032 58.1333C31.8948 57.8753 32.3418 57.54 32.7271 57.1404L33.3891 57.6832C32.9243 58.1877 32.3728 58.6047 31.7607 58.9144C31.0597 59.256 30.2898 59.4326 29.51 59.4308C28.7882 59.4354 28.0742 59.2817 27.4182 58.9806C26.7783 58.6832 26.1957 58.2754 25.6971 57.7759C25.1941 57.2606 24.7942 56.6539 24.5188 55.9886C24.3912 55.681 24.2936 55.3618 24.2276 55.0353L25.0749 54.903V54.9427ZM25.5118 54.2939L23.6053 54.5852C23.6679 55.1355 23.806 55.6746 24.0158 56.1871C24.3266 56.9195 24.7762 57.5849 25.3397 58.1465C25.8829 58.6958 26.5194 59.1441 27.2196 59.4705C27.9466 59.8019 28.7376 59.9691 29.5365 59.9603C30.3944 59.9622 31.2413 59.7675 32.0122 59.391C32.8543 58.9615 33.5947 58.3566 34.1835 57.617L32.7139 56.399C32.2935 56.9102 31.776 57.3331 31.1914 57.6435C30.6791 57.9052 30.1118 58.0414 29.5365 58.0406C28.998 58.0439 28.4652 57.931 27.9743 57.7097C27.473 57.4908 27.0222 57.1708 26.6504 56.7697C26.2808 56.3854 25.9846 55.9367 25.7766 55.4458C25.6324 55.0853 25.5389 54.7066 25.4986 54.3204L25.5118 54.2939Z" fill="white"/>
<path d="M26.6638 50.6403C27.0476 50.2598 27.4959 49.9505 27.9877 49.7268C28.489 49.4832 29.039 49.3566 29.5963 49.3566C30.1536 49.3566 30.7036 49.4832 31.2049 49.7268C31.7893 50.0374 32.3067 50.4603 32.7274 50.9712L34.1969 49.74C33.6054 49.01 32.8652 48.4143 32.0257 47.9924C31.2791 47.63 30.4627 47.4341 29.633 47.4181C28.8032 47.4021 27.9799 47.5664 27.2199 47.8998C26.5135 48.2154 25.8751 48.665 25.3399 49.2237C24.7764 49.7955 24.327 50.4695 24.016 51.2095C23.6999 51.9962 23.5425 52.8376 23.5526 53.6853C23.5345 53.9807 23.5345 54.2769 23.5526 54.5723L25.512 54.281C25.5008 54.0826 25.5008 53.8837 25.512 53.6853C25.4887 53.115 25.5694 52.5452 25.7503 52.0039C25.9596 51.4923 26.2703 51.0284 26.6638 50.6403Z" fill="white"/>
<path d="M36.0768 52.6926L37.917 52.4145V47.6484H36.0768V52.6926Z" fill="white"/>
<path d="M37.3743 53.0359V59.2715H36.6064V53.155L37.3743 53.0359ZM37.9038 52.4136L36.0636 52.7049V59.8143H37.9038V52.4004V52.4136Z" fill="white"/>
<path d="M46.8138 44.0596H45.5825L45.1721 46.4029H46.1386L46.8138 44.0596Z" fill="white"/>
<path d="M42.2726 51.5134C42.6174 50.8631 43.1177 50.3082 43.7289 49.8982C44.3322 49.5007 45.0387 49.2889 45.7612 49.2889C46.4836 49.2889 47.1901 49.5007 47.7934 49.8982C48.1402 50.1309 48.4523 50.4117 48.7201 50.7323L50.7854 50.4145C50.5557 50.029 50.2849 49.6694 49.9778 49.3421C49.4388 48.7821 48.7957 48.3324 48.0846 48.0182C47.3607 47.6919 46.5751 47.5249 45.781 47.5284C44.9956 47.5262 44.2189 47.6933 43.5039 48.0182C42.7905 48.3352 42.1436 48.7844 41.5974 49.3421C41.0353 49.91 40.5861 50.5794 40.2735 51.3148C40.1723 51.5647 40.0882 51.8213 40.022 52.0827L42.1535 51.7517L42.2726 51.5134Z" fill="white"/>
<path d="M50.5076 50.9844C50.6007 51.1564 50.6846 51.3332 50.7592 51.514C51.0421 52.212 51.186 52.9585 51.1828 53.7117C51.1871 54.4778 51.0433 55.2376 50.7592 55.9491C50.4859 56.6235 50.0859 57.2392 49.5809 57.7629C49.0905 58.2755 48.5062 58.689 47.8598 58.9809C47.1988 59.2731 46.4841 59.4241 45.7614 59.4241C45.0387 59.4241 44.3239 59.2731 43.663 58.9809C43.0161 58.6839 42.4319 58.266 41.9419 57.7497C41.3014 57.0641 40.8339 56.2355 40.5783 55.3328C40.3227 54.4301 40.2864 53.4795 40.4723 52.5599L41.3593 52.4275C41.0374 53.6976 41.1978 55.0419 41.8095 56.2007C42.1991 56.9276 42.7632 57.5463 43.4511 58.0012C44.1435 58.4551 44.9533 58.6969 45.7812 58.6969C46.6091 58.6969 47.419 58.4551 48.1113 58.0012C48.7975 57.5426 49.3575 56.9189 49.7398 56.1874C50.1382 55.4282 50.3429 54.5823 50.3355 53.7249C50.3461 52.8614 50.1365 52.0093 49.7265 51.2492L49.6603 51.1301L50.5076 50.9977V50.9844ZM50.7857 50.4152L48.7203 50.7329C48.9273 50.9742 49.1092 51.2359 49.2631 51.514C49.6294 52.1927 49.8163 52.9538 49.8059 53.7249C49.8106 54.4955 49.6241 55.2551 49.2631 55.9359C48.9271 56.5917 48.4307 57.1519 47.8201 57.5643C47.2156 57.9585 46.5095 58.1684 45.7879 58.1684C45.0662 58.1684 44.3601 57.9585 43.7556 57.5643C43.1388 57.1568 42.6337 56.6016 42.2861 55.9491C41.9463 55.305 41.76 54.5911 41.7416 53.8631C41.7232 53.1351 41.8733 52.4127 42.1802 51.7523L40.0487 52.0833C39.7658 53.1358 39.7572 54.2433 40.0237 55.3001C40.2902 56.3569 40.823 57.3279 41.5712 58.1204C42.112 58.6784 42.7546 59.1278 43.4644 59.4443C44.194 59.7676 44.9832 59.9346 45.7812 59.9346C46.5793 59.9346 47.3685 59.7676 48.0981 59.4443C48.8083 59.1287 49.4511 58.6792 49.9913 58.1204C50.5571 57.5505 51.0068 56.876 51.3152 56.1345C51.6258 55.3601 51.7832 54.5328 51.7786 53.6985C51.7821 52.8771 51.6247 52.063 51.3152 51.3022C51.1849 50.986 51.0299 50.6806 50.8518 50.3887L50.7857 50.4152Z" fill="white"/>
<path d="M60.8472 48.84L62.7007 48.5487V47.6484H60.8472V48.84Z" fill="white"/>
<path d="M62.1579 49.1701V59.2716H61.3768V49.2892L62.1579 49.1701ZM56.7431 50.0174L60.3574 57.5373L61.1914 59.2716H60.6089L56.1341 50.1101L56.7563 50.0174H56.7431ZM54.8764 50.3087V59.2584H54.1085V50.4146L54.8764 50.3087ZM62.6478 48.5611L60.7943 48.8524V57.3254L57.0079 49.3819L53.5657 49.9115V59.735H55.4059V49.9777L60.2117 59.8012H62.6478V48.5479V48.5611Z" fill="white"/>
<path d="M56.2004 47.6484H53.6188V49.9653L57.061 49.4225L56.2004 47.6484Z" fill="white"/>
</g>
<defs>
<clipPath id="clip0_1994_6618">
<rect width="65.2692" height="60" fill="white"/>
</clipPath>
</defs>
</svg>
