<svg width="255" height="62" viewBox="0 0 255 62" fill="none" xmlns="http://www.w3.org/2000/svg">
<g clip-path="url(#clip0_1994_6509)">
<path d="M15.7012 22.4065C16.4054 21.2687 16.7975 19.9655 16.8381 18.6281C16.8787 17.2906 16.5663 15.966 15.9324 14.7876C15.2649 13.8214 14.3426 13.0592 13.268 12.5856C11.8702 11.9508 10.4184 11.4423 8.93 11.0662C7.99203 10.8019 7.06946 10.4858 6.1665 10.1193C5.42079 9.83461 4.75034 9.3826 4.20671 8.79812C3.69123 8.18438 3.4311 7.39612 3.48005 6.59611C3.46597 5.82087 3.75422 5.0706 4.28376 4.50421C4.83696 3.97055 5.52022 3.59098 6.26559 3.40321C7.09713 3.17178 7.95679 3.05691 8.81992 3.0619C9.75477 3.06927 10.6857 3.18379 11.5944 3.40321C12.4858 3.63328 13.3581 3.93143 14.2038 4.29502L16.1306 1.97192C14.9958 1.31928 13.7663 0.847508 12.4863 0.573622C11.275 0.304655 10.0386 0.164411 8.79788 0.155235C6.74956 0.0546388 4.72207 0.605868 3.00662 1.7297C2.28294 2.24775 1.68605 2.92306 1.2608 3.7049C0.835559 4.48674 0.593003 5.35476 0.551374 6.24378C0.388083 7.53687 0.684257 8.84624 1.38815 9.94318C2.1397 11.0016 3.15242 11.8475 4.32781 12.3984C5.76647 13.0978 7.27618 13.6404 8.83091 14.0169C10.246 14.2938 11.5837 14.8762 12.7505 15.7234C13.1661 16.0558 13.4953 16.4836 13.71 16.9705C13.9247 17.4574 14.0186 17.989 13.9836 18.52C13.9744 19.388 13.6933 20.2313 13.1799 20.9312C12.6574 21.6338 11.9637 22.191 11.165 22.5497C10.3051 22.9431 9.36913 23.1423 8.42354 23.1332C7.34015 23.1146 6.26928 22.8981 5.26367 22.4946C4.17191 22.0839 3.15333 21.5002 2.24693 20.766L0.0449219 22.8029C1.16887 23.7888 2.45365 24.5746 3.84336 25.126C5.32091 25.7493 6.90804 26.0712 8.51164 26.0729C9.97098 26.0885 11.4117 25.7444 12.7065 25.071C13.9113 24.4465 14.9408 23.5305 15.7012 22.4065Z" fill="#262626"/>
<path d="M39.3606 20.3911C38.5066 21.313 37.4822 22.0607 36.3439 22.5931C35.1882 23.141 33.9233 23.4196 32.6445 23.4079C31.3586 23.4187 30.0868 23.1402 28.9231 22.5931C27.781 22.0672 26.7553 21.3186 25.9063 20.3911C25.0353 19.4208 24.3454 18.3021 23.8695 17.0881C23.3686 15.8154 23.1145 14.4591 23.1208 13.0914C23.1141 11.7309 23.3682 10.3817 23.8695 9.11683C24.3475 7.90392 25.0372 6.78555 25.9063 5.81382C26.7557 4.88681 27.7813 4.13824 28.9231 3.61181C30.0869 3.06506 31.3586 2.78664 32.6445 2.79708H33.1509L31.6646 0.0996094C30.3594 0.203014 29.0819 0.530786 27.8881 1.0685C26.389 1.74561 25.0326 2.70219 23.8915 3.88707C21.5017 6.36643 20.1743 9.68089 20.1921 13.1245C20.1565 16.5588 21.4597 19.8721 23.8254 22.3619C24.9458 23.551 26.2888 24.5086 27.778 25.1805C29.306 25.8474 30.9553 26.1916 32.6225 26.1916C34.2896 26.1916 35.9389 25.8474 37.4669 25.1805C38.9534 24.5234 40.2964 23.5807 41.4195 22.406C41.9596 21.8392 42.4461 21.2237 42.8728 20.5673L41.1993 17.5175C40.7481 18.5697 40.1269 19.5406 39.3606 20.3911Z" fill="#262626"/>
<path d="M32.6442 0.571851C34.2276 0.561475 35.7943 0.895861 37.2354 1.55176C38.6582 2.2056 39.9407 3.12915 41.0119 4.27124C42.1019 5.43496 42.9679 6.78987 43.5662 8.26789C44.1828 9.78907 44.4969 11.4158 44.491 13.0572C44.5032 14.742 44.1891 16.4133 43.5662 17.9787C43.3734 18.4501 43.1528 18.9097 42.9056 19.355L41.8046 17.4392L41.8707 17.2741C42.3872 15.9285 42.6486 14.4985 42.6414 13.0572C42.6485 11.6257 42.3832 10.2058 41.8596 8.87343C41.3588 7.5966 40.6357 6.41864 39.7237 5.39425C38.8288 4.3935 37.7433 3.58128 36.5308 3.00509C35.5639 2.54977 34.5238 2.27016 33.459 2.17934L32.5672 0.549843L32.6442 0.571851ZM32.5672 -0.022667C32.2369 -0.022667 31.9176 -0.022667 31.5873 -0.022667L33.0626 2.67477C34.1648 2.72885 35.2458 2.99816 36.2445 3.4675C37.3862 3.99418 38.4117 4.74271 39.2613 5.6695C40.1304 6.64123 40.8201 7.7596 41.2981 8.97252C41.7991 10.2375 42.0532 11.5866 42.0468 12.9472C42.0559 14.3166 41.8095 15.6757 41.3201 16.9548C41.3201 17.0869 41.199 17.2191 41.144 17.3512L42.8175 20.4009C43.2955 19.6715 43.7011 18.8971 44.0286 18.0888C44.6784 16.4533 45.0038 14.707 44.9865 12.9472C44.9976 11.2308 44.6722 9.5288 44.0286 7.93757C43.406 6.39391 42.5026 4.97906 41.3642 3.76476C40.2441 2.56679 38.9017 1.59826 37.4116 0.913159C35.8953 0.219717 34.2455 -0.133529 32.5782 -0.121787L32.5672 -0.022667Z" fill="#262626"/>
<path d="M58.2763 0.936C59.3394 0.910487 60.3873 1.19346 61.293 1.75073C62.1563 2.29322 62.8624 3.05243 63.3409 3.95274C63.8465 4.92846 64.1036 6.01379 64.0896 7.11261C64.103 7.95744 63.9458 8.79628 63.6272 9.57885C63.2332 10.4448 62.7219 11.2525 62.1078 11.9791L61.7114 12.4635L62.2399 12.8158C63.2252 13.4382 64.039 14.2975 64.607 15.3151C65.1036 16.2547 65.3607 17.3022 65.3557 18.3649C65.351 19.2091 65.1905 20.0452 64.8823 20.8311C64.5755 21.635 64.1323 22.38 63.5721 23.0331C63.0305 23.6644 62.3774 24.1906 61.6453 24.5855C60.9695 24.953 60.2126 25.146 59.4433 25.1471H49.3471V0.924979H58.2873L58.2763 0.936ZM51.0867 12.2103H58.1552C58.9628 12.2206 59.7461 11.9346 60.3572 11.4065C60.9746 10.8711 61.4707 10.2102 61.8125 9.46787C62.1542 8.72553 62.3337 7.91881 62.339 7.10159C62.3497 5.96918 61.9597 4.86946 61.238 3.99679C60.8826 3.55467 60.4286 3.20191 59.9124 2.96675C59.3962 2.73159 58.8321 2.62055 58.2653 2.64254H51.0867V12.2103ZM51.0867 23.3965H59.4324C60.2428 23.4007 61.0265 23.1068 61.6344 22.5707C62.2375 22.048 62.7217 21.4023 63.0546 20.677C63.3967 19.9538 63.577 19.1648 63.5831 18.3649C63.5932 17.2225 63.2037 16.1126 62.4821 15.227C62.1347 14.7786 61.6865 14.4183 61.1738 14.1754C60.6612 13.9324 60.0985 13.8137 59.5314 13.8287H51.0757V23.3965H51.0867ZM58.2543 0.275391H48.7416V25.6865H59.4103C60.2802 25.6862 61.136 25.4666 61.8986 25.048C62.6938 24.6203 63.403 24.0491 63.9905 23.3634C64.5983 22.6592 65.079 21.8544 65.4108 20.9853C65.7423 20.1359 65.914 19.2326 65.9172 18.3208C65.9218 17.1695 65.6419 16.0349 65.1025 15.0178C64.4915 13.9152 63.6132 12.9838 62.5482 12.3094C63.1952 11.5394 63.7325 10.6835 64.1446 9.76604C64.4932 8.91395 64.6655 8.00008 64.6511 7.07959C64.6679 5.88477 64.3879 4.70448 63.8364 3.64446C63.3304 2.64706 62.571 1.8003 61.6344 1.18921C60.6426 0.577917 59.4961 0.264561 58.3313 0.286411L58.2543 0.275391ZM51.6482 11.6047V3.18202H58.2543C58.7312 3.15691 59.2074 3.24337 59.6451 3.43449C60.0827 3.62562 60.4698 3.91614 60.7756 4.28303C61.3967 5.05965 61.7241 6.03039 61.7004 7.02455C61.6941 7.75834 61.5318 8.48239 61.2243 9.14867C60.9168 9.81495 60.4711 10.4082 59.9168 10.889C59.4238 11.3225 58.7896 11.5613 58.1331 11.5607L51.6482 11.6047ZM51.6482 22.7909V14.4123H59.5314C60.0114 14.398 60.4878 14.4973 60.9221 14.702C61.3564 14.9068 61.7363 15.2111 62.0307 15.5904C62.6604 16.3764 62.9954 17.3579 62.9776 18.3649C62.9741 19.0813 62.8124 19.7881 62.5041 20.4348C62.2093 21.0878 61.7775 21.6698 61.238 22.1413C60.7397 22.5903 60.0921 22.8376 59.4213 22.8349L51.6482 22.7909Z" fill="#262626"/>
<path d="M79.6578 0.93611C80.6906 0.924174 81.6993 1.24881 82.5314 1.86095C83.4293 2.51519 84.161 3.37129 84.6673 4.36022C85.2054 5.40112 85.4812 6.55759 85.471 7.72928C85.4682 8.76252 85.2232 9.78071 84.7554 10.702C84.2873 11.6494 83.6274 12.4892 82.8176 13.1682C82.0542 13.8113 81.1214 14.2204 80.1312 14.3463L79.2614 14.4564L79.7238 15.2051L85.8014 25.1912H83.7315L77.3677 14.7537L77.2025 14.4784H72.237V25.1912H70.4974V0.969139H79.6137L79.6578 0.93611ZM72.1819 12.7279H79.4375C80.248 12.7321 81.0317 12.4382 81.6396 11.9021C82.2718 11.383 82.7892 10.7381 83.1589 10.0084C83.5154 9.32771 83.7112 8.57445 83.7315 7.80636C83.7269 6.99211 83.5466 6.18841 83.203 5.4502C82.8773 4.71744 82.3921 4.0667 81.7827 3.54548C81.1686 3.02263 80.3872 2.73743 79.5807 2.74174H72.259V12.7829L72.1819 12.7279ZM79.6908 0.451666H69.9469V25.8628H72.8095V15.1501H76.8722L83.4122 25.8628H86.8253L80.2192 15.0069C81.3159 14.8664 82.3484 14.4113 83.192 13.6967C84.0668 12.9679 84.7794 12.0641 85.2839 11.0433C85.7941 10.0443 86.0619 8.93915 86.0656 7.81738C86.0781 6.55327 85.7793 5.30549 85.1958 4.18405C84.6527 3.11268 83.8643 2.1847 82.8947 1.47559C81.9625 0.793295 80.8349 0.430297 79.6798 0.440645L79.6908 0.451666ZM72.8315 12.2104V3.31428H79.5807C80.2582 3.30667 80.9155 3.54531 81.4304 3.98588C81.9749 4.45274 82.4076 5.03594 82.6965 5.69242C83.0065 6.35804 83.1681 7.08313 83.17 7.81738C83.1608 8.51231 82.9872 9.19519 82.6635 9.8102C82.3446 10.4635 81.8949 11.0444 81.3423 11.5167C80.8351 11.9654 80.1808 12.2123 79.5036 12.2104H72.8315Z" fill="#262626"/>
<path d="M103.946 0.936697V2.40102H93.068V12.6624H101.876V13.9836H93.068V23.7385H99.1675L98.1767 25.2028H91.3394V0.980713H103.913L103.946 0.936697ZM104.485 0.408203H90.7999V25.8194H98.507L100.269 23.21H93.6625V14.6111H102.471V12.1449H93.6625V3.0286H104.518V0.419224L104.485 0.408203Z" fill="#262626"/>
<path d="M104.518 23.165H100.268L98.5065 25.7744H104.518V23.165Z" fill="#262626"/>
<path d="M125.889 0.362305H123.026V25.7735H125.889V0.362305Z" fill="#262626"/>
<path d="M135.852 14.302C134.212 14.4827 132.671 15.1763 131.448 16.2839C130.901 16.8446 130.477 17.5129 130.202 18.2464C129.927 18.9799 129.808 19.7626 129.852 20.5447C129.804 21.2948 129.933 22.0456 130.23 22.7362C130.526 23.4268 130.982 24.0377 131.559 24.5194C132.778 25.4539 134.272 25.9573 135.808 25.9507C136.9 25.9684 137.988 25.8199 139.034 25.5103C140.103 25.2038 141.109 24.7119 142.007 24.057V25.7635H144.914V16.6142C144.914 15.4765 144.888 14.4122 144.837 13.4213C144.806 12.5211 144.627 11.6321 144.308 10.7898C143.981 9.99953 143.4 9.34088 142.657 8.91815C141.797 8.32138 140.822 7.91246 139.794 7.71806C138.681 7.49903 137.539 7.46184 136.414 7.60795C135.268 7.75923 134.154 8.08989 133.111 8.58783C132.045 9.08497 131.108 9.81937 130.369 10.7348L132.153 12.6175C132.616 11.9155 133.253 11.3463 134.003 10.966C134.8 10.5429 135.664 10.2599 136.557 10.1292C137.42 9.97807 138.303 9.97807 139.167 10.1292C139.929 10.2655 140.639 10.6126 141.214 11.1311C141.484 11.3901 141.696 11.704 141.835 12.0515C141.973 12.3991 142.036 12.7722 142.018 13.146V14.4562C139.986 14.061 137.902 14.0088 135.852 14.302ZM141.985 21.4916C141.328 21.9776 140.605 22.3669 139.838 22.6477C139.034 22.9581 138.195 23.1652 137.339 23.2642C136.558 23.3621 135.767 23.3361 134.994 23.1871C134.341 23.0733 133.737 22.7709 133.254 22.3173C133.023 22.0774 132.843 21.7921 132.728 21.4794C132.612 21.1667 132.563 20.8335 132.583 20.5007C132.531 19.7132 132.757 18.9324 133.221 18.2945C133.686 17.6567 134.36 17.2022 135.126 17.0105C137.365 16.4243 139.705 16.3267 141.985 16.7243V21.4916Z" fill="#262626"/>
<path d="M4.21692 35.5957H0.363403V61.0069H4.21692V35.5957Z" fill="#262626"/>
<path d="M23.6719 55.7771L13.9831 35.5957H8.56616V60.9738H12.4197V40.4621L22.4718 61.0069H27.5585V35.5957H23.6719V55.7771Z" fill="#262626"/>
<path d="M41.1995 55.5239L35.6504 35.5957H31.5437L39.3498 61.0069H43.0602L50.8663 35.5957H46.7596L41.1995 55.5239Z" fill="#262626"/>
<path d="M67.9761 36.1659V38.6322H58.1331V47.176L55.4357 42.2435V36.1769H67.9761V36.1659ZM66.1154 47.4402V49.6422H59.5094L58.3203 47.4402H66.1264H66.1154ZM68.5487 35.5384H54.8632V42.3206L59.1461 50.1267H66.6439V46.8237H58.6616V39.1166H68.5046V35.5273L68.5487 35.5384Z" fill="#262626"/>
<path d="M67.9764 57.9905V60.4347H65.4111L64.0679 57.9905H67.9764ZM68.549 57.418H63.099L65.0698 61.0073H68.549V57.418Z" fill="#262626"/>
<path d="M58.7052 57.4176V50.1951H59.1346L54.8517 42.3779V61.0069H65.058L63.0872 57.4176H58.7052Z" fill="#262626"/>
<path d="M80.7479 35.9464C82.0169 35.9598 83.2789 36.1375 84.5023 36.4749C85.6578 36.7801 86.7682 37.2354 87.8053 37.8291L85.8566 39.91C85.1757 39.6043 84.4771 39.3396 83.7647 39.1173C82.8815 38.8367 81.9608 38.6919 81.0342 38.6878H80.7589C80.0683 38.6844 79.38 38.7695 78.7111 38.9411C77.9799 39.1321 77.3117 39.5118 76.7733 40.0421C76.5 40.3152 76.2834 40.6396 76.136 40.9967C75.9886 41.3539 75.9133 41.7367 75.9145 42.123C75.8841 42.5207 75.9336 42.9205 76.0603 43.2987C76.187 43.6769 76.3883 44.0259 76.6522 44.325C77.1984 44.8699 77.8609 45.2839 78.59 45.5361C79.3276 45.8113 80.2084 46.1086 81.1993 46.4059C82.0031 46.6261 82.7627 46.8683 83.4894 47.1215L81.915 49.4557C80.1858 49.0147 78.4956 48.4329 76.8614 47.7161C75.6719 47.2259 74.6372 46.4232 73.8666 45.393C73.1957 44.2883 72.9419 42.9801 73.151 41.7046C73.2065 40.8612 73.4498 40.0409 73.8632 39.3037C74.2766 38.5665 74.8495 37.931 75.5402 37.4437C77.107 36.4176 78.9532 35.9022 80.825 35.9684L80.7479 35.9464ZM80.825 35.3959C78.8389 35.3266 76.8804 35.8768 75.2209 36.9703C74.4643 37.5054 73.8359 38.2016 73.3809 39.0089C72.9258 39.8161 72.6555 40.7143 72.5895 41.6386C72.3596 43.0538 72.649 44.5045 73.4042 45.7233C74.2326 46.8392 75.3472 47.7104 76.6302 48.2446C78.303 48.9808 80.0337 49.5773 81.8049 50.0282L82.1572 50.1383L84.3592 46.8353C83.3731 46.4485 82.3659 46.1176 81.3425 45.8444C80.3736 45.5508 79.5221 45.2682 78.7881 44.9966C78.1353 44.7666 77.544 44.39 77.0595 43.8956C76.8444 43.6481 76.6817 43.3594 76.5814 43.0472C76.4811 42.7349 76.4452 42.4055 76.476 42.079C76.4746 41.7663 76.5352 41.4564 76.6543 41.1673C76.7734 40.8782 76.9485 40.6155 77.1697 40.3944C77.6421 39.9484 78.2227 39.6334 78.8542 39.4806C79.476 39.3183 80.1163 39.2369 80.7589 39.2383H80.9571C81.8311 39.2384 82.6999 39.3721 83.5335 39.6347C84.3554 39.8919 85.1576 40.2083 85.9337 40.5816L88.6531 37.6749C87.4153 36.8808 86.064 36.2793 84.6455 35.8913C83.3756 35.5397 82.0655 35.3547 80.7479 35.3408L80.825 35.3959Z" fill="#262626"/>
<path d="M75.0889 55.6889C75.627 56.1421 76.2142 56.5335 76.8395 56.856L75.232 59.2342L74.9017 59.058C74.2239 58.6627 73.5892 58.1978 73.008 57.6708L75.0889 55.6889ZM75.0889 54.9072L72.1492 57.6708C72.8711 58.4057 73.6897 59.0391 74.5824 59.5535C74.8466 59.7076 75.1329 59.8397 75.4081 59.9719L77.6101 56.6688C76.6486 56.2509 75.7689 55.6656 75.0118 54.9403L75.0889 54.9072Z" fill="#262626"/>
<path d="M85.6025 47.4407C85.1951 47.2425 84.7548 47.0553 84.3034 46.8682L82.1013 50.1712C82.9591 50.415 83.7548 50.8392 84.4355 51.4153C84.7473 51.6887 84.9941 52.0283 85.1579 52.4092C85.3217 52.7902 85.3984 53.2029 85.3824 53.6173C85.3893 54.1375 85.2732 54.652 85.0436 55.1188C84.814 55.5856 84.4774 55.9916 84.0611 56.3037C83.1552 57.0425 82.0149 57.433 80.8462 57.4047C79.813 57.3839 78.7946 57.1555 77.8515 56.7331L77.7193 56.6561L75.5173 59.9591C76.2243 60.3222 76.961 60.6242 77.7193 60.8619C78.7892 61.1922 79.9027 61.3593 81.0224 61.3574C82.4857 61.3731 83.9291 61.017 85.2172 60.3224C86.4503 59.6664 87.4932 58.7031 88.2449 57.5259C88.9477 56.348 89.3352 55.0089 89.3699 53.6378C89.4046 52.2666 89.0854 50.9096 88.4431 49.6977C87.7298 48.6908 86.7445 47.908 85.6025 47.4407Z" fill="#262626"/>
<path d="M92.8594 39.1519H100.302V61.0069H104.156V39.1519H111.598V35.5957H92.8594V39.1519Z" fill="#262626"/>
<path d="M119.448 35.5957H115.594V61.0069H119.448V35.5957Z" fill="#262626"/>
<path d="M138.209 52.154H142.459V54.3009C141.834 55.3267 140.918 56.1431 139.827 56.6461C138.561 57.1366 137.209 57.3651 135.853 57.3177C134.713 57.3355 133.583 57.0946 132.55 56.613C131.543 56.1383 130.638 55.4728 129.885 54.6532C129.111 53.821 128.496 52.8547 128.069 51.8016C127.64 50.7531 127.419 49.6313 127.419 48.4986C127.401 46.9253 127.779 45.3727 128.52 43.9845C129.228 42.6513 130.257 41.5159 131.515 40.6815C132.784 39.8425 134.276 39.4051 135.798 39.4264C137.169 39.4236 138.519 39.7723 139.717 40.4393C141.054 41.1957 142.187 42.2648 143.02 43.5551L146.4 41.3531C145.226 39.4953 143.611 37.9561 141.699 36.872C139.904 35.8751 137.884 35.3558 135.831 35.3637C134.145 35.3499 132.477 35.7031 130.942 36.3986C129.446 37.0774 128.101 38.051 126.99 39.2612C125.857 40.4942 124.957 41.9231 124.336 43.4781C123.693 45.0772 123.368 46.7862 123.378 48.5097C123.344 51.9099 124.654 55.1861 127.023 57.626C128.155 58.8001 129.505 59.7424 130.997 60.4005C132.519 61.0727 134.167 61.4142 135.831 61.4024C138.078 61.4775 140.308 60.9853 142.316 59.9711C144.161 58.9184 145.628 57.3123 146.51 55.3799V48.4106H138.209V52.154Z" fill="#262626"/>
<path d="M158.292 35.5957L150.232 60.9188H154.339L156.299 54.6761H165.195L167.155 60.9188H171.239L163.147 35.5957H158.292ZM157.312 51.4281L160.758 40.4181L164.171 51.4281H157.312Z" fill="#262626"/>
<path d="M179.199 41.8395C179.984 41.0513 180.9 40.4067 181.907 39.9348C182.964 39.4485 184.117 39.2077 185.281 39.2306C186.444 39.2535 187.587 39.5394 188.623 40.0669C189.845 40.7189 190.927 41.6056 191.805 42.6763L194.888 40.0999C193.653 38.5702 192.107 37.3204 190.352 36.4336C188.79 35.6766 187.082 35.2678 185.347 35.2355C183.611 35.2032 181.889 35.5481 180.3 36.2464C178.827 36.9059 177.496 37.8443 176.38 39.0099C175.23 40.2154 174.319 41.6275 173.694 43.1717C172.387 46.5091 172.387 50.2168 173.694 53.5542C174.32 55.0748 175.232 56.4613 176.38 57.6389C177.521 58.7793 178.856 59.7076 180.322 60.3804C181.841 61.0772 183.495 61.4305 185.166 61.4154C186.964 61.4178 188.738 61.0072 190.352 60.2153C192.113 59.3234 193.66 58.0615 194.888 56.5159L191.805 53.9726C190.927 55.0432 189.845 55.93 188.623 56.5819C187.55 57.1326 186.362 57.4195 185.155 57.4187C184.017 57.4304 182.89 57.1937 181.852 56.7251C180.832 56.2632 179.917 55.5961 179.166 54.7653C178.391 53.9426 177.775 52.9831 177.349 51.9357C176.901 50.793 176.68 49.5738 176.7 48.3465C176.684 47.1015 176.904 45.8649 177.349 44.7021C177.768 43.6338 178.397 42.6604 179.199 41.8395Z" fill="#262626"/>
<path d="M202.728 35.5957H198.874V61.0069H202.728V35.5957Z" fill="#262626"/>
<path d="M227.952 39.0975C226.831 37.9093 225.488 36.9517 223.999 36.2789C222.48 35.5984 220.831 35.2529 219.166 35.266C217.526 35.2585 215.904 35.6039 214.41 36.2789C212.911 36.956 211.554 37.9126 210.413 39.0975C209.254 40.2936 208.331 41.6982 207.694 43.2372C207.033 44.8319 206.7 46.543 206.714 48.2688C206.687 51.6918 207.989 54.9916 210.347 57.4732C211.471 58.661 212.813 59.6216 214.3 60.3028C215.825 60.9782 217.475 61.3271 219.144 61.3271C220.813 61.3271 222.463 60.9782 223.988 60.3028C225.474 59.6343 226.816 58.6847 227.941 57.5063C229.088 56.3026 229.992 54.8897 230.605 53.3444C231.252 51.7233 231.577 49.992 231.563 48.2468C231.582 44.8353 230.28 41.5488 227.93 39.0754L227.952 39.0975ZM226.466 52.9481C225.758 54.3152 224.716 55.4815 223.438 56.3392C222.173 57.1667 220.694 57.6075 219.183 57.6075C217.671 57.6075 216.192 57.1667 214.927 56.3392C213.637 55.4863 212.581 54.3244 211.855 52.9591C211.101 51.5324 210.707 49.9431 210.707 48.3294C210.707 46.7157 211.101 45.1264 211.855 43.6997C212.578 42.3389 213.626 41.1777 214.905 40.3196C216.166 39.4862 217.644 39.0419 219.155 39.0419C220.666 39.0419 222.144 39.4862 223.405 40.3196C224.711 41.1986 225.777 42.3881 226.51 43.7814C227.242 45.1747 227.616 46.728 227.6 48.3019C227.614 49.9208 227.224 51.5178 226.466 52.9481Z" fill="#262626"/>
<path d="M221.346 28.0752H218.759L217.889 32.9857H219.926L221.346 28.0752Z" fill="#262626"/>
<path d="M250.676 35.5957V55.7771L240.987 35.5957H235.57V60.9738H239.424V40.4621L249.476 61.0069H254.563V35.5957H250.676Z" fill="#262626"/>
</g>
<defs>
<clipPath id="clip0_1994_6509">
<rect width="254.563" height="61.403" fill="white"/>
</clipPath>
</defs>
</svg>
