<svg width="70" height="64" viewBox="0 0 70 64" fill="none" xmlns="http://www.w3.org/2000/svg">
<g clip-path="url(#clip0_1994_6251)">
<path d="M4.46234 0.664481C5.07494 0.664334 5.68575 0.730624 6.28405 0.862187C6.65657 0.939932 7.02071 1.05343 7.37143 1.20111L7.11724 1.51179C6.78441 1.38529 6.44499 1.27686 6.10047 1.18699C5.60164 1.05939 5.09003 0.988336 4.57531 0.975161C4.09789 0.977949 3.62297 1.04444 3.16313 1.17287C2.6887 1.29959 2.25551 1.54783 1.90629 1.89308C1.54733 2.27616 1.34567 2.78029 1.34142 3.30526C1.33669 3.82161 1.51704 4.32259 1.84981 4.71744C2.18665 5.07976 2.60214 5.35997 3.06428 5.5365C3.5255 5.73131 3.99691 5.90102 4.47646 6.04489C5.20326 6.23135 5.91212 6.48182 6.59473 6.79334C7.05007 6.99388 7.44106 7.31645 7.72447 7.72538C7.99754 8.21615 8.12491 8.77463 8.09164 9.33527C8.10439 9.91776 7.93668 10.4899 7.6115 10.9734C7.25124 11.4842 6.76468 11.893 6.19932 12.1596C5.62465 12.4989 4.97395 12.6882 4.307 12.7104C3.56502 12.7078 2.83083 12.559 2.14636 12.2726C1.69914 12.0882 1.27303 11.8562 0.875398 11.5806L1.15784 11.3123C1.56272 11.5886 1.99881 11.8161 2.45704 11.9902C3.03242 12.2208 3.64486 12.3452 4.26463 12.3573C4.82996 12.3612 5.38921 12.2407 5.90276 12.0043C6.39527 11.7808 6.82289 11.4358 7.14548 11.0016C7.47656 10.5506 7.65915 10.0077 7.66799 9.44824C7.68518 9.09189 7.61879 8.73646 7.47412 8.41034C7.32945 8.08422 7.11051 7.79646 6.8348 7.57004C6.178 7.08055 5.42075 6.74293 4.61768 6.58152C3.86724 6.40054 3.13821 6.14018 2.44292 5.80482C1.93116 5.56727 1.48876 5.20264 1.15784 4.74568C0.876443 4.29538 0.761533 3.7608 0.833034 3.23465C0.85586 2.87594 0.957555 2.52668 1.13087 2.21179C1.30418 1.8969 1.54484 1.62413 1.83568 1.41294C2.6169 0.912306 3.53586 0.670215 4.46234 0.720969V0.664481ZM4.46234 0.156097C3.41826 0.106504 2.38522 0.388241 1.51088 0.961039C1.14118 1.22493 0.836056 1.56911 0.618382 1.96777C0.400709 2.36643 0.276144 2.80922 0.254041 3.26289C0.168376 3.9004 0.302889 4.54805 0.63533 5.09873C1.01939 5.63456 1.5349 6.06253 2.13224 6.34144C2.86792 6.69626 3.63964 6.97087 4.43409 7.16051C5.15829 7.30291 5.84266 7.60172 6.43939 8.03606C6.64903 8.20478 6.81586 8.42063 6.92629 8.66603C7.03672 8.91143 7.08763 9.17944 7.07487 9.44824C7.06997 9.89048 6.92676 10.3201 6.66534 10.6768C6.39727 11.0334 6.04237 11.3154 5.63445 11.4959C5.19161 11.6985 4.70919 11.7998 4.22227 11.7925C3.67034 11.7831 3.12476 11.673 2.61238 11.4677C2.05574 11.2601 1.53603 10.9645 1.07311 10.5921L-0.0566406 11.623C0.515706 12.1261 1.17009 12.5273 1.87805 12.8092C2.6292 13.125 3.43567 13.2883 4.25051 13.2894C4.9922 13.2969 5.7244 13.1224 6.3829 12.781C7.01313 12.4511 7.54803 11.9648 7.9363 11.3688C8.32364 10.7882 8.52555 10.1037 8.5153 9.40588C8.54917 8.73407 8.38728 8.06688 8.04928 7.48531C7.69557 6.98209 7.20568 6.59019 6.6371 6.35557C5.96138 6.06219 5.26226 5.826 4.54707 5.64948C4.06767 5.51617 3.59619 5.35586 3.13489 5.16934C2.75318 5.02314 2.41014 4.79123 2.13224 4.49149C1.87588 4.18345 1.7448 3.79023 1.76507 3.38999C1.76017 2.99739 1.90686 2.61802 2.17461 2.33085C2.45205 2.05299 2.79791 1.85327 3.17725 1.75186C3.60047 1.63592 4.03766 1.5789 4.47646 1.5824C4.95321 1.59401 5.42704 1.66035 5.88864 1.7801C6.34194 1.89688 6.7857 2.04795 7.21609 2.232L8.19049 1.04577C7.59824 0.700885 6.95463 0.452974 6.28405 0.311436C5.66718 0.174964 5.03762 0.103962 4.40585 0.0996094L4.46234 0.156097Z" fill="#262626"/>
<path d="M16.6495 0.565345C17.4146 0.562914 18.1711 0.726739 18.8666 1.04549C19.5585 1.36529 20.182 1.81607 20.7025 2.37293C21.2329 2.94072 21.6541 3.60134 21.9452 4.32174C22.247 5.06629 22.4005 5.86259 22.3971 6.66596C22.4024 7.48783 22.249 8.30299 21.9452 9.06667C21.6579 9.78482 21.2361 10.4415 20.7025 11.0014C20.1803 11.5455 19.5566 11.982 18.8666 12.2864C18.1598 12.5915 17.3981 12.7488 16.6283 12.7488C15.8585 12.7488 15.0968 12.5915 14.39 12.2864C13.6984 11.9724 13.0748 11.5263 12.5542 10.9731C11.4465 9.80989 10.8286 8.26517 10.8286 6.6589C10.8286 5.05263 11.4465 3.50791 12.5542 2.34469C13.087 1.79313 13.7195 1.3475 14.4183 1.03136C15.1064 0.721868 15.8527 0.562981 16.6071 0.565345H16.6495ZM16.6071 12.5265C17.3439 12.5335 18.0728 12.3742 18.7395 12.0605C19.387 11.7469 19.9674 11.3105 20.4483 10.7754C20.9413 10.2299 21.3291 9.59793 21.5921 8.91133C21.8682 8.19024 22.0071 7.42393 22.0017 6.65184C22.0049 5.88322 21.8611 5.12109 21.578 4.40647C21.3087 3.72723 20.9215 3.10094 20.4342 2.55652C19.9516 2.01721 19.3658 1.58023 18.7113 1.27143C18.0472 0.964971 17.3245 0.806262 16.593 0.806262C15.8616 0.806262 15.1389 0.964971 14.4748 1.27143C13.8203 1.58023 13.2344 2.01721 12.7519 2.55652C12.2643 3.10076 11.8771 3.7271 11.608 4.40647C11.325 5.12109 11.1812 5.88322 11.1844 6.65184C11.1844 8.16768 11.7424 9.63047 12.7519 10.7613C13.2344 11.3006 13.8203 11.7376 14.4748 12.0464C15.1464 12.3603 15.8799 12.5195 16.6213 12.5124L16.6071 12.5265ZM16.6213 -0.0136498C15.7835 -0.0159561 14.955 0.162256 14.1923 0.508857C13.4316 0.847284 12.7416 1.32642 12.1588 1.92104C10.9364 3.18588 10.2572 4.87872 10.2665 6.63772C10.2488 8.39023 10.912 10.0812 12.1164 11.3544C12.6912 11.9521 13.3772 12.4318 14.1358 12.7666C14.9156 13.1055 15.7569 13.2805 16.6071 13.2805C17.4574 13.2805 18.2986 13.1055 19.0785 12.7666C19.8377 12.4328 20.5238 11.9529 21.0979 11.3544C21.7012 10.7463 22.1807 10.0269 22.5101 9.23613C22.8439 8.40102 23.0118 7.50883 23.0043 6.60948C23.0081 5.73336 22.8402 4.86499 22.5101 4.05343C22.1771 3.26043 21.6981 2.53707 21.0979 1.92104C20.5219 1.3247 19.8362 0.8452 19.0785 0.508857C18.3148 0.166692 17.4863 -0.00671386 16.6495 0.000472352L16.6213 -0.0136498ZM16.6213 11.9475C15.9667 11.95 15.32 11.8052 14.7289 11.5239C14.1444 11.2496 13.6209 10.8606 13.1897 10.38C12.7471 9.88161 12.3979 9.30757 12.1588 8.68538C11.904 8.0378 11.7746 7.34772 11.7775 6.65184C11.7733 5.95584 11.9027 5.26549 12.1588 4.6183C12.4012 4.00204 12.7502 3.43321 13.1897 2.93781C13.6305 2.45919 14.1637 2.07487 14.7572 1.80806C15.3481 1.53474 15.9914 1.39317 16.6424 1.39317C17.2935 1.39317 17.9368 1.53474 18.5277 1.80806C19.1121 2.08262 19.6355 2.47158 20.067 2.95193C20.5065 3.44733 20.8554 4.01616 21.0979 4.63242C21.354 5.27961 21.4834 5.96996 21.4792 6.66596C21.4846 7.36536 21.3601 8.05969 21.112 8.71362C20.8754 9.33279 20.5258 9.90262 20.0811 10.3941C19.6474 10.872 19.1245 11.2605 18.5418 11.538C17.9515 11.8212 17.3043 11.9661 16.6495 11.9616L16.6213 11.9475Z" fill="#262626"/>
<path d="M29.7124 0.761611C30.0397 0.744072 30.3671 0.792544 30.6752 0.904144C30.9833 1.01574 31.2658 1.18819 31.5059 1.41121L31.3082 1.69365C31.101 1.48171 30.8524 1.31466 30.5779 1.20291C30.3033 1.09115 30.0087 1.03708 29.7124 1.04405H25.7724V6.53743H27.9896L27.806 6.80574H25.7724V9.72895L25.4335 10.2091V0.761611H29.6701H29.7124ZM29.6701 0.196738H24.8687V12.0449L26.2808 9.91254V7.37061H28.0319L29.0063 5.95843H26.3514V1.72189H29.7265C29.9711 1.71137 30.2147 1.75826 30.4378 1.8588C30.661 1.95935 30.8575 2.11075 31.0116 2.30089C31.1343 2.45529 31.2342 2.6265 31.3082 2.80927L32.2402 1.39709C32.0096 1.09579 31.7275 0.837627 31.407 0.634514C30.8988 0.319307 30.3104 0.157491 29.7124 0.168495L29.6701 0.196738Z" fill="#262626"/>
<path d="M31.5762 12.8225C31.9791 12.6028 32.3381 12.3108 32.6354 11.9611C32.9442 11.6012 33.1879 11.1902 33.3556 10.7466C33.5296 10.2964 33.6158 9.81707 33.6097 9.33444C33.6109 8.74322 33.4654 8.16094 33.1861 7.63982C32.8795 7.06676 32.4325 6.58087 31.8869 6.22764C32.2187 5.83452 32.4943 5.39729 32.706 4.92844C32.8876 4.48041 32.9742 3.99951 32.9601 3.51626C32.9703 2.9077 32.8296 2.30609 32.5506 1.76515C32.4553 1.64048 32.3515 1.52252 32.2399 1.41211L31.3079 2.82429C31.4235 3.10648 31.4811 3.40904 31.4774 3.71396C31.4697 4.0816 31.3854 4.44358 31.2297 4.77673C31.0741 5.10989 30.8506 5.40686 30.5736 5.64865C30.3215 5.86427 30.0015 5.98426 29.6698 5.98757H29.0908L28.1164 7.39975H30.3759C30.6206 7.39367 30.8633 7.44551 31.0841 7.55103C31.305 7.65656 31.4978 7.81279 31.6468 8.00699C31.9662 8.40757 32.136 8.90693 32.127 9.41917C32.126 9.7856 32.044 10.1473 31.8869 10.4783C31.7358 10.8135 31.5143 11.1121 31.2373 11.3539C30.9798 11.5809 30.6485 11.7064 30.3053 11.7069H26.3511V9.88519L24.939 12.0176V13.1191H30.2911C30.7377 13.1305 31.1798 13.0285 31.5762 12.8225Z" fill="#262626"/>
<path d="M37.1262 7.68317H39.2021L42.5349 13.1483H44.2718L40.8967 7.61256C41.4587 7.54367 41.9885 7.31309 42.4219 6.94883C42.8702 6.55769 43.231 6.07652 43.481 5.53665C43.7412 5.02476 43.8767 4.45862 43.8764 3.8844C43.8837 3.24126 43.7334 2.60612 43.4387 2.03445C43.1664 1.47684 42.7645 0.992588 42.2666 0.622265C41.7907 0.276816 41.2164 0.0936213 40.6284 0.0997587H35.6858V13.0636H37.098L37.1262 7.68317ZM37.1262 1.65316H40.5719C40.9182 1.64628 41.2549 1.7669 41.5181 1.99208C41.7877 2.22058 42.0045 2.50484 42.1536 2.82527C42.3117 3.16597 42.3936 3.53705 42.3936 3.91264C42.3893 4.26674 42.3022 4.61491 42.1395 4.92941C41.9761 5.26479 41.7454 5.56285 41.4616 5.80497C41.2042 6.03201 40.8728 6.15752 40.5296 6.15801H37.1262V1.65316Z" fill="#262626"/>
<path d="M53.3098 11.82H47.7741V7.42808H52.2507V6.17124H47.7741V1.51104H53.3098V0.183594H46.3054V13.1474H53.3098V11.82Z" fill="#262626"/>
<path d="M5.33809 17.1854V29.3161H8.76968V29.4573H1.04506V29.3161H4.87206V17.3267H2.24541V17.1854H5.33809ZM5.90296 16.6206H1.66642V17.9057H4.27895V28.7512H0.466064V30.0363H9.34867V28.7512H5.91708V16.6064L5.90296 16.6206Z" fill="#262626"/>
<path d="M16.7485 29.7267C17.3529 29.3422 17.8412 28.8003 18.1606 28.1591C18.1555 28.699 18.3293 29.2254 18.6549 29.6561C18.8254 29.8272 19.0314 29.959 19.2583 30.0419C19.4852 30.1249 19.7275 30.1571 19.9682 30.1362C20.3912 30.1378 20.813 30.0904 21.2251 29.995V28.9782C21.0467 28.9966 20.8668 28.9966 20.6884 28.9782C20.5456 28.9942 20.4013 28.9679 20.2733 28.9026C20.1452 28.8374 20.0392 28.736 19.9682 28.611C19.825 28.2673 19.7622 27.8954 19.7846 27.5237V23.2871C19.8152 22.8392 19.7504 22.3898 19.5946 21.9687C19.4388 21.5476 19.1956 21.1643 18.8808 20.844L18.7679 20.7734L17.8641 22.0726C18.0647 22.5153 18.1567 22.9994 18.1324 23.4848V24.0073H16.5084L15.6752 25.2077H16.4095H18.1324V26.0126C18.1272 26.5063 18.0011 26.9911 17.7652 27.4248C17.5261 27.8857 17.1645 28.2717 16.7202 28.5404C16.257 28.8218 15.7227 28.964 15.1809 28.95C14.8816 28.971 14.5833 28.8961 14.3294 28.7361C14.0754 28.5761 13.8791 28.3394 13.7688 28.0603L12.7661 29.4725C13.3286 29.9569 14.0591 30.2004 14.7997 30.1503C15.4754 30.1859 16.1484 30.0396 16.7485 29.7267Z" fill="#262626"/>
<path d="M15.3928 24.6979C15.128 24.7304 14.8675 24.7919 14.6161 24.8815C14.1594 25.0519 13.7653 25.3573 13.4864 25.757C13.1978 26.2066 13.0548 26.7343 13.0769 27.2681C13.0785 27.4873 13.1069 27.7054 13.1616 27.9177L12.7662 28.4967C12.5943 28.1006 12.5123 27.6714 12.5261 27.2398C12.5261 26.2089 12.8509 24.8532 15.4493 24.6414L15.3928 24.6979ZM16.5649 24.0342H16.0566C13.3075 24.1095 11.933 25.1969 11.933 27.2963C11.8881 28.0735 12.1462 28.8379 12.6532 29.4287L12.7662 29.5276L13.7688 28.1154C13.674 27.8773 13.6261 27.6232 13.6276 27.3669C13.6066 26.949 13.7151 26.5347 13.9383 26.1807C14.1253 25.8475 14.4116 25.5809 14.7574 25.4181C15.0451 25.3199 15.344 25.2582 15.647 25.2345L16.4802 24.0342H16.5649Z" fill="#262626"/>
<path d="M16.1694 20.632C16.791 20.6094 17.4095 20.7302 17.977 20.9851L17.8357 21.1969C17.3427 20.8711 16.7599 20.7081 16.1694 20.7309C15.4991 20.6799 14.8315 20.8593 14.277 21.2393C13.9591 21.4983 13.7276 21.8481 13.6133 22.2419H13.0908C13.3874 21.4652 14.1217 20.6885 16.1976 20.6885L16.1694 20.632ZM16.1976 20.1236C13.9287 20.1236 12.653 21.0039 12.3706 22.7644L14.0652 22.9198C14.0767 22.6967 14.1326 22.4781 14.2296 22.2768C14.3266 22.0756 14.4628 21.8957 14.6301 21.7477C15.08 21.4341 15.6218 21.28 16.1694 21.3099C16.446 21.2858 16.7245 21.3199 16.9872 21.4099C17.2498 21.4999 17.4908 21.6438 17.6945 21.8324C17.7787 21.926 17.8499 22.0305 17.9063 22.1431L18.8101 20.8439C18.0513 20.277 17.1142 20.0014 16.1694 20.0672L16.1976 20.1236Z" fill="#262626"/>
<path d="M1.5814 34.5281V44.6251L0.762343 45.8114V34.5139H1.5814V34.5281ZM2.14628 33.9491H0.18335V46.9129H0.635247L2.04743 44.7946V33.8926L2.14628 33.9491Z" fill="#262626"/>
<path d="M2.1464 46.9122V44.7939L0.677734 46.9122H2.1464Z" fill="#262626"/>
<path d="M6.76444 34.5281L7.49877 36.0673L7.07512 36.6746L6.83504 36.1803L6.0301 34.5281H6.76444ZM5.76179 34.5281V38.5951L4.94272 39.7814V34.5281H5.76179ZM7.17397 33.9632H4.34961V41.6031L6.31254 38.7787V36.4345L6.97627 37.8467L8.14837 36.1662L7.1316 33.8926L7.17397 33.9632Z" fill="#262626"/>
<path d="M12.0741 44.244L8.1765 36.1099L7.00439 37.8045L11.4669 46.913H14.0512V33.9492H12.0741V44.244Z" fill="#262626"/>
<path d="M4.36377 46.8847H6.3267V38.7646L4.36377 41.589V46.8847Z" fill="#262626"/>
<path d="M18.1886 33.9492H16.0845L20.0668 46.913H21.9591L25.9415 33.9492H23.8515L21.013 44.1169L18.1886 33.9492Z" fill="#262626"/>
<path d="M34.9515 35.7851V33.9492H27.9753V46.913H34.9515V45.0772H29.9383V41.3914H34.0195V39.725H29.9383V35.7851H34.9515Z" fill="#262626"/>
<path d="M44.9357 45.19C45.2949 44.5887 45.4927 43.9049 45.51 43.2048C45.5273 42.5046 45.3635 41.8118 45.0345 41.1935C44.6853 40.6726 44.1957 40.2613 43.6223 40.0073C42.9144 39.6754 42.1768 39.4106 41.4193 39.2165C40.9298 39.0659 40.4967 38.9199 40.1201 38.7787C39.7905 38.6635 39.4912 38.4752 39.2446 38.228C39.134 38.1012 39.0506 37.953 38.9995 37.7927C38.9485 37.6324 38.931 37.4633 38.948 37.2959C38.9473 37.1362 38.9781 36.9778 39.0387 36.83C39.0993 36.6822 39.1884 36.5478 39.3011 36.4345C39.5427 36.2068 39.8397 36.0461 40.1625 35.9685C40.5215 35.8727 40.8926 35.8298 41.264 35.8414C41.7093 35.8399 42.1522 35.9066 42.5773 36.0391C42.998 36.1691 43.4086 36.3296 43.8059 36.5192L45.2181 35.107C44.5853 34.7037 43.8949 34.3989 43.1704 34.2032C42.5218 34.0232 41.8524 33.9283 41.1793 33.9208C40.1775 33.8931 39.1915 34.1742 38.3549 34.7257C37.9569 34.9903 37.6234 35.3407 37.379 35.7514C37.1346 36.162 36.9855 36.6223 36.9427 37.0982C36.8266 37.8232 36.9771 38.5657 37.3664 39.1882C37.7896 39.7592 38.361 40.2036 39.0186 40.4733C39.8725 40.8467 40.7558 41.149 41.6594 41.3771C42.1786 41.4918 42.6628 41.7291 43.0716 42.0691C43.2334 42.2106 43.3608 42.3872 43.444 42.5855C43.5272 42.7837 43.564 42.9983 43.5517 43.2129C43.5595 43.4853 43.5021 43.7556 43.3842 44.0013C43.2662 44.2469 43.0913 44.4608 42.8739 44.6251C42.4107 44.9977 41.8299 45.1929 41.2357 45.1759C40.7097 45.167 40.1909 45.0517 39.7106 44.837C39.1867 44.6219 38.7077 44.3105 38.2984 43.919L36.8862 45.3312C37.2551 45.7061 37.6731 46.0292 38.129 46.2915C38.6132 46.578 39.13 46.8055 39.6682 46.9693C40.2033 47.1356 40.7602 47.2212 41.3205 47.2235C42.0534 47.1925 42.7669 46.9789 43.3964 46.6022C44.0214 46.2703 44.5513 45.7842 44.9357 45.19Z" fill="#262626"/>
<path d="M47.3645 35.7568H51.1633V46.913H53.1262V35.7568H56.9108V33.9492H47.3645V35.7568Z" fill="#262626"/>
<path d="M60.9214 33.9492H58.9585V46.913H60.9214V33.9492Z" fill="#262626"/>
<path d="M69.6203 40.5156H63.1384V42.182H69.6203V40.5156Z" fill="#262626"/>
<path d="M11.0572 61.0625C10.6628 61.7586 10.0869 62.3345 9.39087 62.7289C8.44994 63.1997 7.40624 63.4279 6.35468 63.3926C5.58645 63.3958 4.82617 63.2371 4.12344 62.9266C3.74442 62.7586 3.38459 62.5503 3.05018 62.3052L4.46236 62.0793C5.04772 62.3446 5.68376 62.4796 6.32644 62.4747C7.09872 62.4988 7.86773 62.3642 8.58593 62.0793C9.02138 61.8848 9.41109 61.6009 9.72979 61.2461L11.029 61.0484L11.0572 61.0625ZM11.7775 60.3564L9.44736 60.7236C9.16039 61.0822 8.7926 61.3677 8.3741 61.5568C7.7262 61.8063 7.03437 61.9216 6.34056 61.8957C5.76941 61.8972 5.20506 61.7718 4.68831 61.5286H4.57534L1.75098 61.9663L1.84983 62.0793C2.42972 62.6774 3.12038 63.157 3.88337 63.4915C4.65746 63.8322 5.49483 64.0054 6.34056 63.9999C7.48621 64.036 8.62256 63.7835 9.64506 63.2655C10.5838 62.7267 11.3296 61.9067 11.7775 60.9213V60.3988V60.3564Z" fill="#262626"/>
<path d="M7.55542 59.311H9.71605V60.3984C9.63331 60.521 9.54374 60.6389 9.44774 60.7515L11.792 60.3843V57.334H7.55542V59.311Z" fill="#262626"/>
<path d="M3.33247 60.5399C2.94041 60.1282 2.6248 59.65 2.40043 59.1277C2.16779 58.5781 2.04774 57.9875 2.04739 57.3907C2.03916 56.5881 2.23344 55.7964 2.61226 55.0888C2.97295 54.4105 3.49716 53.8329 4.13741 53.4083C4.77274 52.9839 5.51986 52.7578 6.28393 52.7587C6.9861 52.7581 7.67664 52.938 8.28922 53.2812C8.96511 53.6712 9.53678 54.2186 9.9556 54.877L11.6785 53.7473C11.0786 52.7988 10.254 52.013 9.27775 51.4595C8.36286 50.9484 7.33194 50.6809 6.28393 50.6828C5.42744 50.6755 4.57953 50.8538 3.79849 51.2053C3.03802 51.5369 2.35144 52.017 1.77908 52.6175C1.18103 53.2406 0.702384 53.9682 0.366897 54.764C0.0363915 55.5804 -0.131508 56.4535 -0.127369 57.3342C-0.143901 59.016 0.48831 60.6396 1.63786 61.8673L4.46222 61.4295C4.03931 61.1971 3.65762 60.8965 3.33247 60.5399Z" fill="#262626"/>
<path d="M20.2508 50.8389H17.7794L14.9551 59.8909L22.8068 58.6623L20.2508 50.8389ZM18.9939 53.2819L20.7309 58.9307H17.2711L18.9939 53.2819Z" fill="#262626"/>
<path d="M22.3547 59.3123L23.5974 63.2241H22.7077L21.8322 60.3997L21.7051 60.0043H17.7227L22.3547 59.3123ZM16.2682 60.2585V60.4279L15.3927 63.2523H14.503L15.3927 60.4279L16.3247 60.2867L16.2682 60.2585ZM22.8066 58.7051L14.9549 59.9337L13.7122 63.8313H15.8022L16.8048 60.6398H21.3379L22.3406 63.8313H24.4306L22.7925 58.7192L22.8066 58.7051Z" fill="#262626"/>
<path d="M26.7467 58.6051C26.805 58.8656 26.8853 59.1207 26.9868 59.3676C27.2288 59.9629 27.5782 60.5087 28.0177 60.9775C28.4533 61.4558 28.9819 61.8402 29.5711 62.1073C30.1708 62.3743 30.821 62.5092 31.4775 62.5027C32.1802 62.4997 32.8723 62.3304 33.4969 62.0084C34.0213 61.7332 34.4981 61.3756 34.9091 60.9493L35.6152 61.5283C35.1195 62.0664 34.5311 62.5113 33.8782 62.8416C33.1305 63.2059 32.3093 63.3943 31.4775 63.3923C30.7076 63.3973 29.946 63.2334 29.2463 62.9122C28.5636 62.5949 27.9422 62.1599 27.4104 61.6271C26.8739 61.0775 26.4473 60.4304 26.1536 59.7207C26.0174 59.3926 25.9134 59.0521 25.8429 58.7039L26.7467 58.5627V58.6051ZM27.2127 57.9131L25.1792 58.2238C25.2459 58.8108 25.3932 59.3858 25.617 59.9325C25.9485 60.7137 26.4281 61.4234 27.0292 62.0225C27.6086 62.6084 28.2876 63.0866 29.0345 63.4347C29.8099 63.7882 30.6536 63.9666 31.5058 63.9572C32.4209 63.9593 33.3243 63.7515 34.1465 63.35C35.0448 62.8918 35.8345 62.2466 36.4625 61.4577L34.895 60.1585C34.4465 60.7037 33.8946 61.1549 33.271 61.4859C32.7245 61.7651 32.1194 61.9103 31.5058 61.9096C30.9314 61.913 30.363 61.7926 29.8394 61.5565C29.3046 61.3231 28.8239 60.9818 28.4272 60.5539C28.033 60.144 27.7171 59.6653 27.4952 59.1417C27.3414 58.7572 27.2417 58.3532 27.1986 57.9413L27.2127 57.9131Z" fill="#262626"/>
<path d="M28.4412 54.0163C28.8506 53.6105 29.3287 53.2806 29.8534 53.0419C30.3881 52.7821 30.9748 52.6471 31.5692 52.6471C32.1636 52.6471 32.7503 52.7821 33.285 53.0419C33.9084 53.3732 34.4603 53.8243 34.909 54.3693L36.4765 53.056C35.8456 52.2773 35.0561 51.6419 34.1606 51.1919C33.3642 50.8054 32.4934 50.5963 31.6083 50.5793C30.7232 50.5622 29.845 50.7375 29.0343 51.0931C28.2809 51.4297 27.5999 51.9093 27.029 52.5052C26.428 53.1152 25.9487 53.8341 25.6169 54.6235C25.2797 55.4626 25.1118 56.3601 25.1226 57.2643C25.1033 57.5794 25.1033 57.8954 25.1226 58.2105L27.2126 57.8998C27.2007 57.6881 27.2007 57.476 27.2126 57.2643C27.1878 56.656 27.2739 56.0483 27.4668 55.4708C27.69 54.9251 28.0215 54.4303 28.4412 54.0163Z" fill="#262626"/>
<path d="M38.4819 56.2046L40.4449 55.9081V50.8242H38.4819V56.2046Z" fill="#262626"/>
<path d="M39.8658 56.5724V63.2237H39.0468V56.6995L39.8658 56.5724ZM40.4307 55.9087L38.4678 56.2193V63.8027H40.4307V55.8945V55.9087Z" fill="#262626"/>
<path d="M49.9349 46.998H48.6216L48.1838 49.4976H49.2147L49.9349 46.998Z" fill="#262626"/>
<path d="M45.0909 54.949C45.4587 54.2553 45.9923 53.6635 46.6443 53.2261C47.2878 52.8021 48.0414 52.5762 48.812 52.5762C49.5826 52.5762 50.3362 52.8021 50.9797 53.2261C51.3497 53.4743 51.6825 53.7739 51.9682 54.1158L54.1712 53.7769C53.9262 53.3656 53.6373 52.9821 53.3098 52.633C52.7348 52.0356 52.0488 51.5559 51.2904 51.2208C50.5181 50.8728 49.6802 50.6946 48.8332 50.6983C47.9954 50.696 47.167 50.8742 46.4042 51.2208C45.6433 51.5589 44.9533 52.0381 44.3707 52.633C43.7711 53.2387 43.2919 53.9527 42.9585 54.7371C42.8505 55.0037 42.7609 55.2774 42.6902 55.5562L44.9638 55.2032L45.0909 54.949Z" fill="#262626"/>
<path d="M53.8746 54.3825C53.9739 54.566 54.0634 54.7546 54.1429 54.9474C54.4447 55.692 54.5982 56.4883 54.5948 57.2916C54.5994 58.1089 54.446 58.9192 54.1429 59.6782C53.8515 60.3975 53.4248 61.0543 52.8861 61.6129C52.3631 62.1596 51.7398 62.6007 51.0503 62.9121C50.3452 63.2238 49.5828 63.3848 48.812 63.3848C48.0411 63.3848 47.2787 63.2238 46.5736 62.9121C45.8836 62.5953 45.2605 62.1495 44.7378 61.5988C44.0546 60.8675 43.556 59.9837 43.2833 59.0208C43.0107 58.058 42.9719 57.0439 43.1703 56.063L44.1165 55.9218C43.7731 57.2766 43.9442 58.7106 44.5966 59.9465C45.0122 60.7219 45.6139 61.3819 46.3477 61.8671C47.0862 62.3513 47.9501 62.6092 48.8331 62.6092C49.7162 62.6092 50.5801 62.3513 51.3186 61.8671C52.0505 61.3779 52.6478 60.7127 53.0556 59.9324C53.4806 59.1226 53.6989 58.2203 53.691 57.3058C53.7023 56.3846 53.4788 55.4758 53.0414 54.665L52.9708 54.5379L53.8746 54.3967V54.3825ZM54.1712 53.7753L51.9682 54.1142C52.1889 54.3716 52.3829 54.6508 52.5472 54.9474C52.9379 55.6714 53.1372 56.4832 53.1262 57.3058C53.1311 58.1277 52.9322 58.9379 52.5472 59.6641C52.1888 60.3636 51.6593 60.9612 51.0079 61.4011C50.3631 61.8216 49.61 62.0455 48.8402 62.0455C48.0704 62.0455 47.3173 61.8216 46.6725 61.4011C46.0146 60.9664 45.4757 60.3742 45.105 59.6782C44.7425 58.9912 44.5438 58.2297 44.5242 57.4531C44.5046 56.6766 44.6647 55.9061 44.992 55.2016L42.7184 55.5547C42.4166 56.6774 42.4075 57.8587 42.6918 58.9859C42.976 60.1132 43.5443 61.1489 44.3424 61.9942C44.9193 62.5895 45.6047 63.0688 46.3618 63.4064C47.1401 63.7512 47.9819 63.9294 48.8331 63.9294C49.6844 63.9294 50.5262 63.7512 51.3044 63.4064C52.062 63.0697 52.7477 62.5903 53.3239 61.9942C53.9274 61.3863 54.4071 60.6669 54.736 59.8759C55.0674 59.0499 55.2352 58.1675 55.2303 57.2775C55.2341 56.4014 55.0661 55.533 54.736 54.7215C54.597 54.3842 54.4318 54.0585 54.2418 53.7471L54.1712 53.7753Z" fill="#262626"/>
<path d="M64.9038 52.0952L66.8809 51.7845V50.8242H64.9038V52.0952Z" fill="#262626"/>
<path d="M66.3018 52.4479V63.2228H65.4686V52.575L66.3018 52.4479ZM60.526 53.3517L64.3812 61.3729L65.2709 63.2228H64.6495L59.8763 53.4506L60.5401 53.3517H60.526ZM58.5348 53.6624V63.2087H57.7157V53.7754L58.5348 53.6624ZM66.8243 51.7983L64.8472 52.109V61.1469L60.8084 52.6739L57.1367 53.2387V63.7171H59.0996V53.3093L64.2259 63.7877H66.8243V51.7842V51.7983Z" fill="#262626"/>
<path d="M59.9471 50.8242H57.1934V53.2955L60.865 52.7165L59.9471 50.8242Z" fill="#262626"/>
</g>
<defs>
<clipPath id="clip0_1994_6251">
<rect width="69.6205" height="64" fill="white"/>
</clipPath>
</defs>
</svg>
