<svg width="255" height="62" viewBox="0 0 255 62" fill="none" xmlns="http://www.w3.org/2000/svg">
<g clip-path="url(#clip0_1994_5911)">
<path d="M15.7282 22.4438C16.4336 21.304 16.8264 19.9986 16.867 18.6588C16.9077 17.319 16.5948 15.9922 15.9598 14.8117C15.2911 13.8439 14.3672 13.0804 13.2908 12.606C11.8906 11.9701 10.4363 11.4607 8.94537 11.084C8.00579 10.8192 7.08164 10.5026 6.17713 10.1355C5.43014 9.85026 4.75854 9.39748 4.21398 8.812C3.69761 8.1972 3.43703 7.40759 3.48607 6.60621C3.47197 5.82963 3.7607 5.07807 4.29116 4.51072C4.84531 3.97615 5.52974 3.59592 6.27639 3.40783C7.10936 3.176 7.97049 3.06094 8.83511 3.06593C9.77156 3.07332 10.7041 3.18803 11.6144 3.40783C12.5072 3.6383 13.3811 3.93695 14.2282 4.30117L16.1583 1.97408C15.0216 1.32033 13.79 0.847739 12.5077 0.573383C11.2944 0.303955 10.0559 0.16347 8.81303 0.154279C6.76119 0.0535097 4.73022 0.605685 3.01183 1.73144C2.2869 2.25039 1.68899 2.92686 1.26301 3.71004C0.837039 4.49322 0.594066 5.36272 0.552366 6.25328C0.388794 7.54858 0.685477 8.8602 1.39058 9.95902C2.14342 11.0193 3.15788 11.8666 4.33528 12.4185C5.77641 13.1191 7.28872 13.6626 8.84611 14.0397C10.2637 14.3171 11.6036 14.9005 12.7724 15.7492C13.1887 16.0821 13.5185 16.5107 13.7335 16.9984C13.9486 17.4862 14.0427 18.0187 14.0077 18.5506C13.9985 19.4201 13.7169 20.2648 13.2026 20.9659C12.6791 21.6697 11.9843 22.2278 11.1842 22.5872C10.3228 22.9812 9.38526 23.1808 8.43805 23.1717C7.35279 23.153 6.28009 22.9362 5.27275 22.532C4.17912 22.1206 3.15879 21.5359 2.25083 20.8004L0.0450439 22.8408C1.17092 23.8284 2.4579 24.6156 3.85001 25.1679C5.33008 25.7922 6.91994 26.1147 8.5263 26.1164C9.98814 26.132 11.4313 25.7873 12.7283 25.1128C13.9352 24.4872 14.9665 23.5697 15.7282 22.4438Z" fill="white"/>
<path d="M39.4282 20.4269C38.5727 21.3504 37.5465 22.0994 36.4062 22.6327C35.2486 23.1815 33.9816 23.4606 32.7005 23.4489C31.4124 23.4597 30.1384 23.1807 28.9727 22.6327C27.8287 22.1059 26.8013 21.356 25.9508 20.4269C25.0783 19.4549 24.3872 18.3343 23.9104 17.1182C23.4087 15.8434 23.1542 14.4847 23.1605 13.1147C23.1538 11.7518 23.4084 10.4003 23.9104 9.13329C24.3893 7.91829 25.0802 6.798 25.9508 5.82461C26.8017 4.896 27.829 4.14615 28.9727 3.61882C30.1385 3.07112 31.4125 2.79222 32.7005 2.80269H33.2078L31.719 0.100586C30.4115 0.204168 29.1318 0.532503 27.936 1.07114C26.4343 1.74941 25.0756 2.70763 23.9325 3.89454C21.5386 6.37817 20.2089 9.69831 20.2268 13.1478C20.1911 16.588 21.4965 19.907 23.8663 22.4011C24.9887 23.5922 26.3339 24.5515 27.8257 25.2245C29.3564 25.8925 31.0084 26.2373 32.6785 26.2373C34.3485 26.2373 36.0006 25.8925 37.5312 25.2245C39.0203 24.5663 40.3655 23.622 41.4906 22.4452C42.0316 21.8775 42.519 21.2609 42.9464 20.6034L41.27 17.5484C40.8181 18.6024 40.1958 19.5749 39.4282 20.4269Z" fill="white"/>
<path d="M32.7002 0.572065C34.2863 0.561672 35.8557 0.896632 37.2993 1.55366C38.7245 2.20862 40.0092 3.13375 41.0822 4.2778C42.1742 5.44352 43.0416 6.80076 43.641 8.28131C44.2586 9.80511 44.5733 11.4347 44.5674 13.0789C44.5795 14.7666 44.2649 16.4407 43.641 18.0088C43.4478 18.481 43.2268 18.9414 42.9792 19.3874L41.8763 17.4684L41.9425 17.303C42.4599 15.9551 42.7217 14.5226 42.7145 13.0789C42.7217 11.6449 42.4559 10.2226 41.9315 8.88789C41.4298 7.60887 40.7054 6.42889 39.7918 5.40274C38.8954 4.40027 37.8081 3.58666 36.5935 3.00948C35.625 2.55338 34.583 2.27329 33.5164 2.18231L32.623 0.55002L32.7002 0.572065ZM32.623 -0.023473C32.2922 -0.023473 31.9723 -0.023473 31.6415 -0.023473L33.1194 2.6786C34.2234 2.73277 35.3063 3.00254 36.3067 3.47268C37.4504 4.00027 38.4776 4.75008 39.3286 5.67847C40.1993 6.65186 40.8901 7.77215 41.369 8.98715C41.8708 10.2543 42.1254 11.6058 42.119 12.9686C42.1281 14.3404 41.8813 15.7019 41.3911 16.9831C41.3911 17.1155 41.2697 17.2478 41.2146 17.3802L42.891 20.4352C43.3698 19.7045 43.7761 18.9288 44.1042 18.1191C44.7551 16.4808 45.081 14.7314 45.0637 12.9686C45.0748 11.2493 44.7488 9.54438 44.1042 7.95042C43.4805 6.40412 42.5755 4.98683 41.4352 3.77045C40.3132 2.57043 38.9684 1.60024 37.4758 0.91396C35.9568 0.219327 34.3043 -0.134525 32.6341 -0.122763L32.623 -0.023473Z" fill="white"/>
<path d="M58.3764 0.939087C59.4414 0.91353 60.491 1.19699 61.3983 1.75522C62.2631 2.29864 62.9704 3.05915 63.4497 3.961C63.9561 4.9384 64.2137 6.02559 64.1997 7.1263C64.2131 7.97258 64.0556 8.81286 63.7365 9.59677C63.3418 10.4642 62.8297 11.2733 62.2145 12.0011L61.8174 12.4864L62.3468 12.8393C63.3338 13.4628 64.149 14.3235 64.718 15.3429C65.2154 16.2841 65.473 17.3334 65.468 18.3979C65.4633 19.2435 65.3025 20.0811 64.9937 20.8683C64.6865 21.6737 64.2425 22.4199 63.6813 23.0741C63.1387 23.7065 62.4845 24.2336 61.7512 24.6292C61.0742 24.9973 60.316 25.1906 59.5454 25.1917H49.4319V0.928047H58.3874L58.3764 0.939087ZM51.1745 12.2327H58.2551C59.064 12.243 59.8488 11.9566 60.4609 11.4276C61.0793 10.8913 61.5763 10.2292 61.9186 9.4856C62.261 8.74198 62.4408 7.93388 62.4461 7.11526C62.4568 5.98091 62.0662 4.8793 61.3432 4.00513C60.9872 3.56225 60.5324 3.20889 60.0153 2.97332C59.4982 2.73776 58.9332 2.62652 58.3654 2.64856H51.1745V12.2327ZM51.1745 23.4381H59.5344C60.3463 23.4423 61.1313 23.1479 61.7402 22.6109C62.3444 22.0874 62.8295 21.4405 63.1629 20.714C63.5056 19.9896 63.6863 19.1992 63.6923 18.3979C63.7024 17.2536 63.3123 16.1418 62.5894 15.2546C62.2414 14.8054 61.7924 14.4445 61.2789 14.2012C60.7654 13.9578 60.2018 13.8389 59.6337 13.854H51.1634V23.4381H51.1745ZM58.3543 0.277344H48.8253V25.7321H59.5124C60.3838 25.7318 61.241 25.5118 62.0049 25.0924C62.8015 24.664 63.5119 24.0919 64.1004 23.405C64.7093 22.6995 65.1907 21.8934 65.5231 21.0228C65.8553 20.172 66.0273 19.2671 66.0305 18.3538C66.035 17.2005 65.7547 16.0639 65.2143 15.0451C64.6023 13.9405 63.7224 13.0076 62.6556 12.332C63.3038 11.5607 63.842 10.7033 64.2548 9.78428C64.604 8.93073 64.7765 8.0153 64.7621 7.09322C64.7789 5.89636 64.4985 4.71403 63.946 3.65219C63.4392 2.65308 62.6785 1.80487 61.7402 1.19273C60.7468 0.580389 59.5983 0.266496 58.4315 0.288383L58.3543 0.277344ZM51.737 11.6261V3.18897H58.3543C58.8321 3.16381 59.3091 3.25042 59.7475 3.44187C60.1859 3.63332 60.5737 3.92434 60.88 4.29186C61.5021 5.06982 61.8302 6.04222 61.8064 7.03809C61.8001 7.77314 61.6375 8.49843 61.3295 9.16585C61.0214 9.83328 60.575 10.4275 60.0197 10.9092C59.5259 11.3434 58.8906 11.5826 58.233 11.582L51.737 11.6261ZM51.737 22.8315V14.4385H59.6337C60.1144 14.4242 60.5917 14.5237 61.0268 14.7288C61.4618 14.9338 61.8423 15.2387 62.1373 15.6186C62.768 16.406 63.1036 17.3892 63.0858 18.3979C63.0822 19.1155 62.9203 19.8235 62.6115 20.4713C62.3161 21.1255 61.8836 21.7085 61.3432 22.1808C60.8441 22.6306 60.1953 22.8783 59.5234 22.8756L51.737 22.8315Z" fill="white"/>
<path d="M79.7944 0.935984C80.8291 0.924027 81.8395 1.24922 82.673 1.86241C83.5725 2.51778 84.3054 3.37534 84.8126 4.36597C85.3515 5.40865 85.6279 6.56712 85.6177 7.74082C85.6149 8.77583 85.3694 9.79576 84.9008 10.7186C84.4319 11.6677 83.7709 12.5089 82.9597 13.1891C82.195 13.8333 81.2606 14.243 80.2687 14.3692L79.3974 14.4795L79.8606 15.2295L85.9486 25.2327H83.8751L77.5004 14.7773L77.335 14.5016H72.3609V25.2327H70.6183V0.96907H79.7503L79.7944 0.935984ZM72.3058 12.748H79.5738C80.3857 12.7522 81.1707 12.4578 81.7796 11.9208C82.4129 11.4008 82.9312 10.7548 83.3016 10.0238C83.6587 9.34199 83.8549 8.58744 83.8751 7.81803C83.8705 7.00237 83.6899 6.1973 83.3457 5.45782C83.0195 4.7238 82.5334 4.07195 81.923 3.54984C81.3078 3.02608 80.5251 2.7404 79.7172 2.74471H72.383V12.8031L72.3058 12.748ZM79.8275 0.450708H70.0669V25.9055H72.9344V15.1743H77.0041L83.5553 25.9055H86.9743L80.3569 15.031C81.4554 14.8902 82.4896 14.4343 83.3347 13.7185C84.211 12.9885 84.9248 12.0831 85.4302 11.0605C85.9412 10.0598 86.2095 8.95276 86.2133 7.82907C86.2257 6.56279 85.9265 5.31286 85.342 4.1895C84.7979 3.11629 84.0081 2.18672 83.0369 1.47639C82.1032 0.792924 80.9736 0.429303 79.8165 0.439669L79.8275 0.450708ZM72.9565 12.2296V3.31824H79.7172C80.3959 3.31061 81.0543 3.54966 81.5701 3.99099C82.1155 4.45865 82.549 5.04285 82.8384 5.70046C83.1489 6.36722 83.3107 7.09355 83.3127 7.82907C83.3034 8.52519 83.1296 9.20924 82.8053 9.8253C82.4859 10.4798 82.0354 11.0616 81.4818 11.5348C80.9738 11.9842 80.3183 12.2315 79.64 12.2296H72.9565Z" fill="white"/>
<path d="M104.124 0.938581V2.40541H93.2276V12.6844H102.051V14.0078H93.2276V23.7795H99.3377L98.3451 25.2463H91.4961V0.982672H104.091L104.124 0.938581ZM104.665 0.40918H90.9557V25.8639H98.6759L100.441 23.2501H93.8232V14.6365H102.646V12.166H93.8232V3.03407H104.698V0.420219L104.665 0.40918Z" fill="white"/>
<path d="M104.697 23.2051H100.44L98.6755 25.8189H104.697V23.2051Z" fill="white"/>
<path d="M126.105 0.363281H123.238V25.8181H126.105V0.363281Z" fill="white"/>
<path d="M136.086 14.3264C134.443 14.5074 132.899 15.2021 131.674 16.3116C131.126 16.8733 130.701 17.5427 130.426 18.2775C130.15 19.0123 130.031 19.7964 130.075 20.5798C130.027 21.3311 130.156 22.0832 130.453 22.775C130.75 23.4668 131.206 24.0788 131.784 24.5612C133.005 25.4973 134.503 26.0016 136.041 25.995C137.135 26.0128 138.224 25.864 139.273 25.5538C140.343 25.2469 141.351 24.7541 142.251 24.098V25.8075H145.162V16.6425C145.162 15.5028 145.137 14.4367 145.085 13.4441C145.054 12.5424 144.875 11.6519 144.556 10.8081C144.228 10.0165 143.646 9.3567 142.901 8.93324C142.041 8.33545 141.064 7.92583 140.034 7.73109C138.919 7.51169 137.775 7.47443 136.648 7.6208C135.5 7.77233 134.384 8.10356 133.339 8.60236C132.272 9.10035 131.333 9.83602 130.593 10.753L132.38 12.639C132.843 11.9358 133.482 11.3656 134.233 10.9846C135.031 10.5608 135.897 10.2773 136.791 10.1464C137.656 9.99498 138.541 9.99498 139.405 10.1464C140.169 10.2829 140.88 10.6306 141.457 11.15C141.727 11.4095 141.939 11.7239 142.078 12.072C142.217 12.4201 142.279 12.794 142.262 13.1684V14.4808C140.226 14.0849 138.138 14.0327 136.086 14.3264ZM142.229 21.5283C141.571 22.0151 140.847 22.4051 140.078 22.6863C139.273 22.9973 138.432 23.2048 137.575 23.3039C136.792 23.402 135.999 23.376 135.225 23.2267C134.572 23.1127 133.966 22.8098 133.483 22.3554C133.251 22.1151 133.071 21.8293 132.956 21.5161C132.84 21.2029 132.79 20.869 132.81 20.5357C132.758 19.7468 132.984 18.9647 133.45 18.3257C133.916 17.6868 134.591 17.2315 135.358 17.0395C137.601 16.4523 139.944 16.3545 142.229 16.7528V21.5283Z" fill="white"/>
<path d="M4.22414 35.6572H0.364014V61.112H4.22414V35.6572Z" fill="white"/>
<path d="M23.7126 55.8733L14.0072 35.6572H8.58093V61.0789H12.4411V40.532L22.5105 61.112H27.6058V35.6572H23.7126V55.8733Z" fill="white"/>
<path d="M41.2703 55.6196L35.7117 35.6572H31.5979L39.4174 61.112H43.1342L50.9537 35.6572H46.8399L41.2703 55.6196Z" fill="white"/>
<path d="M68.0929 36.2286V38.699H58.233V47.2575L55.5309 42.3165V36.2396H68.0929V36.2286ZM66.229 47.5222V49.728H59.6116L58.4205 47.5222H66.24H66.229ZM68.6664 35.5999H54.9574V42.3937L59.2477 50.2132H66.7584V46.9046H58.7624V39.1843H68.6223V35.5889L68.6664 35.5999Z" fill="white"/>
<path d="M68.0931 58.0901V60.5385H65.5234L64.1778 58.0901H68.0931ZM68.6666 57.5166H63.2073L65.1815 61.112H68.6666V57.5166Z" fill="white"/>
<path d="M58.8058 57.5157V50.2807H59.2359L54.9457 42.4502V61.1111H65.1695L63.1953 57.5157H58.8058Z" fill="white"/>
<path d="M80.8866 36.0079C82.1578 36.0214 83.4219 36.1994 84.6474 36.5373C85.8048 36.8431 86.9171 37.2992 87.9561 37.8939L86.004 39.9784C85.322 39.6721 84.6222 39.407 83.9085 39.1843C83.0238 38.9032 82.1016 38.7582 81.1733 38.7541H80.8976C80.2058 38.7507 79.5163 38.836 78.8462 39.0078C78.1138 39.1992 77.4444 39.5795 76.9051 40.1107C76.6313 40.3842 76.4144 40.7092 76.2667 41.067C76.1191 41.4247 76.0437 41.8082 76.0449 42.1952C76.0144 42.5936 76.064 42.994 76.1909 43.3729C76.3178 43.7518 76.5194 44.1014 76.7838 44.401C77.3309 44.9468 77.9946 45.3615 78.7249 45.6141C79.4638 45.8899 80.3461 46.1877 81.3388 46.4854C82.1439 46.706 82.9048 46.9486 83.6328 47.2023L82.0556 49.5404C80.3235 49.0987 78.6304 48.5159 76.9933 47.7979C75.8019 47.3068 74.7653 46.5028 73.9935 45.4708C73.3214 44.3642 73.0671 43.0537 73.2766 41.7761C73.3322 40.9313 73.5759 40.1095 73.99 39.371C74.4041 38.6326 74.978 37.996 75.6699 37.5079C77.2394 36.48 79.0888 35.9637 80.9638 36.03L80.8866 36.0079ZM80.9638 35.4565C78.9742 35.3871 77.0124 35.9383 75.35 37.0336C74.5922 37.5696 73.9627 38.2671 73.5069 39.0757C73.051 39.8843 72.7803 40.784 72.7141 41.7099C72.4839 43.1276 72.7737 44.5808 73.5303 45.8016C74.36 46.9195 75.4766 47.7922 76.7618 48.3273C78.4374 49.0647 80.1712 49.6623 81.9453 50.114L82.2983 50.2243L84.5041 46.9156C83.5162 46.5281 82.5073 46.1967 81.4821 45.9229C80.5116 45.6288 79.6587 45.3458 78.9234 45.0737C78.2695 44.8434 77.6771 44.4661 77.1919 43.9708C76.9763 43.7229 76.8134 43.4338 76.7129 43.1209C76.6124 42.8081 76.5765 42.4782 76.6073 42.1511C76.606 41.8379 76.6667 41.5275 76.7859 41.2378C76.9052 40.9482 77.0806 40.6851 77.3022 40.4636C77.7754 40.0168 78.357 39.7013 78.9896 39.5482C79.6125 39.3857 80.2538 39.3041 80.8976 39.3056H81.0961C81.9716 39.3057 82.8419 39.4396 83.6769 39.7026C84.5002 39.9602 85.3038 40.2772 86.0812 40.6511L88.8053 37.7395C87.5654 36.9439 86.2118 36.3415 84.7908 35.9528C83.5188 35.6006 82.2064 35.4152 80.8866 35.4014L80.9638 35.4565Z" fill="white"/>
<path d="M75.2177 55.785C75.7568 56.2389 76.345 56.631 76.9713 56.9541L75.361 59.3363L75.0302 59.1598C74.3512 58.7639 73.7155 58.2982 73.1332 57.7702L75.2177 55.785ZM75.2177 55.002L72.2729 57.7702C72.9962 58.5065 73.8161 59.1409 74.7103 59.6562C74.975 59.8106 75.2618 59.9429 75.5375 60.0753L77.7433 56.7666C76.7801 56.3479 75.8988 55.7616 75.1405 55.035L75.2177 55.002Z" fill="white"/>
<path d="M85.7494 47.5237C85.3414 47.3252 84.9003 47.1377 84.4481 46.9502L82.2423 50.2589C83.1015 50.5032 83.8986 50.928 84.5804 51.5051C84.8927 51.779 85.14 52.1192 85.3041 52.5008C85.4681 52.8824 85.545 53.2958 85.5289 53.7109C85.5358 54.232 85.4195 54.7474 85.1896 55.215C84.9596 55.6826 84.6224 56.0893 84.2054 56.402C83.2979 57.142 82.1557 57.5332 80.985 57.5049C79.95 57.484 78.9298 57.2552 77.9851 56.8321L77.8528 56.7549L75.647 60.0636C76.3551 60.4273 77.0931 60.7299 77.8528 60.968C78.9244 61.2989 80.0399 61.4662 81.1614 61.4643C82.6273 61.48 84.0731 61.1233 85.3635 60.4276C86.5987 59.7704 87.6434 58.8055 88.3964 57.6262C89.1004 56.4463 89.4886 55.1049 89.5233 53.7314C89.5581 52.3579 89.2383 50.9986 88.5949 49.7846C87.8804 48.776 86.8934 47.9918 85.7494 47.5237Z" fill="white"/>
<path d="M93.0187 39.2196H100.474V61.112H104.334V39.2196H111.79V35.6572H93.0187V39.2196Z" fill="white"/>
<path d="M119.653 35.6572H115.793V61.112H119.653V35.6572Z" fill="white"/>
<path d="M138.446 52.2433H142.703V54.394C142.077 55.4215 141.16 56.2393 140.067 56.7431C138.799 57.2345 137.445 57.4634 136.086 57.4159C134.944 57.4338 133.812 57.1924 132.777 56.71C131.769 56.2345 130.862 55.5678 130.108 54.7469C129.333 53.9133 128.716 52.9453 128.288 51.8904C127.859 50.8401 127.638 49.7164 127.638 48.5817C127.619 47.0057 127.999 45.4505 128.74 44.0599C129.449 42.7243 130.48 41.587 131.74 40.7512C133.012 39.9107 134.507 39.4726 136.031 39.4939C137.405 39.4911 138.756 39.8404 139.957 40.5086C141.296 41.2663 142.431 42.3372 143.266 43.6297L146.651 41.424C145.475 39.563 143.857 38.0211 141.942 36.9352C140.144 35.9366 138.12 35.4163 136.064 35.4242C134.376 35.4104 132.705 35.7642 131.167 36.4609C129.668 37.1409 128.321 38.1161 127.207 39.3285C126.072 40.5635 125.172 41.9949 124.55 43.5525C123.906 45.1544 123.58 46.8663 123.59 48.5928C123.556 51.9988 124.868 55.2806 127.241 57.7247C128.375 58.9008 129.727 59.8448 131.222 60.504C132.747 61.1773 134.397 61.5194 136.064 61.5076C138.315 61.5829 140.549 61.0898 142.56 60.0739C144.408 59.0194 145.878 57.4105 146.762 55.4748V48.4935H138.446V52.2433Z" fill="white"/>
<path d="M158.563 35.6572L150.49 61.0238H154.604L156.567 54.7704H165.478L167.442 61.0238H171.533L163.427 35.6572H158.563ZM157.582 51.5168L161.034 40.4879L164.453 51.5168H157.582Z" fill="white"/>
<path d="M179.507 41.9114C180.293 41.1219 181.211 40.4761 182.22 40.0034C183.278 39.5162 184.434 39.2751 185.599 39.298C186.764 39.3209 187.909 39.6073 188.947 40.1357C190.171 40.7888 191.255 41.6771 192.135 42.7496L195.223 40.1688C193.986 38.6364 192.437 37.3846 190.679 36.4962C189.114 35.7379 187.403 35.3284 185.665 35.296C183.926 35.2637 182.201 35.6092 180.609 36.3087C179.134 36.9693 177.801 37.9094 176.683 39.077C175.531 40.2845 174.618 41.699 173.992 43.2459C172.683 46.589 172.683 50.303 173.992 53.6462C174.62 55.1694 175.533 56.5583 176.683 57.7379C177.826 58.8803 179.163 59.8102 180.632 60.4841C182.153 61.1821 183.81 61.536 185.484 61.5208C187.285 61.5232 189.062 61.1119 190.679 60.3187C192.443 59.4253 193.993 58.1612 195.223 56.613L192.135 54.0653C191.255 55.1378 190.171 56.026 188.947 56.6791C187.872 57.2307 186.681 57.5181 185.473 57.5173C184.333 57.5291 183.204 57.2919 182.165 56.8225C181.142 56.3598 180.226 55.6916 179.473 54.8594C178.697 54.0352 178.08 53.0742 177.654 52.0249C177.205 50.8802 176.984 49.6589 177.003 48.4295C176.987 47.1824 177.208 45.9437 177.654 44.7789C178.073 43.7088 178.703 42.7337 179.507 41.9114Z" fill="white"/>
<path d="M203.076 35.6572H199.216V61.112H203.076V35.6572Z" fill="white"/>
<path d="M228.343 39.1646C227.22 37.9743 225.875 37.0152 224.384 36.3412C222.861 35.6595 221.21 35.3135 219.542 35.3265C217.9 35.319 216.275 35.6651 214.778 36.3412C213.276 37.0194 211.917 37.9777 210.774 39.1646C209.613 40.3628 208.688 41.7698 208.05 43.3115C207.389 44.9089 207.055 46.6229 207.068 48.3517C207.041 51.7805 208.346 55.086 210.708 57.5719C211.834 58.7617 213.178 59.7239 214.667 60.4063C216.196 61.0829 217.849 61.4324 219.52 61.4324C221.191 61.4324 222.844 61.0829 224.373 60.4063C225.861 59.7367 227.205 58.7854 228.332 57.605C229.481 56.3992 230.387 54.9839 231.001 53.436C231.649 51.8121 231.974 50.0779 231.961 48.3297C231.979 44.9122 230.675 41.6201 228.321 39.1425L228.343 39.1646ZM226.854 53.039C226.145 54.4084 225.102 55.5768 223.821 56.4359C222.554 57.2648 221.073 57.7064 219.559 57.7064C218.044 57.7064 216.563 57.2648 215.296 56.4359C214.004 55.5816 212.946 54.4176 212.219 53.05C211.464 51.6208 211.069 50.0288 211.069 48.4123C211.069 46.7959 211.464 45.2039 212.219 43.7747C212.943 42.4115 213.992 41.2484 215.274 40.3888C216.537 39.554 218.017 39.109 219.531 39.109C221.045 39.109 222.525 39.554 223.788 40.3888C225.096 41.2693 226.165 42.4609 226.898 43.8566C227.632 45.2522 228.007 46.8082 227.99 48.3848C228.005 50.0065 227.614 51.6062 226.854 53.039Z" fill="white"/>
<path d="M221.726 28.123H219.134L218.263 33.042H220.303L221.726 28.123Z" fill="white"/>
<path d="M251.106 35.6572V55.8733L241.401 35.6572H235.975V61.0789H239.835V40.532L249.904 61.112H255V35.6572H251.106Z" fill="white"/>
</g>
<defs>
<clipPath id="clip0_1994_5911">
<rect width="255" height="61.5084" fill="white"/>
</clipPath>
</defs>
</svg>
