<svg width="41" height="41" viewBox="0 0 41 41" fill="none" xmlns="http://www.w3.org/2000/svg">
<rect x="0.674805" y="0.411133" width="39.5018" height="40.5021" rx="19.7509" fill="none"/>
<path d="M27.7486 14.2231C27.5967 14.1446 27.4488 14.0585 27.3056 13.9651C26.8892 13.6899 26.5075 13.3655 26.1686 12.9991C25.3196 12.0281 25.0026 11.0431 24.8866 10.3541H24.8906C24.7936 9.78113 24.8336 9.41113 24.8406 9.41113H20.9756V24.3541C20.9756 24.5541 20.9756 24.7531 20.9676 24.9491C20.9676 24.9731 20.9646 24.9951 20.9636 25.0221C20.9636 25.0321 20.9636 25.0441 20.9606 25.0551V25.0641C20.92 25.6002 20.7483 26.118 20.4605 26.5721C20.1728 27.0261 19.7779 27.4025 19.3106 27.6681C18.823 27.9455 18.2715 28.091 17.7106 28.0901C15.9106 28.0901 14.4506 26.6221 14.4506 24.8091C14.4506 22.9951 15.9106 21.5271 17.7106 21.5271C18.0516 21.5271 18.3906 21.5811 18.7146 21.6871L18.7196 17.7511C17.7356 17.6242 16.736 17.7026 15.7838 17.9814C14.8316 18.2603 13.9476 18.7335 13.1876 19.3711C12.5214 19.9497 11.9613 20.64 11.5326 21.4111C11.3696 21.6921 10.7536 22.8231 10.6796 24.6571C10.6326 25.6971 10.9456 26.7771 11.0946 27.2221V27.2321C11.1876 27.4941 11.5516 28.3901 12.1436 29.1451C12.621 29.7511 13.185 30.2835 13.8176 30.7251V30.7151L13.8266 30.7251C15.6966 31.9951 17.7716 31.9121 17.7716 31.9121C18.1306 31.8971 19.3336 31.9121 20.6996 31.2651C22.2146 30.5471 23.0766 29.4781 23.0766 29.4781C23.6277 28.8393 24.0659 28.1112 24.3726 27.3251C24.7226 26.4051 24.8386 25.3031 24.8386 24.8631V16.9341C24.8856 16.9621 25.5106 17.3751 25.5106 17.3751C25.5106 17.3751 26.4106 17.9521 27.8136 18.3271C28.8196 18.5941 30.1766 18.6511 30.1766 18.6511V14.8141C29.7016 14.8661 28.7366 14.7161 27.7476 14.2241L27.7486 14.2231Z" fill="white"/>
</svg>
