<svg width="271" height="65" viewBox="0 0 271 65" fill="none" xmlns="http://www.w3.org/2000/svg">
<g clip-path="url(#clip0_1994_6547)">
<path d="M19.1785 0.920126L11.1757 26.5851H8.84253L0.839744 0.920126H2.71794L9.4375 23.4936L10.0208 25.4535L10.6041 23.4936L17.3237 0.920126H19.2018H19.1785ZM20.0301 0.313477H16.8803L9.9508 23.3653L3.10293 0.36015H-0.046875L8.3409 27.285H11.5724L19.9601 0.36015L20.0301 0.313477Z" fill="#262626"/>
<path d="M26.6682 0.920126V26.5851H24.8483V0.920126H26.6682ZM27.2748 0.313477H24.2417V27.2384H27.2748V0.313477Z" fill="#262626"/>
<path d="M40.7723 0.7341C42.0439 0.745191 43.3107 0.889859 44.5521 1.16573C45.6121 1.39294 46.6391 1.75358 47.6085 2.23901L46.3253 3.77888C45.5305 3.46214 44.7161 3.19717 43.8871 2.98561C42.895 2.73239 41.8775 2.59153 40.854 2.56565C39.8803 2.55974 38.9105 2.68929 37.9725 2.95061C37.09 3.19029 36.2856 3.65684 35.6393 4.30386C34.9719 5.01781 34.608 5.96317 34.6244 6.94036C34.5817 7.92258 34.9108 8.88481 35.546 9.63518C36.193 10.329 36.9914 10.8639 37.8792 11.1984C38.8589 11.5956 39.8598 11.9383 40.8773 12.225C42.4181 12.6159 43.9211 13.1429 45.3686 13.7999C46.4083 14.2604 47.3005 14.9992 47.9468 15.9348C48.5801 17.0477 48.8798 18.3193 48.8101 19.5978C48.8079 20.9316 48.4011 22.2333 47.6435 23.3309C46.8807 24.4573 45.8453 25.3723 44.6337 25.9907C43.3475 26.657 41.9174 26.9975 40.469 26.9824C38.8658 26.9728 37.2802 26.6478 35.8026 26.0257C34.6074 25.5454 33.4845 24.9015 32.4662 24.1126L33.9244 22.7709C34.8268 23.4354 35.8159 23.9731 36.8642 24.3692C37.9974 24.8199 39.203 25.0611 40.4223 25.0808C41.5129 25.0893 42.5921 24.8583 43.5838 24.4042C44.5092 23.9769 45.3117 23.3228 45.9169 22.5027C46.5345 21.659 46.8731 20.6433 46.8852 19.5978C46.9291 18.9348 46.8132 18.2709 46.5472 17.6619C46.2813 17.0529 45.8731 16.5166 45.357 16.0981C44.0512 15.1395 42.5491 14.4821 40.9589 14.1732C39.3483 13.7857 37.7839 13.2264 36.2926 12.505C35.1431 11.9677 34.1509 11.1443 33.4111 10.1135C32.7543 9.07214 32.4781 7.83556 32.6295 6.61372C32.6617 5.7587 32.8886 4.92228 33.2929 4.16822C33.6973 3.41415 34.2684 2.76232 34.9627 2.26233C36.6923 1.13652 38.7348 0.589134 40.7956 0.699104L40.7723 0.7341ZM40.7956 0.0924544C38.6253 -0.0141343 36.477 0.569931 34.6594 1.7607C33.8926 2.30962 33.2601 3.02516 32.8096 3.85357C32.359 4.68199 32.102 5.6017 32.0579 6.54369C31.8849 7.9138 32.1987 9.30117 32.9445 10.4634C33.7408 11.5849 34.8139 12.4812 36.0593 13.065C37.5836 13.806 39.1833 14.381 40.8306 14.7798C42.3301 15.0732 43.7474 15.6903 44.9837 16.588C45.4241 16.9402 45.7728 17.3935 46.0003 17.9094C46.2278 18.4253 46.3273 18.9886 46.2903 19.5512C46.2805 20.4709 45.9827 21.3644 45.4387 22.106C44.885 22.8504 44.1501 23.4408 43.3038 23.8209C42.3927 24.2377 41.4009 24.4488 40.399 24.4392C39.2511 24.4194 38.1164 24.1901 37.0509 23.7626C35.8941 23.3274 34.8148 22.709 33.8544 21.931L31.5212 24.0892C32.7121 25.1339 34.0735 25.9665 35.546 26.5507C37.1115 27.2111 38.7932 27.5521 40.4923 27.554C42.0386 27.5705 43.5651 27.2059 44.937 26.4924C46.2404 25.8257 47.3525 24.838 48.1685 23.6226C48.9146 22.417 49.3301 21.0362 49.3731 19.619C49.4161 18.2019 49.0851 16.7984 48.4135 15.5498C47.7062 14.526 46.7289 13.7184 45.5903 13.2166C44.1093 12.544 42.571 12.0052 40.9939 11.6067C40.0001 11.3267 39.0226 10.9917 38.0658 10.6034C37.2757 10.3017 36.5653 9.82281 35.9893 9.20351C35.4431 8.55321 35.1675 7.718 35.2193 6.87033C35.2044 6.04891 35.5099 5.25394 36.071 4.65382C36.6571 4.08837 37.381 3.68618 38.1708 3.48723C39.0519 3.24201 39.9628 3.12031 40.8773 3.12559C41.8579 3.15133 42.8324 3.28832 43.7821 3.53391C44.7265 3.77769 45.6508 4.09359 46.5469 4.47884L48.5884 2.01735C47.3861 1.32584 46.0833 0.825965 44.727 0.535764C43.4436 0.250775 42.1336 0.102177 40.819 0.0924544H40.7956Z" fill="#262626"/>
<path d="M56.0193 0.920126V26.5851H54.1994V0.920126H56.0193ZM56.6259 0.313477H53.5928V27.2384H56.6142V0.313477H56.6259Z" fill="#262626"/>
<path d="M80.098 0.920126V2.50667H71.7102V26.6317H69.8553V2.51835H61.4676V0.931767H80.133L80.098 0.920126ZM80.7396 0.325154H60.9076V3.13664H69.2954V27.25H72.3752V3.12496H80.763V0.313477L80.7396 0.325154Z" fill="#262626"/>
<path d="M93.1522 0.919351L101.785 26.5843H99.7784L97.6435 20.1564L97.5035 19.7364H85.7793L85.6393 20.1564L83.4461 26.631H81.4979L90.0957 0.965989H93.1055L93.1522 0.919351ZM86.106 18.4648H96.9902L96.7219 17.6599L92.1489 3.84747L91.5772 2.10926L90.9939 3.84747L86.3276 17.6599L86.0593 18.4648H86.106ZM93.4438 0.359375H89.559L80.553 27.2842H83.7845L86.0593 20.4364H96.9436L99.2184 27.2842H102.485L93.4438 0.359375ZM86.8992 17.8582L91.5656 4.0458L96.2786 17.8115L86.8992 17.8582Z" fill="#262626"/>
<path d="M122.854 8.46783L124.674 9.09777V26.5966H122.854V8.46783ZM122.247 7.61621V27.2499H125.28V8.66613L122.247 7.61621Z" fill="#262626"/>
<path d="M122.247 0.325195V7.61638L125.28 8.66631V0.325195H122.247Z" fill="#262626"/>
<path d="M130.016 11.2798L131.906 13.2747C132.373 12.5647 133.011 11.9831 133.761 11.5831L130.705 10.5215C130.46 10.76 130.23 11.0133 130.016 11.2798V11.2798Z" fill="#262626"/>
<path d="M142.942 15.42L144.832 16.0733C144.832 16.5399 144.832 17.0183 144.832 17.5082V26.6309H142.977V24.2394L142.009 24.9394C141.113 25.5909 140.11 26.0805 139.046 26.386C138.064 26.6747 137.047 26.8239 136.024 26.8293H135.803C134.307 26.8353 132.851 26.3473 131.661 25.441C131.122 24.9875 130.699 24.4127 130.425 23.7638C130.151 23.1149 130.035 22.4103 130.086 21.7079C130.038 20.96 130.147 20.2103 130.406 19.507C130.666 18.8038 131.069 18.1626 131.591 17.6249C132.787 16.5501 134.287 15.8734 135.884 15.6884C136.691 15.5629 137.506 15.5005 138.322 15.5017C139.63 15.5106 140.934 15.6355 142.219 15.875L142.931 16.0033V15.42H142.942ZM136.316 25.2544C136.706 25.2541 137.095 25.2307 137.483 25.1844C138.441 25.0739 139.382 24.8426 140.282 24.4961C141.15 24.1746 141.967 23.7307 142.709 23.1778L142.954 22.9912V17.1582L142.417 17.0882C141.292 16.9403 140.158 16.8624 139.022 16.8549C137.621 16.8275 136.223 17.0204 134.881 17.4266C133.95 17.6719 133.132 18.2304 132.565 19.008C131.998 19.7857 131.716 20.735 131.766 21.6963C131.749 22.1259 131.82 22.5545 131.974 22.9558C132.128 23.3571 132.363 23.7225 132.665 24.0295C133.259 24.5921 134.005 24.9691 134.811 25.1144C135.322 25.2164 135.842 25.2672 136.363 25.266L136.316 25.2544ZM142.371 14.5801V15.2917C141.051 15.0447 139.712 14.9159 138.369 14.9067C137.522 14.9028 136.675 14.9653 135.838 15.0934C134.1 15.2848 132.467 16.0196 131.171 17.1932C130.592 17.7873 130.142 18.4955 129.851 19.2727C129.56 20.0499 129.433 20.8792 129.48 21.7079C129.429 22.5026 129.566 23.2982 129.88 24.03C130.194 24.7617 130.677 25.409 131.288 25.9193C132.58 26.9095 134.163 27.4429 135.791 27.4359H136.024C137.103 27.431 138.175 27.2739 139.209 26.9692C140.341 26.6446 141.407 26.1233 142.359 25.4293V27.2376H145.439V17.5315C145.439 16.8899 145.439 16.26 145.439 15.665L142.347 14.5918L142.371 14.5801ZM136.363 24.6594C135.881 24.6609 135.4 24.6141 134.928 24.5194C134.237 24.3988 133.596 24.0784 133.084 23.5978C132.839 23.3436 132.649 23.0413 132.527 22.71C132.404 22.3786 132.352 22.0255 132.373 21.6729C132.318 20.8385 132.557 20.0112 133.05 19.3353C133.542 18.6595 134.256 18.178 135.068 17.9749C136.346 17.5905 137.676 17.4095 139.011 17.4382C140.123 17.4466 141.233 17.5245 142.336 17.6715V22.7112C141.64 23.2262 140.874 23.6387 140.061 23.9361C139.209 24.265 138.319 24.4845 137.413 24.5894C137.064 24.6288 136.713 24.6483 136.363 24.6477V24.6594Z" fill="#262626"/>
<path d="M144.844 11.3362C144.498 10.4988 143.882 9.80088 143.094 9.35297C142.184 8.72065 141.15 8.28737 140.061 8.08139C138.881 7.84931 137.672 7.80991 136.479 7.96472C135.266 8.12501 134.085 8.47541 132.98 9.00301C132.161 9.38628 131.412 9.9027 130.763 10.5312L133.82 11.5928L133.925 11.5345C134.769 11.0862 135.685 10.7863 136.631 10.6479C137.546 10.4877 138.481 10.4877 139.396 10.6479C140.204 10.7923 140.956 11.16 141.566 11.7095C141.852 11.9839 142.076 12.3164 142.223 12.6847C142.37 13.0529 142.436 13.4483 142.417 13.8443V14.521L145.509 15.5942C145.509 15.0693 145.509 14.5676 145.509 14.0777C145.438 13.1338 145.213 12.2078 144.844 11.3362Z" fill="#262626"/>
<path d="M162.004 18.9893C161.24 17.9814 160.204 17.2125 159.018 16.7727C157.914 16.3605 156.887 15.995 155.938 15.6761C155.135 15.415 154.382 15.0207 153.71 14.5096C153.447 14.3062 153.241 14.0382 153.112 13.7315C152.983 13.4248 152.936 13.09 152.975 12.7597C152.987 12.4143 153.083 12.0769 153.253 11.7763C153.424 11.4757 153.665 11.2207 153.955 11.0331C154.59 10.6552 155.315 10.4539 156.055 10.4498C156.784 10.454 157.51 10.5561 158.213 10.7531C158.954 10.9596 159.655 11.2868 160.29 11.7214L162.214 9.8782C161.377 9.12516 160.367 8.5885 159.275 8.31497C158.046 7.92877 156.757 7.77062 155.471 7.84834C154.248 7.90603 153.067 8.31065 152.065 9.01493C151.202 9.6163 150.542 10.4669 150.175 11.4531C149.834 12.3993 149.834 13.435 150.175 14.3812C150.603 15.4842 151.387 16.4124 152.403 17.0177C153.087 17.435 153.815 17.7754 154.573 18.0326L156.848 18.8026C157.513 19.0163 158.151 19.306 158.75 19.6659C159.098 19.8869 159.39 20.1865 159.601 20.5408L162.716 21.6141C162.784 20.6837 162.533 19.758 162.004 18.9893Z" fill="#262626"/>
<path d="M160.64 21.5317L162.121 22.045C162.121 22.22 162.121 22.395 162.039 22.5933C161.945 23.7063 161.422 24.7392 160.581 25.4748C159.695 26.2116 158.62 26.6846 157.478 26.8397C157.053 26.9034 156.624 26.9346 156.195 26.933C155.33 26.9268 154.47 26.8012 153.64 26.5597C152.526 26.2411 151.49 25.6971 150.595 24.9615L151.622 23.8533C152.27 24.3161 152.966 24.7072 153.698 25.0199C154.483 25.3414 155.323 25.5077 156.172 25.5098H156.346C156.872 25.5104 157.394 25.4358 157.898 25.2881C158.401 25.125 158.868 24.8677 159.275 24.5299C159.841 24.1062 160.251 23.5074 160.441 22.8267C160.566 22.4152 160.61 21.9833 160.57 21.5551L160.64 21.5317ZM159.566 20.5635C159.672 20.709 159.762 20.8654 159.835 21.0301C160.011 21.5669 160.014 22.1458 159.842 22.6841C159.67 23.2225 159.333 23.6929 158.878 24.0282C158.513 24.3249 158.092 24.5469 157.641 24.6815C157.191 24.8143 156.723 24.8811 156.253 24.8798H156.078C155.31 24.8784 154.549 24.7278 153.838 24.4366C153.006 24.0815 152.222 23.6229 151.505 23.0716L149.697 25.0315C150.756 26.0328 152.04 26.765 153.442 27.1664C154.329 27.4247 155.248 27.5582 156.172 27.563C156.632 27.5633 157.093 27.5282 157.548 27.458C158.803 27.2873 159.983 26.7657 160.955 25.9531C161.909 25.1183 162.506 23.949 162.623 22.6867C162.689 22.3403 162.728 21.9892 162.739 21.6367L159.625 20.5635H159.566Z" fill="#262626"/>
<path d="M0.385254 64.5789H14.886V60.7642H4.46832V53.1114H12.9261V49.6466H4.46832V47.8967L0.385254 47.7334V64.5789Z" fill="#262626"/>
<path d="M14.2793 38.2502V40.8634H3.85003V47.2796L0.991903 47.1629V38.2735H14.2793V38.2502ZM14.886 37.6669H0.385254V47.7462L4.46832 47.9212V41.4466H14.8976V37.6436L14.886 37.6669Z" fill="#262626"/>
<path d="M39.3723 38.2502L32.9794 48.4695L30.0863 48.3529L30.2263 48.1079L35.8259 38.2618H39.3257L39.3723 38.2502ZM23.495 38.2618L29.1297 48.1079L29.258 48.3179L26.1782 48.1895L19.9836 38.2502H23.4834L23.495 38.2618ZM40.4106 37.6436H35.4059L29.6313 47.8046L23.7984 37.6436H18.9337L25.9332 48.7845L33.3644 49.0878L40.5273 37.6436H40.4106Z" fill="#262626"/>
<path d="M27.1931 50.919L18.7354 64.5798H23.7284L29.7013 54.1155L35.6626 64.5798H40.6206L32.1628 50.919L33.306 49.0992L25.8632 48.7842L27.1931 50.919Z" fill="#262626"/>
<path d="M55.0163 38.2501C56.194 38.222 57.3476 38.5873 58.2944 39.2884C59.261 40.0076 60.0312 40.9584 60.5342 42.0532C61.0696 43.1999 61.3445 44.4508 61.3392 45.7163C61.3355 47.0839 60.9649 48.4255 60.2659 49.601L56.9411 49.461C57.4293 49.0311 57.826 48.5074 58.1077 47.9211C58.4364 47.2325 58.6077 46.4793 58.6094 45.7163C58.6446 44.5261 58.2513 43.3628 57.5011 42.4382C57.204 42.0281 56.8175 41.6911 56.3708 41.4526C55.9241 41.214 55.429 41.0804 54.9229 41.0616H48.3901V49.0877L45.5552 48.9711V38.2384H55.063L55.0163 38.2501ZM55.063 37.6318H44.9486V49.5544L49.0084 49.7177V41.6799H54.9346C55.352 41.7013 55.7591 41.8175 56.1249 42.0196C56.4908 42.2217 56.8058 42.5045 57.0461 42.8465C57.7006 43.661 58.0402 44.6838 58.0027 45.728C58.0019 46.4023 57.8505 47.0679 57.5594 47.6762C57.2943 48.2658 56.8948 48.7852 56.3928 49.1927C55.951 49.5632 55.3945 49.7693 54.8179 49.776H49.5217L60.6626 50.2427C60.9848 49.7388 61.2545 49.2033 61.4675 48.6444C61.8195 47.7163 62.0013 46.7323 62.0041 45.7396C62.0105 44.3852 61.7157 43.0463 61.1409 41.8199C60.5973 40.6322 59.7627 39.6009 58.7143 38.8217C57.6628 38.0424 56.3833 37.6322 55.0746 37.6552L55.063 37.6318Z" fill="#262626"/>
<path d="M48.9385 49.7659L44.8788 49.6025V64.6049H48.9618V53.8373H54.9231C55.8795 53.8422 56.8207 53.5969 57.6529 53.1257C58.5097 52.644 59.2724 52.0117 59.9045 51.2591C60.1652 50.9421 60.403 50.6068 60.6161 50.2558L49.4751 49.7892L48.9385 49.7659Z" fill="#262626"/>
<path d="M86.0943 56.0284C85.3443 57.477 84.2408 58.7128 82.8862 59.6215C81.5459 60.4983 79.979 60.9654 78.3774 60.9654C76.7757 60.9654 75.2088 60.4983 73.8685 59.6215C72.5004 58.7146 71.3814 57.4793 70.6137 56.0284C69.815 54.5124 69.4137 52.8187 69.4471 51.1054C69.4471 50.9421 69.4471 50.7905 69.4471 50.6271L65.2241 50.4521C65.2241 50.6738 65.2241 50.8838 65.2241 51.1054C65.1955 54.7323 66.5756 58.2287 69.0738 60.8581C70.2648 62.1166 71.6866 63.1345 73.2618 63.8562C74.8785 64.5719 76.6269 64.9416 78.3949 64.9416C80.1628 64.9416 81.9112 64.5719 83.5279 63.8562C85.1019 63.1479 86.5241 62.1417 87.7159 60.8931C88.9309 59.6177 89.8893 58.1207 90.5391 56.4834C91.1692 54.9006 91.509 53.2171 91.5423 51.5137L87.3193 51.3388C87.2907 52.9773 86.8707 54.5852 86.0943 56.0284V56.0284Z" fill="#262626"/>
<path d="M78.3595 37.9136C80.0357 37.9048 81.6944 38.2548 83.2241 38.9402C84.7299 39.6205 86.089 40.5873 87.2255 41.7867C89.5537 44.2482 90.8662 47.4981 90.9003 50.8861L87.8788 50.7577C87.851 49.0483 87.4126 47.3706 86.6005 45.8661C85.7883 44.3617 84.6263 43.0745 83.2125 42.1133C81.7762 41.1699 80.0954 40.6672 78.377 40.6672C76.6586 40.6672 74.9777 41.1699 73.5415 42.1133C72.227 42.9934 71.1257 44.1562 70.3184 45.5166C69.511 46.877 69.0179 48.4006 68.8751 49.9761L65.8653 49.8478C65.9692 48.5205 66.2802 47.2176 66.7869 45.9864C67.4368 44.4254 68.3748 43.0007 69.5517 41.7867C70.7093 40.5908 72.0828 39.625 73.5998 38.9402C75.1062 38.2591 76.7412 37.909 78.3945 37.9136H78.3595ZM78.3945 37.307C76.657 37.299 74.9382 37.6651 73.3548 38.3802C71.7663 39.0977 70.3291 40.1112 69.1201 41.3667C67.8917 42.6341 66.914 44.1224 66.2386 45.7531C65.6303 47.2368 65.2907 48.8168 65.2354 50.4194L69.4584 50.5944C69.511 49.0106 69.938 47.4618 70.7045 46.0749C71.471 44.6879 72.5551 43.5022 73.8681 42.6149C75.2039 41.732 76.7698 41.2612 78.3711 41.2612C79.9724 41.2612 81.5384 41.732 82.8742 42.6149C84.2576 43.5463 85.3879 44.8067 86.1638 46.283C86.9396 47.7592 87.3365 49.4051 87.3189 51.0727C87.3189 51.166 87.3189 51.2477 87.3189 51.3294L91.5419 51.5043C91.5419 51.3527 91.5419 51.2127 91.5419 51.0727C91.5615 47.4579 90.182 43.9757 87.6922 41.355C86.5042 40.096 85.0815 39.0815 83.5041 38.3685C81.8938 37.6475 80.1471 37.2815 78.3828 37.2953L78.3945 37.307Z" fill="#262626"/>
<path d="M105.483 52.9145C106.532 53.1685 107.507 53.6639 108.33 54.3611C108.66 54.6508 108.922 55.0106 109.095 55.4143C109.269 55.8179 109.35 56.2552 109.333 56.6943C109.34 57.2425 109.218 57.7847 108.977 58.2771C108.736 58.7695 108.382 59.1983 107.945 59.5291C106.985 60.3119 105.777 60.7256 104.538 60.6957C103.444 60.6736 102.365 60.4316 101.365 59.9841C100.287 59.5358 99.3024 58.891 98.4604 58.0825L95.3806 61.0106C96.1456 61.7894 97.0129 62.4605 97.9588 63.0055C98.9685 63.5985 100.046 64.0684 101.167 64.4054C102.3 64.7554 103.48 64.9324 104.667 64.9304C106.217 64.947 107.747 64.5697 109.111 63.8338C110.418 63.1387 111.523 62.118 112.32 60.8706C113.064 59.6226 113.475 58.2038 113.512 56.751C113.548 55.2981 113.21 53.8603 112.529 52.5762C112.529 52.4946 112.413 52.4245 112.355 52.3429L102.404 51.9346C103.278 52.2962 104.34 52.6112 105.483 52.9145Z" fill="#262626"/>
<path d="M104.445 38.0166C105.789 38.0308 107.127 38.2191 108.423 38.5765C109.647 38.9 110.824 39.3824 111.923 40.0114L109.858 42.2163C109.136 41.8924 108.396 41.6119 107.641 41.3764C106.705 41.0791 105.73 40.9256 104.748 40.9214H104.445C103.713 40.9177 102.984 41.0079 102.275 41.1897C101.5 41.3921 100.792 41.7944 100.222 42.3563C99.9321 42.6456 99.7026 42.9894 99.5465 43.3678C99.3903 43.7462 99.3105 44.1518 99.3118 44.5612C99.2795 44.9826 99.332 45.4061 99.4663 45.8069C99.6005 46.2076 99.8138 46.5774 100.093 46.8943C100.672 47.4716 101.374 47.9103 102.147 48.1775C102.928 48.4692 103.862 48.7842 104.911 49.0992C106.448 49.4957 107.943 50.0347 109.379 50.7091C109.935 50.978 110.453 51.3192 110.919 51.724L102.508 51.374C101.692 51.0824 100.945 50.7907 100.303 50.4991C99.0431 49.9797 97.9467 49.1291 97.1303 48.0376C96.4194 46.8671 96.1504 45.4809 96.372 44.1295C96.4308 43.2359 96.6886 42.3667 97.1266 41.5855C97.5646 40.8044 98.1717 40.1311 98.9035 39.6148C100.564 38.5275 102.52 37.9814 104.503 38.0516L104.445 38.0166ZM104.503 37.445C102.399 37.3716 100.324 37.9546 98.5652 39.1132C97.7636 39.6801 97.0977 40.4178 96.6155 41.2732C96.1334 42.1285 95.847 43.0801 95.777 44.0595C95.5335 45.5591 95.8401 47.0962 96.6403 48.3876C97.518 49.57 98.699 50.493 100.058 51.059C100.77 51.3857 101.552 51.689 102.392 51.9806L112.343 52.389C111.651 51.4317 110.727 50.6652 109.659 50.1608C108.19 49.4669 106.659 48.9122 105.086 48.5042C104.06 48.1931 103.158 47.8937 102.38 47.6059C101.688 47.3623 101.062 46.9632 100.548 46.4393C100.32 46.1771 100.148 45.8712 100.042 45.5404C99.9355 45.2095 99.8975 44.8605 99.9301 44.5145C99.9286 44.1832 99.9929 43.8549 100.119 43.5485C100.245 43.2421 100.431 42.9638 100.665 42.7296C101.166 42.257 101.781 41.9232 102.45 41.7613C103.109 41.5894 103.787 41.5031 104.468 41.5047H104.748C105.674 41.5047 106.595 41.6464 107.478 41.9246C108.349 42.1971 109.199 42.5324 110.021 42.9279L112.903 39.8481C111.591 39.0066 110.159 38.3694 108.656 37.9583C107.285 37.5747 105.869 37.3746 104.445 37.3633L104.503 37.445Z" fill="#262626"/>
<path d="M117.662 64.5805H121.745V52.7746L117.662 52.5996V64.5805Z" fill="#262626"/>
<path d="M121.139 38.25V52.1207L118.28 52.004V38.25H121.139ZM121.745 37.6433H117.662V52.5873L121.745 52.7623V37.5967V37.6433Z" fill="#262626"/>
<path d="M127.018 56.6697C127.682 58.2808 128.649 59.75 129.865 60.9977C131.074 62.2061 132.488 63.1897 134.041 63.9025C135.651 64.6408 137.404 65.0152 139.174 64.9991C141.079 65.0017 142.959 64.5666 144.669 63.7276C146.535 62.7826 148.174 61.4454 149.475 59.8078L146.209 57.113C145.278 58.2474 144.132 59.187 142.837 59.8778C141.7 60.4613 140.441 60.7652 139.163 60.7644C137.957 60.7768 136.762 60.526 135.663 60.0294C134.582 59.54 133.613 58.8332 132.816 57.9529C131.995 57.0812 131.342 56.0646 130.892 54.9548C130.652 54.3646 130.476 53.7506 130.367 53.1233L126.039 52.9482C126.185 54.2294 126.515 55.4827 127.018 56.6697V56.6697Z" fill="#262626"/>
<path d="M139.174 37.8669C140.986 37.8518 142.777 38.2509 144.412 39.0335C146.014 39.8386 147.445 40.9481 148.623 42.3L146.29 44.2598C145.395 43.2551 144.328 42.4176 143.14 41.7867C141.958 41.1866 140.655 40.8623 139.33 40.838C138.004 40.8138 136.691 41.0903 135.487 41.6467C134.355 42.1798 133.325 42.9062 132.443 43.7932C131.552 44.7205 130.855 45.8147 130.389 47.013C129.888 48.3192 129.638 49.7086 129.654 51.1077C129.653 51.5558 129.677 52.0037 129.724 52.4493L126.656 52.321C126.656 51.8893 126.656 51.4927 126.656 51.1544C126.639 49.3564 126.976 47.5726 127.648 45.9047C128.286 44.3422 129.212 42.9136 130.378 41.6933C131.508 40.5177 132.855 39.5711 134.344 38.9052C135.886 38.218 137.556 37.868 139.244 37.8786L139.174 37.8669ZM139.244 37.272C137.468 37.2564 135.71 37.6224 134.087 38.3452C132.527 39.044 131.117 40.0383 129.934 41.2734C128.716 42.5507 127.75 44.0468 127.088 45.6831C126.384 47.4244 126.031 49.2878 126.05 51.166C126.051 51.7663 126.086 52.3661 126.155 52.9626L130.483 53.1375C130.37 52.4864 130.316 51.8267 130.319 51.166C130.303 49.8469 130.536 48.5366 131.008 47.3046C131.442 46.1797 132.097 45.1526 132.932 44.2831C133.764 43.448 134.735 42.765 135.802 42.265C136.922 41.7497 138.144 41.4946 139.377 41.5189C140.609 41.5431 141.82 41.846 142.918 42.4049C144.213 43.0958 145.359 44.0353 146.29 45.1698L149.556 42.4399C148.248 40.8191 146.609 39.4949 144.75 38.5552C143.04 37.7161 141.16 37.2811 139.255 37.2836L139.244 37.272Z" fill="#262626"/>
<path d="M157.187 38.2502V53.6258L154.328 53.5092V38.2502H157.187ZM157.793 37.6436H153.71V54.0925L157.793 54.2674V37.6436Z" fill="#262626"/>
<path d="M153.71 64.5804H157.781V54.2678L153.71 54.0928V64.5804Z" fill="#262626"/>
<path d="M182.944 56.0292C182.194 57.4777 181.091 58.7136 179.736 59.6223C178.396 60.4991 176.829 60.9661 175.227 60.9661C173.626 60.9661 172.059 60.4991 170.719 59.6223C168.934 58.4386 167.583 56.7066 166.869 54.6876L162.424 54.501C162.58 55.169 162.787 55.8242 163.042 56.4608C163.698 58.0952 164.656 59.5913 165.866 60.8705C167.057 62.129 168.478 63.1469 170.054 63.8687C171.67 64.5843 173.419 64.954 175.187 64.954C176.955 64.954 178.703 64.5843 180.32 63.8687C181.894 63.1603 183.316 62.1541 184.508 60.9055C185.723 59.6302 186.681 58.1331 187.331 56.4958C187.459 56.1809 187.564 55.8542 187.669 55.5276L183.224 55.3409C183.154 55.5392 183.061 55.7609 182.944 56.0292Z" fill="#262626"/>
<path d="M175.222 37.9135C176.898 37.9048 178.557 38.2548 180.087 38.9402C181.592 39.6205 182.951 40.5873 184.088 41.7866C186.471 44.3067 187.788 47.6508 187.763 51.1193C187.769 52.384 187.604 53.6437 187.273 54.8641L184.158 54.7358C184.571 53.5547 184.78 52.3121 184.776 51.061C184.801 49.2965 184.387 47.5534 183.573 45.9879C182.758 44.4223 181.569 43.083 180.11 42.0899C178.674 41.1465 176.993 40.6439 175.274 40.6439C173.556 40.6439 171.875 41.1465 170.439 42.0899C169.001 43.0518 167.822 44.3542 167.009 45.8813C166.152 47.4721 165.71 49.2539 165.726 51.061C165.724 52.0498 165.853 53.0344 166.111 53.9891L163.008 53.8608C162.815 52.944 162.717 52.0096 162.716 51.0727C162.704 49.3243 163.041 47.591 163.708 45.9747C164.357 44.4137 165.295 42.989 166.472 41.775C167.63 40.5791 169.004 39.6133 170.52 38.9285C172.027 38.2474 173.662 37.8973 175.315 37.9019L175.222 37.9135ZM175.315 37.2953C173.578 37.2873 171.859 37.6533 170.275 38.3685C168.687 39.0859 167.25 40.0995 166.041 41.355C164.812 42.6224 163.835 44.1107 163.159 45.7414C162.46 47.431 162.107 49.244 162.121 51.0727C162.123 52.2125 162.26 53.3481 162.529 54.4558L166.974 54.6424C166.561 53.4978 166.352 52.2896 166.356 51.0727C166.325 49.3709 166.727 47.6892 167.522 46.1847C168.288 44.7428 169.398 43.5125 170.754 42.6032C172.09 41.7202 173.656 41.2495 175.257 41.2495C176.858 41.2495 178.424 41.7202 179.76 42.6032C181.143 43.5346 182.274 44.795 183.049 46.2713C183.825 47.7475 184.222 49.3934 184.205 51.061C184.208 52.524 183.902 53.9711 183.306 55.3074L187.751 55.4941C188.205 54.0604 188.433 52.5648 188.428 51.061C188.447 47.4462 187.068 43.964 184.578 41.3433C183.39 40.0843 181.967 39.0698 180.39 38.3569C178.779 37.6358 177.033 37.2697 175.269 37.2836L175.315 37.2953Z" fill="#262626"/>
<path d="M192.604 64.5323H196.675V55.8762L192.604 55.7129V64.5323Z" fill="#262626"/>
<path d="M208.598 59.0386L207.291 56.3205L203.208 56.1455L207.326 64.5799H212.716V56.5421L208.598 56.3788V59.0386Z" fill="#262626"/>
<path d="M197.947 38.2502L206.312 55.6557L203.594 55.539L197.224 42.5199L196.057 40.1867V55.2591L193.199 55.1424V38.2502H197.936H197.947ZM198.321 37.6436H192.593V55.7024L196.676 55.8774V42.7999L203.209 56.1457L207.292 56.3207L198.321 37.6552V37.6436Z" fill="#262626"/>
<path d="M212.716 37.6436H209.088L212.716 38.9035V37.6436Z" fill="#262626"/>
<path d="M209.216 38.3317L212.109 39.335V55.9122L209.216 55.7955V38.2967V38.3317ZM209.1 37.6084H208.609V56.2738L212.728 56.4488V38.9033L209.1 37.6434V37.6084Z" fill="#262626"/>
<path d="M221.407 41.4583H231.836V37.6436H217.336V40.5017L221.407 41.9133V41.4583Z" fill="#262626"/>
<path d="M217.336 64.5807H231.836V60.7659H221.407V56.9045L217.336 56.7412V64.5807Z" fill="#262626"/>
<path d="M217.942 41.3544L220.8 42.346V50.1971H229.27V52.5303H220.812V56.2984L217.954 56.1817V41.3544H217.942ZM217.347 40.5028V56.73L221.43 56.905V53.1136H229.888V49.6138H221.43V41.8793L217.347 40.4678V40.5028Z" fill="#262626"/>
<path d="M252.788 52.6112C252.074 51.5561 251.08 50.7201 249.919 50.1963C248.449 49.5024 246.918 48.9478 245.346 48.5398C244.319 48.2287 243.417 47.9293 242.639 47.6415C241.947 47.3978 241.321 46.9987 240.807 46.4749C240.579 46.2127 240.407 45.9068 240.301 45.576C240.195 45.2451 240.157 44.8961 240.189 44.5501C240.188 44.2188 240.252 43.8904 240.378 43.5841C240.504 43.2777 240.69 42.9994 240.924 42.7652C241.425 42.2926 242.04 41.9588 242.709 41.7969C243.47 41.6009 244.257 41.5184 245.042 41.5519C245.968 41.552 246.889 41.6937 247.772 41.9719C248.643 42.2444 249.493 42.5797 250.315 42.9752L253.197 39.8954C251.885 39.0539 250.453 38.4166 248.95 38.0055C247.605 37.6329 246.217 37.4369 244.821 37.4222C242.716 37.3488 240.641 37.9318 238.883 39.0904C238.081 39.6574 237.415 40.3951 236.933 41.2504C236.451 42.1057 236.164 43.0574 236.094 44.0368C235.972 45.0509 236.059 46.0793 236.351 47.0582L252.94 52.7979C252.94 52.7979 252.823 52.6579 252.788 52.6112Z" fill="#262626"/>
<path d="M237.436 48.0959L252.426 53.2872C252.93 54.3623 253.17 55.5421 253.126 56.7286C253.127 57.0251 253.107 57.3213 253.068 57.6152L250.151 57.4986C250.199 57.2526 250.223 57.0025 250.221 56.7519C250.255 56.2219 250.167 55.6912 249.965 55.2C249.763 54.7089 249.452 54.2702 249.055 53.9171C248.157 53.158 247.094 52.6187 245.952 52.3422C244.107 51.8728 242.305 51.2524 240.562 50.4874C239.34 49.9915 238.267 49.1877 237.447 48.1542L237.436 48.0959ZM236.281 47.1042C236.416 47.5677 236.621 48.0081 236.887 48.4108C237.765 49.5932 238.946 50.5163 240.305 51.0823C242.078 51.8623 243.912 52.4944 245.788 52.9722C246.837 53.2262 247.812 53.7216 248.635 54.4188C248.965 54.7085 249.227 55.0683 249.4 55.4719C249.574 55.8756 249.655 56.3129 249.638 56.7519C249.638 57.2124 249.547 57.6683 249.37 58.0935L253.605 58.2685C253.702 57.7688 253.753 57.2611 253.756 56.7519C253.815 55.3823 253.509 54.0216 252.87 52.8089L236.269 47.0459L236.281 47.1042Z" fill="#262626"/>
<path d="M249.37 58.0605C249.115 58.6532 248.714 59.1712 248.203 59.5655C247.243 60.3483 246.035 60.762 244.797 60.732C243.702 60.71 242.623 60.468 241.624 60.0204C240.546 59.5722 239.561 58.9273 238.719 58.1189L235.639 61.047C236.404 61.8258 237.271 62.4969 238.217 63.0419C239.227 63.6349 240.304 64.1048 241.425 64.4418C242.559 64.7918 243.739 64.9688 244.925 64.9668C246.476 64.9834 248.005 64.6061 249.37 63.8702C250.676 63.175 251.781 62.1544 252.578 60.907C253.092 60.0957 253.445 59.1925 253.616 58.2472L249.37 58.0605Z" fill="#262626"/>
</g>
<defs>
<clipPath id="clip0_1994_6547">
<rect width="270.684" height="64.874" fill="white" transform="translate(0 0.125977)"/>
</clipPath>
</defs>
</svg>
