<svg width="70" height="67" viewBox="0 0 70 67" fill="none" xmlns="http://www.w3.org/2000/svg">
<g clip-path="url(#clip0_1994_6303)">
<path d="M24.4396 14.121L28.6359 0.639648H27.0606L23.631 12.1553L20.2014 0.639648H18.626L22.8224 14.121H24.4396Z" fill="#262626"/>
<path d="M32.2745 0.639648H30.7549V14.121H32.2745V0.639648Z" fill="#262626"/>
<path d="M40.2907 12.4192C39.8528 12.6185 39.3777 12.723 38.8965 12.7259C38.3231 12.7174 37.7561 12.604 37.2236 12.3913C36.6431 12.1729 36.1017 11.8622 35.6203 11.4711L34.4492 12.5446C35.0441 13.0644 35.7229 13.4792 36.4568 13.7715C37.238 14.1006 38.0768 14.2712 38.9244 14.2734C39.7002 14.2825 40.4663 14.1006 41.1551 13.7436C41.8022 13.4215 42.3583 12.9421 42.7723 12.3495C43.161 11.7384 43.3554 11.0239 43.3299 10.3001C43.3663 9.59764 43.1967 8.89988 42.842 8.2925C42.4934 7.78175 42.0111 7.37664 41.4478 7.12142C40.7065 6.78434 39.9367 6.51375 39.1475 6.31281C38.6742 6.17035 38.2088 6.00281 37.7533 5.81092C37.3563 5.66116 36.9987 5.42274 36.7077 5.11385C36.4386 4.79538 36.2992 4.38723 36.3174 3.97065C36.3105 3.5635 36.4603 3.16926 36.7356 2.86928C37.0251 2.5806 37.3859 2.37376 37.7812 2.26979C38.235 2.14353 38.7044 2.08251 39.1754 2.08855C39.6463 2.10738 40.1138 2.1775 40.5695 2.29768C41.0458 2.4194 41.5119 2.57788 41.9637 2.77169L42.9814 1.54484C42.3501 1.17509 41.6625 0.911349 40.9459 0.764117C40.3187 0.623957 39.6786 0.549203 39.036 0.541054C37.9509 0.489063 36.8773 0.781878 35.9688 1.37754C35.5855 1.65322 35.2697 2.01223 35.0451 2.42757C34.8205 2.8429 34.6931 3.30376 34.6723 3.77547C34.5861 4.46275 34.7439 5.15849 35.1184 5.74121C35.5188 6.30041 36.0566 6.74696 36.6798 7.03777C37.4419 7.40544 38.2411 7.69054 39.0638 7.8882C39.8139 8.03561 40.5228 8.34486 41.1411 8.79439C41.3604 8.97601 41.533 9.20744 41.6445 9.46938C41.7561 9.73131 41.8034 10.0161 41.7824 10.3001C41.7806 10.7608 41.6343 11.2094 41.3642 11.5827C41.0809 11.9459 40.7121 12.2333 40.2907 12.4192V12.4192Z" fill="#262626"/>
<path d="M46.9691 0.639648H45.4495V14.121H46.9691V0.639648Z" fill="#262626"/>
<path d="M58.4564 1.19731V1.47614H56.7695V1.19731H58.5261H58.4564ZM59.0838 0.639648H55.9749L56.3234 2.03379H59.0699V0.639648H59.0838Z" fill="black"/>
<path d="M49.0881 0.639648V2.04773H53.2845V14.121H54.832V2.04773H56.3377L55.9752 0.639648H49.0881Z" fill="#262626"/>
<path d="M59.0281 14.1194H59.363L59.2235 13.5332L59.0281 14.1194Z" fill="white"/>
<path d="M65.0649 1.19731L69.2473 13.5494H68.829L67.8253 10.5102L67.6998 10.1198H61.3704L61.2449 10.5102L60.2411 13.5494H59.8089L63.9914 1.19731H64.3957L64.0332 2.29868L61.7189 9.2694L61.468 10.0083H67.6301L67.3791 9.2694L65.0927 2.29868L64.6466 1.19731H65.037H65.0649ZM65.4413 0.639648H63.5313L59.2234 13.5355L59.3767 14.121H60.6454L61.7886 10.6914H67.2397L68.3829 14.121H70.0141L65.4692 0.639648H65.4413ZM62.165 9.39488L64.4793 2.42415L66.7657 9.39488H62.165Z" fill="#262626"/>
<path d="M36.5967 30.3487V31.6732H45.8259V30.3487H42.2569V17.7178H37.8375V19.0562H40.5561V30.3487H36.5967Z" fill="#262626"/>
<path d="M52.7406 25.5112C49.8965 25.5112 48.4745 26.6218 48.4745 28.8432C48.43 29.6515 48.6997 30.4458 49.2273 31.0599C49.5232 31.3454 49.8762 31.5651 50.263 31.7044C50.6499 31.8438 51.0619 31.8997 51.4719 31.8685C52.1786 31.886 52.8769 31.7126 53.4934 31.3666C54.0952 30.9568 54.5765 30.3937 54.8875 29.7354V29.7354C54.9283 30.2811 55.1433 30.7991 55.501 31.2132C55.6823 31.3933 55.9016 31.5306 56.1428 31.615C56.384 31.6994 56.6411 31.7289 56.8951 31.7012C57.3364 31.7013 57.7762 31.6499 58.2056 31.5478V30.4883C58.0202 30.5076 57.8333 30.5076 57.6479 30.4883C57.4994 30.5058 57.349 30.4795 57.2153 30.4126C57.0815 30.3457 56.9702 30.2412 56.8951 30.1119C56.7453 29.7551 56.6785 29.3689 56.6999 28.9826V24.7305C56.7301 24.2645 56.6613 23.7975 56.4979 23.3602C56.3345 22.9228 56.0802 22.5251 55.7519 22.1931C54.9659 21.5604 53.9704 21.2468 52.9636 21.3148C50.6029 21.3148 49.2784 22.2442 48.9903 24.1031L50.7051 24.2425C50.7155 24.0092 50.7727 23.7804 50.8733 23.5696C50.9739 23.3589 51.1158 23.1705 51.2906 23.0157C51.7671 22.7115 52.331 22.5742 52.8939 22.6253C53.1821 22.6003 53.4723 22.6357 53.746 22.7293C54.0197 22.823 54.2708 22.9727 54.4832 23.169C54.8626 23.6774 55.0412 24.3077 54.9851 24.9396V25.4972L52.7406 25.5112ZM54.9572 27.4909C54.9533 28.0128 54.8191 28.5256 54.5669 28.9826C54.3128 29.4703 53.9276 29.8775 53.4547 30.1582C52.9818 30.439 52.44 30.5823 51.8901 30.5719C51.6635 30.5869 51.4363 30.5523 51.2244 30.4704C51.0125 30.3885 50.821 30.2614 50.6633 30.0979C50.3729 29.7516 50.2236 29.3086 50.245 28.8571C50.2213 28.4203 50.3333 27.9869 50.5657 27.6163C50.7895 27.2969 51.1057 27.0536 51.4719 26.9193C52.0164 26.7426 52.5865 26.6578 53.1588 26.6683H54.9433L54.9572 27.4909Z" fill="#262626"/>
<path d="M65.0789 21.8985C65.8951 21.8575 66.7064 22.0459 67.4211 22.4422C67.7579 22.6506 68.0287 22.9503 68.2018 23.3066H67.8393C67.6779 22.9354 67.4051 22.6236 67.0586 22.4143C66.4509 22.0913 65.766 21.9418 65.0789 21.9821C63.1689 21.9821 62.4997 22.7071 62.2906 23.3763L62.1652 22.8883C62.2666 22.7414 62.3887 22.6099 62.5276 22.4979C63.2789 22.0078 64.1703 21.7776 65.065 21.8427L65.0789 21.8985ZM62.7646 25.2723C63.1977 25.6085 63.7041 25.8378 64.2424 25.9415L65.3717 26.2343C66.0881 26.4176 66.7806 26.6843 67.435 27.0289C67.7762 27.2054 68.072 27.4583 68.2994 27.7678C68.499 28.0736 68.5966 28.4348 68.5782 28.7995C68.5963 29.1516 68.5268 29.5028 68.376 29.8215C68.2252 30.1402 67.9977 30.4166 67.7138 30.6258C66.9165 31.1455 65.9731 31.3948 65.0231 31.3368H64.2285V31.2114H65.065C67.7696 31.2114 68.1739 29.8172 68.1739 29.0365C68.1761 28.7685 68.117 28.5035 68.001 28.2618C67.885 28.0202 67.7153 27.8083 67.5047 27.6423C67.0183 27.2911 66.462 27.0486 65.8736 26.9313C64.8768 26.7193 63.898 26.4303 62.9459 26.067L62.7786 25.3978L62.7646 25.2723ZM65.0789 21.4105C64.0569 21.3422 63.0413 21.617 62.193 22.1912C61.9395 22.3906 61.7265 22.6367 61.5657 22.9162L62.444 26.4294L62.5695 26.5131C63.5883 26.9287 64.6429 27.2507 65.7202 27.475C66.2215 27.5759 66.6963 27.78 67.1144 28.0745C67.2628 28.1892 67.3819 28.3374 67.4619 28.5071C67.5419 28.6767 67.5805 28.863 67.5744 29.0504C67.5744 30.1193 66.7287 30.6537 65.0371 30.6537C64.5005 30.6683 63.9648 30.6025 63.4478 30.4585L63.7963 31.8527C64.2122 31.9091 64.6314 31.937 65.051 31.9363C66.122 31.9972 67.1837 31.7085 68.0763 31.1138C68.4318 30.854 68.7181 30.511 68.9102 30.1148C69.1022 29.7186 69.1941 29.2813 69.1777 28.8413C69.201 28.3467 69.0641 27.8577 68.7873 27.4472C68.5108 27.062 68.1479 26.7469 67.7278 26.527C67.0251 26.1951 66.2857 25.9471 65.525 25.7881L64.4097 25.4954C63.9553 25.4127 63.526 25.2267 63.155 24.9516C63.0256 24.84 62.9232 24.7004 62.8556 24.5434C62.788 24.3865 62.7569 24.2162 62.7646 24.0454C62.7646 23.116 63.5314 22.6513 65.065 22.6513C65.6484 22.6143 66.231 22.7346 66.7519 22.9998C66.9349 23.1092 67.0904 23.2591 67.2064 23.4379C67.3224 23.6168 67.3958 23.8198 67.4211 24.0315L68.9407 23.8503C68.8756 23.4769 68.7327 23.1213 68.5214 22.8067C68.31 22.4921 68.0349 22.2254 67.7138 22.0239C66.908 21.5685 65.9895 21.351 65.065 21.3966L65.0789 21.4105Z" fill="#262626"/>
<path d="M63.0434 30.2368C62.8412 30.1024 62.6688 29.9278 62.5368 29.724C62.4049 29.5201 62.3164 29.2913 62.2766 29.0518L60.7849 29.3445C60.8665 29.7298 61.0261 30.0943 61.2539 30.4156C61.4817 30.7369 61.7728 31.0081 62.1093 31.2127C62.6363 31.4963 63.2145 31.6716 63.8102 31.7285L63.4617 30.3344C63.3189 30.3184 63.1785 30.2856 63.0434 30.2368V30.2368Z" fill="#262626"/>
<path d="M61.189 24.2418C61.1752 24.7008 61.3017 25.1531 61.5515 25.5384C61.7912 25.8633 62.1009 26.1301 62.4577 26.3191L61.5654 22.8477C61.3197 23.2713 61.1899 23.7521 61.189 24.2418Z" fill="#262626"/>
<path d="M6.69189 36.3135V37.0942H1.47779V42.3641H5.66022V42.9636H1.47779V47.9407H6.69189V48.7214H0.515832V36.3135H6.65007H6.69189ZM7.20773 35.7559H0V49.2372H7.26349V47.3273H2.04939V43.4934H6.23182V41.7646H2.04939V37.6658H7.26349V35.7559H7.20773Z" fill="#262626"/>
<path d="M17.5665 35.7559L17.3853 36.0626L19.1279 37.2337L20.062 35.7559H17.5665Z" fill="#262626"/>
<path d="M11.4461 36.3157L14.2344 41.1116L14.7223 41.976L15.2103 41.1116L17.6221 36.9292L18.4168 37.4589L15.4333 42.1014L15.2521 42.3942L15.4333 42.687L19.1418 48.6679H17.9986L15.2103 43.7187L14.7223 42.8543L14.1786 43.7605L11.3903 48.7097H10.2332L13.9416 42.7288L14.1228 42.436L13.9416 42.1433L10.275 36.3157H11.4182H11.4461ZM11.7388 35.7581H9.28516L13.4676 42.4082L9.28516 49.2395H11.6691L14.6526 43.9975L17.6361 49.2395H20.1177L15.8516 42.3663L19.086 37.208L17.3294 36.0369L14.6805 40.8328L11.7667 35.7441L11.7388 35.7581Z" fill="#262626"/>
<path d="M29.7928 42.5462C30.122 42.162 30.3816 41.7232 30.5595 41.2496C30.7266 40.8034 30.8162 40.3319 30.8244 39.8555C30.8281 39.1762 30.6805 38.5047 30.3922 37.8897C30.1211 37.2937 29.7039 36.7758 29.1793 36.384C28.6503 35.9972 28.0082 35.7962 27.353 35.8124H22.2783V39.4093L24.2998 40.8035V37.8758H27.2694C27.4775 37.8858 27.6806 37.9424 27.864 38.0413C28.0474 38.1402 28.2062 38.279 28.3289 38.4474C28.6482 38.8415 28.8207 39.3343 28.8169 39.8415C28.816 40.1793 28.7398 40.5127 28.5938 40.8174C28.4615 41.1154 28.2609 41.3781 28.0083 41.5842C27.7853 41.7709 27.5044 41.8744 27.2136 41.877H25.9728L28.538 43.5918H28.6496C29.0924 43.3175 29.4801 42.9628 29.7928 42.5462Z" fill="#262626"/>
<path d="M22.8221 40.3999L23.7283 40.9994V42.3936H25.7916L27.1857 43.2858H23.7422V48.6812H22.8221V40.3999ZM22.2644 39.3404V49.2249H24.2999V43.8435H27.2833C27.7198 43.8409 28.1496 43.7358 28.5381 43.5368L25.9728 41.822H24.2999V40.7066L22.2783 39.3125L22.2644 39.3404Z" fill="#262626"/>
<path d="M41.6019 48.8625C42.4024 48.5134 43.1269 48.0115 43.7349 47.3847C44.3389 46.7378 44.8123 45.9804 45.1291 45.154C45.4746 44.2944 45.6498 43.3759 45.6449 42.4494C45.6562 40.6508 44.9719 38.9175 43.7349 37.6117C43.1373 36.9818 42.4222 36.475 41.6298 36.12C40.8236 35.7568 39.9487 35.5714 39.0646 35.5763C38.1942 35.5743 37.3335 35.7598 36.5412 36.12C35.7466 36.4784 35.0274 36.9846 34.4221 37.6117C33.8244 38.2476 33.3515 38.9901 33.0279 39.8005C32.6801 40.6448 32.5047 41.5502 32.5121 42.4633C32.4937 44.2783 33.1839 46.0289 34.436 47.3428L34.7009 47.6077L36.5969 48.8764C37.397 49.2265 38.2609 49.4073 39.1343 49.4073C40.0076 49.4073 40.8715 49.2265 41.6716 48.8764L41.6019 48.8625ZM35.1609 44.931C34.7629 44.1744 34.5549 43.3322 34.5549 42.4773C34.5549 41.6223 34.7629 40.7802 35.1609 40.0236C35.5334 39.2859 36.0845 38.6533 36.7642 38.1833C37.4329 37.7438 38.2156 37.5095 39.0158 37.5095C39.816 37.5095 40.5987 37.7438 41.2673 38.1833C41.9443 38.6368 42.4997 39.2496 42.8845 39.9678C43.2945 40.7202 43.5057 41.5647 43.4979 42.4215C43.5045 43.2765 43.2985 44.1196 42.8985 44.8752C42.5238 45.6 41.9723 46.2185 41.2952 46.6737C40.6213 47.106 39.8374 47.3359 39.0367 47.3359C38.236 47.3359 37.4521 47.106 36.7782 46.6737C36.1065 46.2376 35.5513 45.6442 35.1609 44.9449V44.931Z" fill="#262626"/>
<path d="M36.4571 48.8624L34.561 47.5938C35.1165 48.1212 35.7576 48.5502 36.4571 48.8624Z" fill="white"/>
<path d="M53.828 46.729C53.3472 47.1159 52.7441 47.3186 52.1272 47.3006C51.5783 47.2886 51.0376 47.1652 50.5378 46.9381C50.0199 46.7085 49.5476 46.3874 49.1437 45.9901L47.5962 47.3843C47.9806 47.7764 48.4168 48.1141 48.8927 48.388C49.3975 48.6835 49.9357 48.9175 50.496 49.0851C51.0559 49.2586 51.6386 49.3479 52.2248 49.35C53.0024 49.3608 53.77 49.1737 54.4554 48.8063C55.1077 48.4593 55.6598 47.9504 56.0586 47.3285C56.4428 46.7025 56.6554 45.9864 56.675 45.2522C56.6946 44.518 56.5205 43.7916 56.1702 43.1461C55.826 42.6176 55.3439 42.1934 54.776 41.9192C54.0411 41.5745 53.2757 41.2991 52.4896 41.0967C51.9785 40.9387 51.5137 40.79 51.0955 40.6505C50.7492 40.5327 50.4345 40.3372 50.1754 40.0789C50.0618 39.9477 49.9761 39.7948 49.9234 39.6294C49.8706 39.4641 49.852 39.2897 49.8687 39.117C49.8673 38.9517 49.8987 38.7878 49.9609 38.6347C50.0231 38.4816 50.1149 38.3423 50.2311 38.2247C50.481 37.9872 50.7886 37.819 51.1234 37.7368C51.4964 37.6401 51.8815 37.5979 52.2666 37.6113C52.7393 37.6081 53.2097 37.6786 53.6607 37.8204C54.0952 37.9569 54.5192 38.1246 54.9294 38.3223L56.3235 36.7748C55.6648 36.3524 54.9455 36.0327 54.1905 35.8268C53.5049 35.6709 52.8019 35.6053 52.0993 35.6316C51.0466 35.5955 50.0088 35.8879 49.1298 36.4681C48.7296 36.7509 48.397 37.1189 48.156 37.5456C47.9149 37.9722 47.7714 38.447 47.7356 38.9357C47.6149 39.6846 47.7683 40.4519 48.1678 41.0967C48.5994 41.7111 49.193 42.1937 49.8826 42.4908C50.7839 42.8841 51.7166 43.2012 52.6709 43.4388C53.1849 43.5707 53.6618 43.8188 54.065 44.1638C54.2326 44.3107 54.3648 44.4936 54.4517 44.6988C54.5387 44.904 54.578 45.1262 54.5669 45.3488C54.5578 45.6201 54.4864 45.8857 54.3583 46.125C54.2302 46.3643 54.0487 46.571 53.828 46.729Z" fill="#262626"/>
<path d="M60.7571 35.7559H58.7217V49.2372H60.7571V35.7559Z" fill="#262626"/>
<path d="M69.2472 43.1595V43.759H67.4348L67.2814 43.1595H69.2472ZM69.8048 42.6018H66.5146L66.9468 44.3306H69.7351V42.5879L69.8048 42.6018Z" fill="#262626"/>
<path d="M63.071 42.5889V44.3315H66.9607L66.5146 42.5889H63.071Z" fill="#262626"/>
<path d="M12.6308 53.6856C13.501 53.6862 14.3596 53.8866 15.1402 54.2711C15.832 54.6223 16.4552 55.0944 16.9805 55.6653L16.1998 56.3066C15.7704 55.8577 15.2714 55.4811 14.722 55.1913C14.0948 54.8743 13.4041 54.7034 12.7015 54.6913C11.9989 54.6792 11.3027 54.8263 10.665 55.1216C10.0681 55.4003 9.52529 55.7827 9.06176 56.2508C8.58993 56.7399 8.22025 57.3181 7.97433 57.9517C7.70953 58.6362 7.57707 59.3648 7.58397 60.0987C7.57509 60.8237 7.70768 61.5435 7.97433 62.2178C8.22574 62.837 8.58972 63.4042 9.04782 63.8907C9.4966 64.3866 10.0423 64.7851 10.6511 65.0618C11.2689 65.3401 11.9392 65.4828 12.6168 65.4801C13.3438 65.4803 14.0604 65.3083 14.708 64.9782C15.2577 64.6888 15.7568 64.3121 16.1858 63.8629L16.9526 64.5042C16.4286 65.0764 15.8051 65.5488 15.1124 65.8983C14.3315 66.2824 13.4731 66.4827 12.6029 66.4839C11.7966 66.4731 11.0023 66.2876 10.2747 65.9401C9.55518 65.5942 8.90356 65.122 8.35075 64.546C7.79095 63.971 7.34615 63.2943 7.04025 62.5524C6.40265 60.9209 6.40265 59.1092 7.04025 57.4777C7.3454 56.7229 7.78998 56.0324 8.35075 55.4422C8.89 54.857 9.53894 54.3833 10.2607 54.0481C10.9978 53.7204 11.7963 53.554 12.6029 53.5601L12.6308 53.6856ZM12.6029 53.0025C11.7141 52.9964 10.8344 53.1819 10.0237 53.5462C9.24884 53.8744 8.54379 54.3476 7.94645 54.9403C7.34735 55.5804 6.87437 56.3277 6.5523 57.1431C5.84129 58.9339 5.84129 60.9288 6.5523 62.7197C6.87603 63.5217 7.34912 64.255 7.94645 64.8806C8.55649 65.4642 9.26433 65.9361 10.0377 66.2747C10.8426 66.6417 11.7183 66.8274 12.6029 66.8184C13.5695 66.8238 14.5241 66.6043 15.3912 66.1771C16.3274 65.7034 17.1502 65.0329 17.8031 64.2114L16.1719 62.8172C15.7072 63.3888 15.1339 63.8627 14.485 64.2114C13.9159 64.5047 13.2849 64.6577 12.6447 64.6575C12.0492 64.6611 11.4598 64.5376 10.916 64.295C10.3851 64.0448 9.91072 63.689 9.52183 63.2494C9.11073 62.8114 8.78454 62.3009 8.55987 61.7438C8.31979 61.1361 8.20137 60.4871 8.21133 59.8338C8.20339 59.1716 8.32168 58.5139 8.55987 57.8959C8.77741 57.3352 9.10442 56.8233 9.52183 56.3902C9.92465 55.9735 10.3963 55.6292 10.916 55.3725C11.4721 55.1024 12.0823 54.9621 12.7005 54.9621C13.3187 54.9621 13.9289 55.1024 14.485 55.3725C15.1339 55.7213 15.7072 56.1951 16.1719 56.7667L17.8031 55.3725C17.1469 54.558 16.3247 53.8926 15.3912 53.4207C14.5242 52.9931 13.5695 52.7735 12.6029 52.7794V53.0025Z" fill="#262626"/>
<path d="M21.4281 53.8812V66.2333H20.5219V53.8812H21.4281ZM21.9857 53.3235H19.9084V66.8049H21.9439V53.3096L21.9857 53.3235Z" fill="#262626"/>
<path d="M30.6849 53.7009C31.487 53.6942 32.2812 53.8606 33.0131 54.1888C33.7393 54.5234 34.393 54.9971 34.937 55.583C36.0946 56.7758 36.7485 58.3683 36.7634 60.0303C36.7679 60.8849 36.6069 61.7324 36.2894 62.5258C35.9898 63.2761 35.5498 63.9622 34.9928 64.5473C34.4478 65.1322 33.7944 65.6057 33.0689 65.9415C32.3332 66.266 31.5378 66.4337 30.7337 66.4337C29.9296 66.4337 29.1342 66.266 28.3985 65.9415C27.6737 65.6045 27.0206 65.1311 26.4746 64.5473C25.3275 63.3354 24.6931 61.7269 24.704 60.0582C24.697 59.2169 24.8582 58.3827 25.178 57.6045C25.51 56.8482 25.9832 56.1621 26.5722 55.583C27.1282 54.9984 27.7906 54.5252 28.524 54.1888C29.2431 53.8665 30.0223 53.7002 30.8104 53.7009H30.6849ZM30.8104 65.5232C31.7277 65.533 32.6266 65.2657 33.3896 64.7565C34.148 64.2488 34.7665 63.5584 35.188 62.7489C35.6432 61.891 35.8734 60.9317 35.8572 59.9606C35.8694 59.0305 35.6487 58.1121 35.2153 57.2891C34.7818 56.4661 34.1494 55.7646 33.3756 55.2484C32.6138 54.7477 31.722 54.4808 30.8104 54.4808C29.8987 54.4808 29.007 54.7477 28.2452 55.2484C27.4923 55.7566 26.8749 56.4409 26.4467 57.242C26.0035 58.0822 25.7719 59.0177 25.7719 59.9676C25.7719 60.9174 26.0035 61.853 26.4467 62.6931C26.8788 63.4958 27.5011 64.1803 28.2591 64.6868C29.0185 65.1926 29.9119 65.4596 30.8243 65.4535L30.8104 65.5232ZM30.8243 53.0596C29.9539 53.0576 29.0933 53.2431 28.3009 53.6033C27.5064 53.9617 26.7872 54.4679 26.1818 55.095C25.5842 55.7309 25.1113 56.4734 24.7877 57.2838C24.4398 58.1282 24.2645 59.0335 24.2718 59.9467C24.2534 61.7616 24.9436 63.5122 26.1958 64.8262C26.794 65.4589 27.5088 65.9702 28.3009 66.3318C29.1109 66.6911 29.9871 66.8768 30.8731 66.8768C31.7592 66.8768 32.6354 66.6911 33.4453 66.3318C34.1645 65.9853 34.816 65.5132 35.3692 64.9377C35.9702 64.2991 36.4434 63.5514 36.7634 62.735C37.1089 61.8753 37.2841 60.9568 37.2792 60.0303C37.2978 58.2221 36.6129 56.4775 35.3692 55.1647C34.7716 54.5348 34.0565 54.0281 33.2641 53.673C32.4579 53.3098 31.583 53.1244 30.6989 53.1293L30.8243 53.0596ZM30.8243 64.8819C29.974 64.9504 29.124 64.7452 28.3985 64.2964C27.7149 63.8464 27.1542 63.2331 26.7674 62.5119C26.3693 61.7553 26.1613 60.9131 26.1613 60.0582C26.1613 59.2032 26.3693 58.3611 26.7674 57.6045C27.1514 56.8738 27.7122 56.2508 28.3985 55.7921C29.0672 55.3525 29.8499 55.1183 30.6501 55.1183C31.4503 55.1183 32.2329 55.3525 32.9016 55.7921C33.5786 56.2456 34.1339 56.8584 34.5188 57.5766C34.9288 58.329 35.14 59.1735 35.1322 60.0303C35.1388 60.8852 34.9328 61.7284 34.5327 62.484C34.158 63.2088 33.6066 63.8273 32.9295 64.2825C32.2612 64.7279 31.474 64.9611 30.671 64.9516L30.8243 64.8819Z" fill="#262626"/>
<path d="M41.8942 53.8814L46.8853 64.2678L47.8333 66.2336H47.1223L41.9361 55.652L41.0717 53.8814H41.9082H41.8942ZM40.8765 53.8814V66.2057H39.9703V53.8814H40.8765ZM47.9169 57.2274L48.851 57.8548V66.2196H47.9169V57.2274ZM42.2149 53.3098H39.3848V66.7773H41.4202V55.889L46.7598 66.7912H49.4505V57.548L47.3872 56.1539V64.0029L42.2428 53.2959L42.2149 53.3098Z" fill="#262626"/>
<path d="M47.387 53.3096V56.1676L49.4503 57.5478V53.3096H47.387Z" fill="#262626"/>
<path d="M52.3228 60.1553L53.229 60.7687V65.453H58.4431V66.2337H52.3089V60.1553H52.3228ZM51.7512 59.0957V66.7914H59.0705V64.8814H53.8006V61.0475H54.6789L51.7652 59.0957H51.7512Z" fill="#262626"/>
<path d="M58.0383 61.0471V59.3183H53.8001V55.2196H59.0281V53.3096H51.7646V59.0953L54.6924 61.0471H58.0383Z" fill="#262626"/>
<path d="M68.0763 59.57C67.3414 59.2253 66.576 58.9499 65.7899 58.7474C65.2787 58.5894 64.814 58.4407 64.3958 58.3013C64.0495 58.1834 63.7347 57.9879 63.4756 57.7297C63.3621 57.5985 63.2764 57.4455 63.2236 57.2802C63.1709 57.1148 63.1523 56.9405 63.1689 56.7677C63.1676 56.6025 63.1989 56.4386 63.2611 56.2855C63.3234 56.1323 63.4152 55.993 63.5314 55.8755C63.7813 55.6379 64.0888 55.4697 64.4236 55.3875C64.7967 55.2909 65.1817 55.2486 65.5669 55.2621C66.0396 55.2588 66.51 55.3294 66.961 55.4712C67.3954 55.6077 67.8194 55.7754 68.2297 55.9731L69.5123 54.5789L69.4426 54.2722C68.8517 53.9383 68.2186 53.6851 67.5605 53.5194C66.8882 53.333 66.1947 53.2346 65.4971 53.2266C64.4445 53.1905 63.4067 53.4829 62.5276 54.0631C62.1274 54.3459 61.7949 54.7139 61.5538 55.1406C61.3128 55.5672 61.1692 56.042 61.1335 56.5307C61.0127 57.2796 61.1662 58.0469 61.5657 58.6917C61.9972 59.3061 62.5909 59.7887 63.2805 60.0858C64.1818 60.4791 65.1145 60.7962 66.0687 61.0338C66.5828 61.1657 67.0597 61.4137 67.4629 61.7588C67.6305 61.9057 67.7627 62.0886 67.8496 62.2938C67.9365 62.499 67.9759 62.7212 67.9648 62.9438C67.9627 63.214 67.8987 63.4801 67.7779 63.7217C67.6571 63.9634 67.4826 64.1741 67.2677 64.3379C66.7868 64.7248 66.1838 64.9275 65.5669 64.9095C65.018 64.8975 64.4773 64.7742 63.9775 64.5471C63.4596 64.3174 62.9873 63.9963 62.5834 63.599L61.0359 64.9932C61.4203 65.3853 61.8565 65.7231 62.3324 65.997C62.8371 66.2924 63.3754 66.5265 63.9357 66.6941C64.4956 66.8676 65.0783 66.9568 65.6644 66.9589C66.4421 66.9697 67.2097 66.7826 67.8951 66.4152C68.5474 66.0683 69.0995 65.5594 69.4983 64.9374C69.8825 64.3115 70.0951 63.5954 70.1147 62.8612C70.1343 62.127 69.9601 61.4005 69.6099 60.755C69.2221 60.2219 68.69 59.8107 68.0763 59.57V59.57Z" fill="#262626"/>
<path d="M69.6936 54.4247L69.4563 54.2852L69.5261 54.5922L69.6936 54.4247Z" fill="white"/>
</g>
<defs>
<clipPath id="clip0_1994_6303">
<rect width="70" height="66.4589" fill="white" transform="translate(0 0.541016)"/>
</clipPath>
</defs>
</svg>
