<svg viewBox="0 0 22 21" fill="none" xmlns="http://www.w3.org/2000/svg"><path d="M10.5001 -0.000915527C16.0238 -0.000915527 20.5016 4.47693 20.5016 10.0007C20.5016 10.6644 20.437 11.313 20.3136 11.9405C20.0685 11.2795 19.597 10.7283 18.9933 10.3812C18.9988 10.2551 19.0016 10.1282 19.0016 10.0007C19.0016 9.31126 18.9196 8.64097 18.7647 7.99916L15.4067 8C15.4692 8.64746 15.5016 9.31666 15.5016 10.0007C15.5016 10.2554 15.4971 10.508 15.4883 10.7582C14.8813 11.3072 14.5 12.1009 14.5 12.9837C14.5 13.5766 14.672 14.1293 14.9687 14.5946C14.9357 14.7273 14.9012 14.8582 14.8653 14.9873C13.9624 15.0353 13.1865 15.5623 12.7874 16.3189C13.0356 15.7888 13.2562 15.1771 13.439 14.5004H7.56118C8.21322 16.9145 9.3466 18.5022 10.5001 18.5022C11.2963 18.5022 12.0829 17.7458 12.7082 16.4832C12.5743 16.7896 12.5 17.128 12.5 17.4837C12.5 18.3007 12.6978 19.0402 13.056 19.6727C12.2401 19.8877 11.3835 20.0022 10.5001 20.0022C4.97638 20.0022 0.498535 15.5244 0.498535 10.0007C0.498535 4.47693 4.97638 -0.000915527 10.5001 -0.000915527ZM6.0084 14.501L3.28591 14.5008C4.24425 16.0339 5.6777 17.2395 7.38008 17.9115C6.8578 17.0916 6.42681 16.0654 6.10981 14.896L6.0084 14.501ZM5.59351 7.99998H2.2359L2.23115 8.01717C2.07906 8.65357 1.99854 9.31767 1.99854 10.0007C1.99854 11.0568 2.19112 12.068 2.5431 13.001L5.71626 13.0006C5.57396 12.0515 5.49854 11.0433 5.49854 10.0007C5.49854 9.31666 5.531 8.64746 5.59351 7.99998ZM7.10316 8.00006C7.03514 8.64037 6.99853 9.31006 6.99853 10.0007C6.99853 11.0602 7.08467 12.0705 7.23827 13.0008H13.7619C13.9155 12.0705 14.0016 11.0602 14.0016 10.0007C14.0016 9.31006 13.965 8.64037 13.897 8.00006H7.10316ZM7.38113 2.08979L7.35822 2.0985C5.31091 2.91321 3.6549 4.50052 2.75023 6.50039L5.79835 6.50075C6.11171 4.74796 6.65855 3.22204 7.38113 2.08979ZM10.5001 1.49908L10.3844 1.50438C9.119 1.62014 7.89651 3.62211 7.3288 6.50033H13.6714C13.1052 3.63017 11.888 1.63137 10.6264 1.5054L10.5001 1.49908ZM13.6201 2.08985L13.7269 2.26394C14.3961 3.37641 14.9043 4.8363 15.2018 6.50075L18.2499 6.50039C17.3853 4.58898 15.8343 3.05445 13.9113 2.21112L13.6201 2.08985ZM20 15.9837C20.8284 15.9837 21.5 16.6553 21.5 17.4837C21.5 18.5998 21.041 19.494 20.2879 20.0986C19.5466 20.6935 18.5531 20.9838 17.5 20.9838C16.4469 20.9838 15.4534 20.6935 14.7121 20.0986C14.4482 19.8867 14.2204 19.6393 14.0359 19.3593C13.6937 18.8401 13.5 18.2087 13.5 17.4837C13.5 16.8237 13.9264 16.2632 14.5187 16.0626C14.6698 16.0115 14.8316 15.9837 15 15.9837H20ZM19.5 12.9837C19.5 14.0883 18.6046 14.9837 17.5 14.9837C17.4634 14.9837 17.4271 14.9828 17.391 14.9808C16.9359 14.9564 16.5211 14.7798 16.1968 14.5009C15.7741 14.1375 15.505 13.6006 15.5001 13.0006C15.5 12.995 15.5 12.9894 15.5 12.9837C15.5 11.8792 16.3954 10.9837 17.5 10.9837C18.028 10.9837 18.5083 11.1884 18.8658 11.5227C19.2561 11.8877 19.5 12.4072 19.5 12.9837Z" fill="black"/></svg>
