<svg width="41" height="41" viewBox="0 0 41 41" fill="none" xmlns="http://www.w3.org/2000/svg">
<rect x="0.0856934" y="0.657227" width="40.0032" height="40.0099" rx="20.0016" fill="none"/>
<path d="M31.5863 15.1692C31.4504 14.6844 31.1857 14.2455 30.8203 13.8992C30.4446 13.5422 29.9841 13.2868 29.4823 13.1572C27.6043 12.6622 20.0803 12.6622 20.0803 12.6622C16.9436 12.6265 13.8077 12.7835 10.6903 13.1322C10.1885 13.2714 9.72887 13.5325 9.35231 13.8922C8.98231 14.2482 8.71431 14.6872 8.57431 15.1682C8.238 16.9799 8.0746 18.8195 8.08631 20.6622C8.07431 22.5032 8.23731 24.3422 8.57431 26.1562C8.71131 26.6352 8.97831 27.0722 9.34931 27.4252C9.72031 27.7782 10.1823 28.0332 10.6903 28.1682C12.5933 28.6622 20.0803 28.6622 20.0803 28.6622C23.221 28.6979 26.3609 28.541 29.4823 28.1922C29.9841 28.0626 30.4446 27.8072 30.8203 27.4502C31.1856 27.1039 31.45 26.665 31.5853 26.1802C31.9304 24.3691 32.0982 22.5288 32.0863 20.6852C32.1123 18.8338 31.9447 16.9847 31.5863 15.1682V15.1692ZM17.6883 24.0862V17.2392L23.9483 20.6632L17.6883 24.0862Z" fill="white"/>
</svg>
