<svg width="42" height="43" viewBox="0 0 42 43" fill="none" xmlns="http://www.w3.org/2000/svg">
<g clip-path="url(#clip0)">
<path d="M9.89993 4.63009H11.0399L13.0399 7.85006H14.1799L12.1799 4.5801C12.4896 4.52696 12.7795 4.39233 13.0199 4.19009C13.2871 3.96735 13.505 3.69152 13.6599 3.38009C13.8178 3.0704 13.9001 2.7277 13.8999 2.38009C13.9014 1.99366 13.8087 1.6127 13.6299 1.2701C13.4617 0.941515 13.2185 0.657151 12.9199 0.440087C12.6297 0.228684 12.279 0.116462 11.9199 0.12008H8.91992V7.86007H9.91992L9.89993 4.63009ZM9.89993 1.07009H11.8999C12.0905 1.06863 12.2752 1.13611 12.4199 1.26009C12.5792 1.39691 12.7056 1.56779 12.7899 1.76009C12.8809 1.95418 12.9287 2.16572 12.9299 2.38009C12.9261 2.58252 12.8747 2.78122 12.7799 2.96011C12.6858 3.15187 12.553 3.3221 12.3899 3.46011C12.2466 3.58771 12.0618 3.65875 11.8699 3.66006H9.8699L9.89993 1.07009Z" fill="#231F20"/>
<path d="M15.5001 6.78998C15.8403 7.15195 16.248 7.44412 16.7001 7.65002C17.1724 7.8595 17.6834 7.96771 18.2001 7.96771C18.7168 7.96771 19.2277 7.8595 19.7001 7.65002C20.1553 7.44889 20.5665 7.16002 20.9101 6.79999C21.2581 6.43177 21.5329 6.00078 21.7201 5.52997C21.9162 5.03346 22.0146 4.50378 22.0101 3.96997C22.0133 3.44926 21.9148 2.93297 21.7201 2.45001C21.5304 1.9805 21.2558 1.54995 20.9101 1.17999C20.57 0.815197 20.1625 0.519756 19.7101 0.309998C19.2509 0.104194 18.7533 -0.00219727 18.2501 -0.00219727C17.7468 -0.00219727 17.2493 0.104194 16.7901 0.309998C16.3331 0.517577 15.9192 0.809307 15.5701 1.16998C14.8397 1.92233 14.4339 2.93141 14.4401 3.97998C14.4258 5.02434 14.8206 6.03285 15.5401 6.78998H15.5001ZM15.6001 2.78998C15.7383 2.42329 15.9416 2.08454 16.2001 1.78998C16.45 1.51309 16.7525 1.28876 17.0901 1.13C17.4316 0.971556 17.8036 0.889465 18.1801 0.889465C18.5566 0.889465 18.9286 0.971556 19.2701 1.13C19.6076 1.28876 19.9101 1.51309 20.1601 1.78998C20.4186 2.08454 20.6218 2.42329 20.7601 2.78998C20.9079 3.16571 20.9826 3.56622 20.9801 3.96997C20.9765 4.36342 20.902 4.75302 20.7601 5.12C20.6247 5.48808 20.4211 5.82733 20.1601 6.12C19.9088 6.39534 19.6065 6.61943 19.2701 6.77997C18.9294 6.94076 18.5568 7.02284 18.1801 7.02002C17.8001 7.02331 17.4242 6.94125 17.0801 6.77997C16.7424 6.62145 16.4398 6.39708 16.1901 6.12C15.6606 5.52523 15.3687 4.75633 15.3701 3.96002C15.3731 3.56233 15.4511 3.16874 15.6001 2.79999V2.78998Z" fill="#231F20"/>
<path d="M14.45 13.42C14.7005 13.1437 15.0029 12.9195 15.34 12.76C15.6875 12.5983 16.0667 12.5163 16.45 12.5201C16.8889 12.5202 17.3212 12.6266 17.71 12.8301C18.1082 13.0533 18.4503 13.3646 18.71 13.74L19.55 13.19C19.1953 12.6728 18.7221 12.2476 18.17 11.95C17.6309 11.6651 17.0298 11.5174 16.42 11.5201C15.9093 11.5184 15.4044 11.6275 14.94 11.84C14.4809 12.0484 14.0666 12.3439 13.72 12.7101C13.3673 13.0804 13.089 13.5149 12.9 13.99C12.7041 14.4866 12.6057 15.0162 12.61 15.55C12.6073 16.0717 12.7093 16.5885 12.91 17.07C13.1023 17.5345 13.3805 17.9586 13.73 18.32C14.0746 18.6789 14.4855 18.9675 14.94 19.17C15.4035 19.3721 15.9044 19.4744 16.41 19.47C17.1021 19.4954 17.7895 19.3476 18.41 19.04C18.963 18.7311 19.4041 18.255 19.67 17.68V15.62H17.32V16.62H18.66V17.48C18.4462 17.8351 18.1334 18.1201 17.76 18.3C17.3347 18.4717 16.8784 18.5534 16.42 18.54C16.0434 18.5412 15.6713 18.4592 15.33 18.3C14.9919 18.1461 14.6864 17.9288 14.43 17.66C13.9036 17.1032 13.6102 16.3662 13.61 15.6C13.6086 15.207 13.6797 14.8172 13.82 14.45C13.9593 14.0682 14.1735 13.7179 14.45 13.42Z" fill="#231F20"/>
<path d="M21.5301 11.61H20.5701V19.35H21.5301V11.61Z" fill="#231F20"/>
<path d="M20.9799 9.40002L20.6799 10.96H21.2999L21.7699 9.40002H20.9799Z" fill="#231F20"/>
<path d="M16.27 28.48C16.5635 27.7721 16.6441 26.9939 16.502 26.2408C16.3599 25.4877 16.0012 24.7924 15.47 24.24C15.125 23.8842 14.714 23.5989 14.26 23.4001C13.7851 23.2027 13.2741 23.1072 12.76 23.12H10.48V30.8901H12.76C13.2689 30.8949 13.7731 30.7926 14.24 30.59C14.6903 30.3898 15.0977 30.1046 15.44 29.75C15.7951 29.3835 16.0769 28.9524 16.27 28.48ZM14.21 29.48C13.7816 29.7479 13.2852 29.8868 12.78 29.88H11.48V24H12.76C13.265 23.9949 13.7609 24.1337 14.19 24.4001C14.6081 24.6625 14.9523 25.0274 15.19 25.4601C15.4333 25.9136 15.5607 26.4203 15.5607 26.935C15.5607 27.4497 15.4333 27.9564 15.19 28.41C14.9581 28.8517 14.6174 29.2269 14.2 29.5L14.21 29.48Z" fill="#231F20"/>
<path d="M23.8101 1.34998L25.2601 3.98998L27.3901 7.84998H28.6601V0.0999756H27.7001V6.51998L25.6601 2.78998L24.1901 0.0999756H22.8501V7.82998H23.8101V1.34998Z" fill="#231F20"/>
<path d="M20.2999 24H20.3999H21.6599V23.12H20.6199H20.5199H17.4399V30.86H18.5999H18.7099H21.6599V29.97H18.9299H18.8199H18.3999V27.48H19.4399H19.5399H21.0399V26.64H19.7499H19.6499H18.3999V24H20.2999Z" fill="#231F20"/>
<path d="M11.8667 34.5801L10.9348 34.8109L12.7955 42.3239L13.7273 42.0931L11.8667 34.5801Z" fill="#231F20"/>
<path d="M16.7695 34.5709L14.9102 42.0842L15.842 42.3148L17.7014 34.8015L16.7695 34.5709Z" fill="#231F20"/>
<path d="M30.66 6.78998C31.0003 7.15195 31.4079 7.44412 31.86 7.65002C32.3323 7.8595 32.8433 7.96771 33.36 7.96771C33.8767 7.96771 34.3877 7.8595 34.86 7.65002C35.3152 7.44889 35.7264 7.16002 36.07 6.79999C36.418 6.43177 36.6928 6.00078 36.88 5.52997C37.0761 5.03346 37.1746 4.50378 37.17 3.96997C37.1732 3.44926 37.0747 2.93297 36.88 2.45001C36.6903 1.9805 36.4157 1.54995 36.07 1.17999C35.7299 0.815197 35.3224 0.519756 34.87 0.309998C34.4107 0.104194 33.9132 -0.00219727 33.41 -0.00219727C32.9067 -0.00219727 32.4092 0.104194 31.95 0.309998C31.493 0.517577 31.0791 0.809307 30.73 1.16998C29.9996 1.92233 29.5938 2.93141 29.6 3.97998C29.5857 5.02434 29.9805 6.03285 30.7 6.78998H30.66ZM30.76 2.78998C30.8983 2.42329 31.1015 2.08454 31.36 1.78998C31.6099 1.51309 31.9124 1.28876 32.25 1.13C32.5915 0.971556 32.9635 0.889465 33.34 0.889465C33.7165 0.889465 34.0885 0.971556 34.43 1.13C34.7675 1.28876 35.0701 1.51309 35.32 1.78998C35.5785 2.08454 35.7817 2.42329 35.92 2.78998C36.0678 3.16571 36.1425 3.56622 36.14 3.96997C36.1445 4.37624 36.0733 4.7798 35.93 5.15997C35.7946 5.52805 35.5911 5.86731 35.33 6.15997C35.0787 6.43532 34.7764 6.65947 34.44 6.82001C34.0993 6.9808 33.7267 7.06282 33.35 7.06C32.97 7.06329 32.5941 6.98129 32.25 6.82001C31.9123 6.66149 31.6097 6.43706 31.36 6.15997C30.8305 5.5652 30.5386 4.7963 30.54 4C30.5347 3.58951 30.6094 3.1819 30.76 2.79999V2.78998Z" fill="#231F20"/>
<path d="M28.36 19.74H29.36L26.76 12H25.59L23 19.74H24L24.64 17.8H27.64L28.36 19.74ZM24.98 16.97L26.22 13.26L27.45 16.97H24.98Z" fill="#231F20"/>
<path d="M30.76 19.12C31.2095 19.3099 31.6922 19.4084 32.1801 19.41C32.6256 19.4127 33.0651 19.3063 33.4601 19.1C33.8349 18.9059 34.1548 18.6205 34.39 18.2701C34.608 17.9194 34.7293 17.5172 34.7416 17.1045C34.7539 16.6917 34.6568 16.2831 34.4601 15.92C34.2532 15.6234 33.9698 15.3884 33.64 15.24C33.2178 15.0483 32.7794 14.8944 32.33 14.78C32.0517 14.702 31.778 14.6085 31.51 14.5C31.2928 14.4152 31.0978 14.2818 30.94 14.11C30.7962 13.9401 30.7213 13.7225 30.73 13.5C30.7279 13.2811 30.8103 13.0697 30.9601 12.91C31.1189 12.7554 31.3154 12.6451 31.53 12.59C31.7743 12.5225 32.0266 12.4889 32.28 12.49C32.5533 12.4962 32.825 12.5331 33.09 12.6C33.3562 12.6668 33.617 12.7537 33.87 12.86L34.51 12.09H34.4601C34.1146 11.89 33.7401 11.7449 33.35 11.66C32.9823 11.5773 32.6069 11.5338 32.23 11.53C31.6044 11.5013 30.9855 11.6692 30.4601 12.01C30.2373 12.17 30.0534 12.3779 29.9218 12.6185C29.7903 12.8591 29.7145 13.1262 29.7 13.4001C29.6494 13.802 29.7414 14.209 29.9601 14.55C30.191 14.8729 30.5008 15.1311 30.86 15.3C31.2947 15.5112 31.7506 15.6755 32.22 15.79C32.6378 15.8725 33.0332 16.0429 33.38 16.29C33.4951 16.3882 33.5863 16.5112 33.647 16.6498C33.7076 16.7884 33.736 16.9389 33.73 17.09C33.7287 17.3417 33.6482 17.5866 33.5 17.79C33.3466 17.9944 33.1435 18.1562 32.91 18.26C32.6366 18.377 32.3424 18.4372 32.045 18.4372C31.7477 18.4372 31.4535 18.377 31.1801 18.26C30.8582 18.1384 30.5577 17.9662 30.29 17.75L29.55 18.43C29.9099 18.729 30.3195 18.9626 30.76 19.12Z" fill="#231F20"/>
<path d="M4.58988 34.62H3.62988V42.36H4.58988V34.62Z" fill="#231F20"/>
<path d="M5.59009 34.61V42.35H6.55009V35.86L10.1201 42.36H11.2601L7.03009 34.61H5.59009Z" fill="#231F20"/>
<path d="M2.4799 6.81006C2.82668 7.16382 3.23722 7.44885 3.68989 7.65009L3.92991 7.75006H4.0199C4.38823 7.869 4.77284 7.92973 5.15989 7.93005C5.68775 7.93198 6.20975 7.81938 6.68989 7.60004C7.19483 7.36243 7.64447 7.0218 8.00989 6.60004L7.24988 5.97003C6.99349 6.27671 6.67419 6.52474 6.3136 6.69727C5.95302 6.8698 5.55956 6.9628 5.15989 6.97003C4.78002 6.97199 4.40441 6.89005 4.05988 6.73004C3.93202 6.67211 3.80839 6.60527 3.68989 6.53003C3.49747 6.40344 3.31972 6.25587 3.15989 6.09003C2.89738 5.81933 2.69019 5.5001 2.5499 5.15009C2.25766 4.38367 2.25766 3.5365 2.5499 2.77008L2.6699 2.52008C2.79981 2.26808 2.96477 2.03577 3.15989 1.83008C3.41888 1.56426 3.72377 1.34743 4.05988 1.19006C4.40441 1.03006 4.78002 0.948118 5.15989 0.950073C5.55956 0.957305 5.95302 1.05031 6.3136 1.22284C6.67419 1.39537 6.99349 1.6434 7.24988 1.95007L8.00989 1.32007C7.64447 0.898306 7.19483 0.557674 6.68989 0.320068C6.21692 0.112991 5.7062 0.00610352 5.18989 0.00610352C4.67357 0.00610352 4.16285 0.112991 3.68989 0.320068C3.23733 0.521514 2.82684 0.806459 2.4799 1.16003L2.37989 1.27008L2.31989 1.34003C2.05283 1.658 1.83693 2.01567 1.67991 2.40009C1.28639 3.41321 1.28639 4.53692 1.67991 5.55005C1.85994 6.01917 2.13193 6.44757 2.4799 6.81006Z" fill="#231F20"/>
<path d="M3.66 18.42H0.96V11.61H0V19.35H3.66V18.42Z" fill="#231F20"/>
<path d="M6.86995 19.25H6.95998C7.31899 19.3636 7.69341 19.4209 8.06996 19.42C8.57556 19.424 9.07638 19.3218 9.53996 19.12C9.99519 18.9189 10.4063 18.6301 10.75 18.27C11.0979 17.9018 11.3728 17.4708 11.56 17C11.7561 16.5035 11.8545 15.9738 11.85 15.44C11.8532 14.9193 11.7546 14.4029 11.56 13.92C11.3703 13.4505 11.0957 13.02 10.75 12.65C10.4099 12.2852 10.0024 11.9897 9.54997 11.78C9.09075 11.5742 8.59318 11.4678 8.08995 11.4678C7.58672 11.4678 7.08918 11.5742 6.62996 11.78C6.17293 11.9875 5.75906 12.2793 5.40996 12.64L5.29997 12.76L5.23997 12.83C4.60089 13.5955 4.2643 14.5686 4.29378 15.5654C4.32326 16.5621 4.71677 17.5136 5.39998 18.24C5.74025 18.602 6.14784 18.8941 6.59996 19.1L6.86995 19.25ZM6.10997 17.65C5.58049 17.0553 5.28857 16.2863 5.28996 15.49C5.28723 15.0862 5.36191 14.6857 5.50996 14.31C5.50996 14.22 5.58996 14.13 5.62996 14.04C5.7574 13.7829 5.91886 13.5441 6.10997 13.33C6.35989 13.0531 6.66242 12.8287 6.99995 12.67C7.34149 12.5115 7.71345 12.4294 8.08995 12.4294C8.46645 12.4294 8.83844 12.5115 9.17998 12.67C9.51751 12.8287 9.82004 13.0531 10.07 13.33C10.3284 13.6246 10.5317 13.9633 10.67 14.33C10.8178 14.7058 10.8925 15.1063 10.89 15.51C10.8945 15.9163 10.8233 16.3198 10.68 16.7C10.5446 17.0681 10.341 17.4074 10.08 17.7C9.82865 17.9754 9.52641 18.1994 9.18996 18.36C8.84924 18.5208 8.4767 18.6028 8.09996 18.6C7.71996 18.6033 7.34405 18.5213 6.99995 18.36L6.66997 18.18C6.45991 18.0298 6.27149 17.8515 6.10997 17.65Z" fill="#231F20"/>
<path d="M26.71 23.12V30.86H30.36V29.93H27.67V23.12H26.71Z" fill="#231F20"/>
<path d="M34.7601 30.97C35.2657 30.9743 35.7666 30.8721 36.2301 30.67C36.6853 30.4688 37.0965 30.18 37.4401 29.82C37.7881 29.4518 38.063 29.0208 38.2501 28.55C38.4462 28.0535 38.5447 27.5238 38.5401 26.99C38.5433 26.4693 38.4448 25.9529 38.2501 25.47C38.0604 25.0005 37.7859 24.57 37.4401 24.2C37.1001 23.8352 36.6926 23.5398 36.2401 23.33C35.7809 23.1242 35.2833 23.0178 34.7801 23.0178C34.2769 23.0178 33.7793 23.1242 33.3201 23.33C32.8631 23.5376 32.4492 23.8293 32.1001 24.19C31.3697 24.9423 30.9639 25.9514 30.9701 27C30.9558 28.0444 31.3506 29.0529 32.0701 29.81C32.4104 30.172 32.818 30.4641 33.2701 30.67C33.7396 30.8755 34.2477 30.9778 34.7601 30.97ZM32.7601 29.16C32.2306 28.5652 31.9387 27.7963 31.9401 27C31.9374 26.5962 32.0121 26.1957 32.1601 25.82C32.2984 25.4533 32.5016 25.1146 32.7601 24.82C33.01 24.5431 33.3126 24.3187 33.6501 24.16C33.9917 24.0015 34.3636 23.9194 34.7401 23.9194C35.1166 23.9194 35.4886 24.0015 35.8301 24.16C36.1676 24.3187 36.4702 24.5431 36.7201 24.82C36.9786 25.1146 37.1818 25.4533 37.3201 25.82C37.4679 26.1957 37.5426 26.5962 37.5401 27C37.5446 27.4063 37.4734 27.8098 37.3301 28.19C37.1947 28.5581 36.9912 28.8973 36.7301 29.19C36.4788 29.4653 36.1766 29.6894 35.8401 29.85C35.4994 30.0108 35.1268 30.0928 34.7501 30.09C34.3701 30.0933 33.9942 30.0113 33.6501 29.85C33.3277 29.6642 33.0455 29.4161 32.8201 29.12L32.7601 29.16Z" fill="#231F20"/>
<path d="M22.56 38.3C22.1377 38.1082 21.6994 37.9543 21.25 37.8399C20.9716 37.7619 20.6979 37.6685 20.43 37.56C20.2137 37.478 20.0188 37.3481 19.86 37.18C19.7162 37.0101 19.6412 36.7924 19.65 36.57C19.6478 36.351 19.7302 36.1397 19.88 35.98C20.0388 35.8254 20.2353 35.7151 20.45 35.6599C20.6942 35.5925 20.9466 35.5588 21.2 35.56C21.4733 35.5661 21.745 35.603 22.01 35.67C22.2762 35.7367 22.537 35.8236 22.79 35.93L23.43 35.1599H23.38C23.0345 34.9599 22.66 34.8149 22.27 34.73C21.9023 34.6474 21.5269 34.6038 21.15 34.5999C20.5244 34.5713 19.9054 34.7392 19.38 35.08C19.1572 35.2399 18.9733 35.4479 18.8418 35.6885C18.7102 35.929 18.6344 36.1961 18.62 36.4699C18.5693 36.8719 18.6613 37.2789 18.88 37.62C19.1109 37.9428 19.4207 38.2011 19.78 38.37C20.2146 38.5812 20.6705 38.7454 21.14 38.86C21.5578 38.9424 21.9532 39.1129 22.3 39.36C22.415 39.4582 22.5063 39.5812 22.5669 39.7198C22.6275 39.8583 22.656 40.0088 22.65 40.1599C22.6486 40.4116 22.5682 40.6565 22.42 40.86C22.2666 41.0643 22.0635 41.2261 21.83 41.33C21.5566 41.4469 21.2623 41.5072 20.965 41.5072C20.6676 41.5072 20.3734 41.4469 20.1 41.33C19.7781 41.2083 19.4777 41.0362 19.21 40.82L18.47 41.5C18.8103 41.8002 19.1991 42.0403 19.62 42.21C20.0694 42.3998 20.5521 42.4984 21.04 42.5C21.4855 42.5026 21.925 42.3962 22.32 42.19C22.6948 41.9959 23.0147 41.7104 23.25 41.36C23.4679 41.0093 23.5892 40.6071 23.6015 40.1944C23.6138 39.7816 23.5167 39.373 23.32 39.01C23.1337 38.7104 22.8715 38.4655 22.56 38.3Z" fill="#231F20"/>
<path d="M25.5 34.62H24.54V42.36H25.5V34.62Z" fill="#231F20"/>
<path d="M30.76 38.28C30.9416 38.0576 31.0929 37.8122 31.21 37.55C31.3188 37.287 31.3732 37.0046 31.37 36.72C31.3739 36.3548 31.2881 35.9943 31.12 35.67C30.96 35.361 30.7222 35.099 30.43 34.91C30.1294 34.7251 29.783 34.6282 29.43 34.63H26.52V42.37H29.76C30.0294 42.3688 30.2941 42.3 30.53 42.17C30.7734 42.0374 30.9904 41.8612 31.17 41.6501C31.3543 41.4333 31.4998 41.1863 31.6 40.92C31.7008 40.6651 31.755 40.3941 31.76 40.12C31.7586 39.7714 31.6728 39.4283 31.51 39.12C31.3338 38.782 31.076 38.4932 30.76 38.28ZM27.46 35.6H29.39C29.5267 35.5929 29.6632 35.6183 29.7883 35.6739C29.9134 35.7295 30.0236 35.8138 30.11 35.92C30.2901 36.1434 30.3857 36.4232 30.38 36.71C30.3778 36.9229 30.3303 37.1329 30.2406 37.326C30.1509 37.5191 30.0212 37.691 29.86 37.83C29.7224 37.9527 29.5444 38.0203 29.36 38.02H27.46V35.6ZM30.63 40.7C30.544 40.8913 30.4178 41.0619 30.26 41.2C30.1188 41.3233 29.9375 41.3909 29.75 41.39H27.47V38.96H29.76C29.8969 38.9561 30.0327 38.9849 30.1562 39.044C30.2797 39.1032 30.3873 39.1909 30.47 39.3C30.6501 39.5273 30.7455 39.8101 30.74 40.1C30.7473 40.3056 30.7097 40.5104 30.63 40.7Z" fill="#231F20"/>
<path d="M33.6199 34.62H32.6499V42.36H36.3099V41.43H33.6199V34.62Z" fill="#231F20"/>
<path d="M41.4099 35.51V34.62H37.1899V42.36H41.4099V41.48H38.1499V38.99H40.7899V38.15H38.1499V35.51H41.4099Z" fill="#231F20"/>
</g>
<defs>
<clipPath id="clip0">
<rect width="41.41" height="42.46" fill="white"/>
</clipPath>
</defs>
</svg>
